{"glyphs":{"0":{"ha":667,"x_min":63,"x_max":632,"o":"m 340 -19 q 217 19 269 -19 q 131 123 165 58 q 79 265 96 188 q 63 419 63 343 q 79 579 63 499 q 131 726 96 660 q 222 834 167 793 q 354 875 278 875 q 477 836 425 875 q 564 733 529 797 q 615 591 599 668 q 632 439 632 514 q 615 281 632 361 q 563 132 599 200 q 473 22 528 64 q 340 -19 418 -19 m 364 17 q 453 73 419 17 q 503 219 488 129 q 518 414 518 310 q 506 567 518 492 q 470 703 494 642 q 410 800 446 764 q 328 836 375 836 q 240 782 272 836 q 192 638 207 728 q 178 444 178 549 q 190 290 178 367 q 224 152 201 214 q 282 53 247 90 q 364 17 317 17 z "},"1":{"ha":667,"x_min":128,"x_max":581,"o":"m 149 -4 q 133 1 139 -4 q 128 13 128 7 q 149 31 128 25 q 235 56 201 44 q 285 90 269 68 q 301 151 301 111 l 301 682 q 285 722 301 708 q 242 742 268 736 q 185 749 215 747 q 160 756 171 750 q 149 772 149 761 q 159 789 149 782 q 183 797 169 796 q 295 822 246 807 q 392 883 344 836 q 395 885 393 885 q 399 885 397 885 q 411 881 406 885 q 415 872 417 878 q 411 827 413 851 q 410 774 410 803 l 410 135 q 423 82 410 100 q 468 53 436 64 q 557 29 500 43 q 573 23 565 28 q 581 11 581 18 q 561 -4 581 -4 q 490 -2 522 -4 q 426 1 457 0 q 357 3 394 3 q 286 1 319 3 q 219 -2 253 0 q 149 -4 186 -4 z "},"2":{"ha":667,"x_min":44,"x_max":654,"o":"m 582 -4 q 551 -3 572 -4 q 504 0 531 -1 q 449 3 478 1 q 394 4 421 4 q 319 3 368 4 q 217 1 271 1 q 124 -1 164 0 q 72 -3 83 -3 q 56 6 67 -3 q 44 21 44 15 q 47 31 44 28 q 56 39 50 33 l 293 285 q 408 447 363 357 q 454 628 454 536 q 410 744 454 701 q 306 786 365 786 q 200 755 249 786 q 122 674 151 724 q 112 660 118 665 q 99 654 106 654 q 85 666 93 654 q 78 696 78 678 q 98 742 78 713 q 154 801 118 771 q 240 853 190 832 q 349 875 290 875 q 468 846 418 875 q 544 765 518 817 q 571 646 571 714 q 558 565 571 608 q 522 481 544 522 q 469 403 499 439 q 416 344 451 381 q 340 265 381 307 q 262 187 299 224 q 201 126 225 150 q 178 99 178 101 q 197 89 178 92 q 251 86 221 88 q 319 85 281 85 q 400 86 360 85 q 478 89 440 88 q 540 96 518 92 q 578 113 563 100 q 610 154 593 126 q 624 174 615 163 q 644 186 633 186 q 653 181 651 186 q 654 169 654 175 q 647 142 654 163 q 629 93 639 122 q 613 29 619 64 q 599 1 608 7 q 582 -4 589 -4 z "},"3":{"ha":667,"x_min":69,"x_max":610,"o":"m 224 -53 q 156 -42 192 -53 q 94 -18 119 -32 q 69 7 69 -4 q 81 32 69 17 q 106 59 92 47 q 131 71 121 71 q 158 63 146 71 q 185 43 171 54 q 226 14 203 28 q 289 0 250 0 q 386 26 340 0 q 462 99 432 53 q 492 203 492 146 q 474 307 492 257 q 420 390 456 357 q 331 422 385 422 q 290 419 315 422 q 240 401 264 415 q 224 402 233 397 q 217 414 215 407 q 233 444 222 432 q 258 461 244 456 q 299 483 271 467 q 358 523 326 499 q 411 578 389 547 q 433 647 433 610 q 397 748 433 704 q 303 792 360 792 q 216 773 249 792 q 164 730 183 754 q 135 687 144 706 q 117 668 125 668 q 103 676 111 668 q 94 694 94 685 q 110 742 94 713 q 158 803 125 772 q 241 854 190 833 q 363 875 292 875 q 449 855 408 875 q 517 799 490 835 q 543 717 543 764 q 529 647 543 683 q 483 576 515 611 q 397 508 451 540 q 393 503 393 507 q 399 500 393 500 q 506 470 458 500 q 581 391 553 440 q 610 282 610 342 q 576 142 610 204 q 488 37 543 81 q 363 -30 432 -7 q 224 -53 294 -53 z "},"4":{"ha":667,"x_min":26,"x_max":669,"o":"m 292 -4 q 276 0 285 -4 q 267 14 267 4 q 275 25 267 21 q 292 31 283 29 q 378 58 357 39 q 399 111 399 78 l 399 240 q 389 250 399 247 q 378 253 379 253 q 272 251 321 253 q 168 247 222 249 q 40 243 114 244 q 31 248 35 243 q 26 257 26 253 q 28 261 26 260 q 54 292 46 283 q 68 308 63 301 q 82 326 74 314 l 449 853 q 469 878 457 865 q 490 892 481 892 l 519 892 q 522 882 526 892 q 517 872 517 872 l 142 333 q 139 326 140 331 q 142 321 138 321 l 382 321 q 393 324 388 321 q 399 332 399 328 l 399 547 q 401 568 399 563 q 411 578 403 574 q 456 592 432 589 q 489 596 479 596 q 507 574 504 596 q 510 507 510 551 l 510 328 q 517 319 510 319 q 546 318 532 318 q 572 318 560 318 q 612 319 592 318 q 654 321 632 319 q 669 310 669 321 q 663 286 669 299 q 650 265 657 274 q 640 257 643 257 q 607 258 625 257 q 572 258 589 258 q 549 258 560 258 q 529 256 538 257 q 517 251 524 254 q 511 247 511 249 l 511 117 q 530 61 511 76 q 604 31 549 46 q 621 24 613 29 q 629 11 629 18 q 623 1 629 6 q 608 -4 617 -4 q 547 -2 569 -4 q 504 1 524 0 q 451 3 485 3 q 395 1 417 3 q 351 -2 374 0 q 292 -4 329 -4 z "},"5":{"ha":667,"x_min":100,"x_max":583,"o":"m 151 -53 q 118 -49 136 -53 q 100 -36 100 -46 q 119 -17 100 -25 q 150 -10 138 -10 q 331 30 260 -10 q 438 129 403 69 q 474 249 474 189 q 442 344 474 303 q 337 421 410 386 q 140 488 264 456 q 115 518 122 503 q 107 551 107 533 q 115 599 107 571 q 133 658 122 626 q 156 719 144 689 q 174 772 167 750 q 194 805 181 793 q 231 822 208 817 q 296 838 263 831 q 365 851 329 844 q 440 862 401 857 q 518 871 478 867 q 534 865 529 872 q 533 847 539 857 q 522 824 528 836 q 510 801 515 813 q 488 770 500 781 q 458 757 476 760 q 397 751 432 754 q 328 744 363 747 q 264 738 293 740 q 219 732 235 735 q 196 708 210 731 q 171 659 182 685 q 158 622 160 633 q 160 606 157 613 q 176 596 164 599 q 318 551 254 574 q 429 503 382 528 q 545 408 507 463 q 583 268 583 353 q 538 125 583 192 q 414 14 492 58 q 335 -22 376 -7 q 247 -44 293 -36 q 151 -53 201 -53 z "},"6":{"ha":667,"x_min":65,"x_max":635,"o":"m 350 -22 q 214 10 279 -22 q 107 106 149 42 q 65 268 65 171 q 83 410 65 346 q 129 523 101 474 q 185 608 157 572 q 233 663 214 643 q 322 743 268 699 q 448 828 376 788 q 604 890 519 868 q 624 889 617 893 q 629 881 632 885 q 612 862 624 868 q 593 853 600 856 q 433 761 500 813 q 313 633 365 710 q 260 542 290 600 q 207 414 229 485 q 185 271 185 343 q 217 141 186 194 q 292 60 247 88 q 383 31 338 32 q 483 70 440 29 q 526 197 526 111 q 510 277 526 240 q 466 338 494 314 q 400 361 438 361 q 338 357 364 361 q 289 340 313 353 q 274 341 276 335 q 279 356 272 347 q 298 374 290 367 q 317 389 306 381 q 373 417 332 400 q 453 435 414 435 q 542 413 501 435 q 609 352 583 390 q 635 264 635 314 q 610 146 635 199 q 543 56 585 93 q 451 -2 501 18 q 350 -22 400 -22 z "},"7":{"ha":667,"x_min":50,"x_max":674,"o":"m 176 -44 q 154 -34 161 -44 q 147 -8 147 -24 q 157 14 147 -4 q 176 49 167 32 l 569 751 q 572 760 572 756 q 556 765 571 764 l 200 765 q 142 753 167 765 q 93 701 117 740 q 85 689 90 697 q 74 674 81 681 q 60 667 67 667 q 52 674 54 667 q 50 686 50 681 q 52 702 50 693 q 56 717 54 711 q 69 788 63 747 q 78 854 75 828 q 84 867 79 864 q 92 869 89 869 q 130 863 94 869 q 208 857 165 857 q 248 857 229 857 q 290 856 267 857 q 346 856 314 856 q 483 856 414 856 q 602 859 551 857 q 665 863 653 861 q 671 856 668 863 q 674 844 674 850 q 663 815 674 833 q 640 778 653 796 q 621 747 628 760 l 203 -7 q 189 -31 197 -18 q 176 -44 181 -44 z "},"8":{"ha":667,"x_min":90,"x_max":610,"o":"m 336 -19 q 216 8 272 -19 q 125 83 160 35 q 90 196 90 132 q 122 300 90 257 q 198 372 154 343 q 276 419 242 400 q 283 428 286 425 q 272 438 281 431 q 194 506 231 474 q 134 580 157 539 q 111 679 111 621 q 149 778 111 733 q 244 849 186 822 q 364 875 303 875 q 470 852 419 875 q 553 788 521 829 q 585 689 585 746 q 560 608 585 639 q 511 556 535 576 q 476 527 492 539 q 438 497 461 515 q 419 480 419 485 q 431 468 419 475 q 524 397 483 432 q 587 322 564 363 q 610 228 610 282 q 569 100 610 156 q 467 13 529 44 q 336 -19 404 -19 m 356 21 q 458 66 417 21 q 499 172 499 111 q 474 254 499 215 q 413 327 450 293 q 335 389 375 361 q 320 399 326 396 q 307 403 314 403 q 290 394 301 403 q 224 322 246 358 q 201 218 201 285 q 219 124 201 169 q 272 50 238 79 q 356 21 307 21 m 400 497 q 463 586 449 538 q 478 699 478 635 q 448 799 478 757 q 357 842 418 842 q 293 824 325 842 q 240 775 261 806 q 218 707 218 744 q 238 624 218 654 q 295 567 258 593 q 381 501 332 542 q 390 497 385 499 q 400 497 396 494 z "},"9":{"ha":667,"x_min":74,"x_max":643,"o":"m 93 -43 q 78 -40 82 -43 q 74 -32 74 -36 q 80 -22 74 -25 q 93 -18 86 -18 q 190 9 135 -18 q 301 83 244 36 q 401 186 357 129 q 473 300 446 244 q 513 415 500 356 q 525 540 525 474 q 509 640 525 590 q 466 732 493 690 q 403 799 439 774 q 331 824 368 824 q 256 799 286 824 q 210 740 225 775 q 194 669 194 704 q 215 588 194 628 q 268 522 235 547 q 338 496 301 496 q 401 508 381 496 q 449 532 422 519 q 458 528 454 535 q 458 517 461 521 q 438 490 451 503 q 413 468 424 476 q 382 450 403 461 q 336 431 361 439 q 285 422 311 422 q 192 445 238 422 q 119 508 147 468 q 90 597 90 547 q 111 693 90 644 q 170 783 132 742 q 261 849 208 824 q 376 874 314 874 q 474 847 426 874 q 560 774 522 819 q 621 672 599 729 q 643 556 643 615 q 619 397 643 469 q 551 257 596 324 q 443 121 507 190 q 360 49 406 79 q 267 -3 314 18 q 174 -33 219 -24 q 93 -43 129 -43 z "},"A":{"ha":961,"x_min":-3,"x_max":968,"o":"m 38 -7 q 8 -2 19 -7 q -3 11 -3 3 q 9 28 -3 21 q 43 43 21 36 q 110 76 79 54 q 163 150 140 99 q 234 317 201 239 q 296 469 267 394 q 356 626 325 544 q 422 803 388 707 q 435 842 429 822 q 442 883 440 861 q 467 892 454 888 q 492 904 479 896 q 509 929 504 913 q 518 951 514 946 q 522 953 519 953 q 525 950 524 953 q 530 936 528 944 q 535 919 532 928 q 604 704 568 814 q 674 492 640 594 q 737 309 708 390 q 782 178 765 228 q 824 94 801 122 q 870 56 846 67 q 922 39 894 44 q 957 26 946 35 q 968 7 968 17 q 957 -4 968 -1 q 928 -7 946 -7 q 875 -5 908 -7 q 804 -1 842 -3 q 735 1 767 1 q 681 1 708 1 q 629 1 653 1 q 589 0 606 0 q 560 4 571 0 q 549 17 549 8 q 563 33 549 26 q 594 43 576 40 q 660 67 640 50 q 679 106 679 83 q 670 166 679 126 q 649 251 661 206 q 625 331 636 296 q 615 344 622 342 q 588 346 607 346 l 325 346 q 313 341 319 346 q 301 321 307 336 q 288 277 297 307 q 268 214 278 247 q 251 154 258 181 q 244 121 244 128 q 268 70 244 90 q 325 42 292 50 q 371 14 371 29 q 360 2 371 6 q 331 -1 349 -1 q 278 0 313 -1 q 204 1 243 1 q 115 -3 158 1 q 38 -7 72 -7 m 363 392 l 578 392 q 597 399 597 392 q 597 405 597 401 q 594 413 596 408 l 486 751 q 474 776 478 776 q 463 753 471 776 l 336 413 q 333 401 333 404 q 341 393 333 394 q 363 392 349 392 z "},"Á":{"ha":961,"x_min":-3,"x_max":968,"o":"m 38 -7 q 8 -2 19 -7 q -3 11 -3 3 q 9 28 -3 21 q 43 43 21 36 q 110 76 79 54 q 163 150 140 99 q 234 317 201 239 q 296 469 267 394 q 356 626 325 544 q 422 803 388 707 q 435 842 429 822 q 442 883 440 861 q 467 892 454 888 q 492 904 479 896 q 509 929 504 913 q 518 951 514 946 q 522 953 519 953 q 525 950 524 953 q 530 936 528 944 q 535 919 532 928 q 604 704 568 814 q 674 492 640 594 q 737 309 708 390 q 782 178 765 228 q 824 94 801 122 q 870 56 846 67 q 922 39 894 44 q 957 26 946 35 q 968 7 968 17 q 957 -4 968 -1 q 928 -7 946 -7 q 875 -5 908 -7 q 804 -1 842 -3 q 735 1 767 1 q 681 1 708 1 q 629 1 653 1 q 589 0 606 0 q 560 4 571 0 q 549 17 549 8 q 563 33 549 26 q 594 43 576 40 q 660 67 640 50 q 679 106 679 83 q 670 166 679 126 q 649 251 661 206 q 625 331 636 296 q 615 344 622 342 q 588 346 607 346 l 325 346 q 313 341 319 346 q 301 321 307 336 q 288 277 297 307 q 268 214 278 247 q 251 154 258 181 q 244 121 244 128 q 268 70 244 90 q 325 42 292 50 q 371 14 371 29 q 360 2 371 6 q 331 -1 349 -1 q 278 0 313 -1 q 204 1 243 1 q 115 -3 158 1 q 38 -7 72 -7 m 363 392 l 578 392 q 597 399 597 392 q 597 405 597 401 q 594 413 596 408 l 486 751 q 474 776 478 776 q 463 753 471 776 l 336 413 q 333 401 333 404 q 341 393 333 394 q 363 392 349 392 m 458 951 q 450 960 450 951 q 457 981 450 969 q 509 1064 482 1022 q 564 1146 536 1106 q 601 1164 576 1164 q 631 1160 611 1164 q 666 1149 650 1156 q 682 1132 682 1142 q 664 1106 682 1122 q 574 1033 624 1069 q 483 964 524 996 q 467 954 474 957 q 458 951 461 951 z "},"Ă":{"ha":961,"x_min":-3,"x_max":968,"o":"m 38 -7 q 8 -2 19 -7 q -3 11 -3 3 q 9 28 -3 21 q 43 43 21 36 q 110 76 79 54 q 163 150 140 99 q 234 317 201 239 q 296 469 267 394 q 356 626 325 544 q 422 803 388 707 q 435 842 429 822 q 442 883 440 861 q 467 892 454 888 q 492 904 479 896 q 509 929 504 913 q 518 951 514 946 q 522 953 519 953 q 525 950 524 953 q 530 936 528 944 q 535 919 532 928 q 604 704 568 814 q 674 492 640 594 q 737 309 708 390 q 782 178 765 228 q 824 94 801 122 q 870 56 846 67 q 922 39 894 44 q 957 26 946 35 q 968 7 968 17 q 957 -4 968 -1 q 928 -7 946 -7 q 875 -5 908 -7 q 804 -1 842 -3 q 735 1 767 1 q 681 1 708 1 q 629 1 653 1 q 589 0 606 0 q 560 4 571 0 q 549 17 549 8 q 563 33 549 26 q 594 43 576 40 q 660 67 640 50 q 679 106 679 83 q 670 166 679 126 q 649 251 661 206 q 625 331 636 296 q 615 344 622 342 q 588 346 607 346 l 325 346 q 313 341 319 346 q 301 321 307 336 q 288 277 297 307 q 268 214 278 247 q 251 154 258 181 q 244 121 244 128 q 268 70 244 90 q 325 42 292 50 q 371 14 371 29 q 360 2 371 6 q 331 -1 349 -1 q 278 0 313 -1 q 204 1 243 1 q 115 -3 158 1 q 38 -7 72 -7 m 363 392 l 578 392 q 597 399 597 392 q 597 405 597 401 q 594 413 596 408 l 486 751 q 474 776 478 776 q 463 753 471 776 l 336 413 q 333 401 333 404 q 341 393 333 394 q 363 392 349 392 m 504 961 q 403 985 446 961 q 337 1044 360 1010 q 314 1106 314 1078 q 318 1129 314 1119 q 328 1139 322 1139 q 347 1128 339 1139 q 361 1110 356 1118 q 424 1060 389 1076 q 504 1044 460 1044 q 584 1060 549 1044 q 647 1110 619 1076 q 663 1128 654 1118 q 681 1139 671 1139 q 693 1129 692 1139 q 694 1106 694 1119 q 672 1044 694 1078 q 606 985 649 1010 q 504 961 564 961 z "},"Â":{"ha":961,"x_min":-3,"x_max":968,"o":"m 38 -7 q 8 -2 19 -7 q -3 11 -3 3 q 9 28 -3 21 q 43 43 21 36 q 110 76 79 54 q 163 150 140 99 q 234 317 201 239 q 296 469 267 394 q 356 626 325 544 q 422 803 388 707 q 435 842 429 822 q 442 883 440 861 q 467 892 454 888 q 492 904 479 896 q 509 929 504 913 q 518 951 514 946 q 522 953 519 953 q 525 950 524 953 q 530 936 528 944 q 535 919 532 928 q 604 704 568 814 q 674 492 640 594 q 737 309 708 390 q 782 178 765 228 q 824 94 801 122 q 870 56 846 67 q 922 39 894 44 q 957 26 946 35 q 968 7 968 17 q 957 -4 968 -1 q 928 -7 946 -7 q 875 -5 908 -7 q 804 -1 842 -3 q 735 1 767 1 q 681 1 708 1 q 629 1 653 1 q 589 0 606 0 q 560 4 571 0 q 549 17 549 8 q 563 33 549 26 q 594 43 576 40 q 660 67 640 50 q 679 106 679 83 q 670 166 679 126 q 649 251 661 206 q 625 331 636 296 q 615 344 622 342 q 588 346 607 346 l 325 346 q 313 341 319 346 q 301 321 307 336 q 288 277 297 307 q 268 214 278 247 q 251 154 258 181 q 244 121 244 128 q 268 70 244 90 q 325 42 292 50 q 371 14 371 29 q 360 2 371 6 q 331 -1 349 -1 q 278 0 313 -1 q 204 1 243 1 q 115 -3 158 1 q 38 -7 72 -7 m 363 392 l 578 392 q 597 399 597 392 q 597 405 597 401 q 594 413 596 408 l 486 751 q 474 776 478 776 q 463 753 471 776 l 336 413 q 333 401 333 404 q 341 393 333 394 q 363 392 349 392 m 322 967 q 301 981 301 967 q 311 997 301 989 l 447 1113 q 478 1136 467 1129 q 504 1143 489 1143 q 531 1136 519 1143 q 561 1113 542 1129 l 697 997 q 706 981 706 990 q 686 965 706 965 q 658 974 679 965 q 609 997 636 983 q 557 1022 582 1010 q 518 1043 532 1035 q 504 1049 508 1049 q 490 1043 500 1049 q 451 1022 476 1035 q 399 997 426 1010 q 351 976 372 985 q 322 967 329 967 z "},"Ä":{"ha":961,"x_min":-3,"x_max":968,"o":"m 38 -7 q 8 -2 19 -7 q -3 11 -3 3 q 9 28 -3 21 q 43 43 21 36 q 110 76 79 54 q 163 150 140 99 q 234 317 201 239 q 296 469 267 394 q 356 626 325 544 q 422 803 388 707 q 435 842 429 822 q 442 883 440 861 q 467 892 454 888 q 492 904 479 896 q 509 929 504 913 q 518 951 514 946 q 522 953 519 953 q 525 950 524 953 q 530 936 528 944 q 535 919 532 928 q 604 704 568 814 q 674 492 640 594 q 737 309 708 390 q 782 178 765 228 q 824 94 801 122 q 870 56 846 67 q 922 39 894 44 q 957 26 946 35 q 968 7 968 17 q 957 -4 968 -1 q 928 -7 946 -7 q 875 -5 908 -7 q 804 -1 842 -3 q 735 1 767 1 q 681 1 708 1 q 629 1 653 1 q 589 0 606 0 q 560 4 571 0 q 549 17 549 8 q 563 33 549 26 q 594 43 576 40 q 660 67 640 50 q 679 106 679 83 q 670 166 679 126 q 649 251 661 206 q 625 331 636 296 q 615 344 622 342 q 588 346 607 346 l 325 346 q 313 341 319 346 q 301 321 307 336 q 288 277 297 307 q 268 214 278 247 q 251 154 258 181 q 244 121 244 128 q 268 70 244 90 q 325 42 292 50 q 371 14 371 29 q 360 2 371 6 q 331 -1 349 -1 q 278 0 313 -1 q 204 1 243 1 q 115 -3 158 1 q 38 -7 72 -7 m 363 392 l 578 392 q 597 399 597 392 q 597 405 597 401 q 594 413 596 408 l 486 751 q 474 776 478 776 q 463 753 471 776 l 336 413 q 333 401 333 404 q 341 393 333 394 q 363 392 349 392 m 640 965 q 591 985 611 965 q 571 1035 571 1006 q 591 1084 571 1064 q 640 1104 611 1104 q 690 1084 669 1104 q 710 1035 710 1064 q 690 985 710 1006 q 640 965 669 965 m 369 965 q 320 985 340 965 q 300 1035 300 1006 q 320 1084 300 1064 q 369 1104 340 1104 q 419 1084 399 1104 q 439 1035 439 1064 q 419 985 439 1006 q 369 965 399 965 z "},"À":{"ha":961,"x_min":-3,"x_max":968,"o":"m 549 951 q 540 954 546 951 q 524 964 533 957 q 433 1033 483 996 q 343 1106 383 1069 q 325 1132 325 1122 q 341 1149 325 1142 q 376 1160 357 1156 q 406 1164 396 1164 q 443 1146 431 1164 q 498 1064 471 1106 q 550 981 525 1022 q 557 960 557 969 q 549 951 557 951 m 38 -7 q 8 -2 19 -7 q -3 11 -3 3 q 9 28 -3 21 q 43 43 21 36 q 110 76 79 54 q 163 150 140 99 q 234 317 201 239 q 296 469 267 394 q 356 626 325 544 q 422 803 388 707 q 435 842 429 822 q 442 883 440 861 q 467 892 454 888 q 492 904 479 896 q 509 929 504 913 q 518 951 514 946 q 522 953 519 953 q 525 950 524 953 q 530 936 528 944 q 535 919 532 928 q 604 704 568 814 q 674 492 640 594 q 737 309 708 390 q 782 178 765 228 q 824 94 801 122 q 870 56 846 67 q 922 39 894 44 q 957 26 946 35 q 968 7 968 17 q 957 -4 968 -1 q 928 -7 946 -7 q 875 -5 908 -7 q 804 -1 842 -3 q 735 1 767 1 q 681 1 708 1 q 629 1 653 1 q 589 0 606 0 q 560 4 571 0 q 549 17 549 8 q 563 33 549 26 q 594 43 576 40 q 660 67 640 50 q 679 106 679 83 q 670 166 679 126 q 649 251 661 206 q 625 331 636 296 q 615 344 622 342 q 588 346 607 346 l 325 346 q 313 341 319 346 q 301 321 307 336 q 288 277 297 307 q 268 214 278 247 q 251 154 258 181 q 244 121 244 128 q 268 70 244 90 q 325 42 292 50 q 371 14 371 29 q 360 2 371 6 q 331 -1 349 -1 q 278 0 313 -1 q 204 1 243 1 q 115 -3 158 1 q 38 -7 72 -7 m 363 392 l 578 392 q 597 399 597 392 q 597 405 597 401 q 594 413 596 408 l 486 751 q 474 776 478 776 q 463 753 471 776 l 336 413 q 333 401 333 404 q 341 393 333 394 q 363 392 349 392 z "},"Ā":{"ha":961,"x_min":-3,"x_max":968,"o":"m 38 -7 q 8 -2 19 -7 q -3 11 -3 3 q 9 28 -3 21 q 43 43 21 36 q 110 76 79 54 q 163 150 140 99 q 234 317 201 239 q 296 469 267 394 q 356 626 325 544 q 422 803 388 707 q 435 842 429 822 q 442 883 440 861 q 467 892 454 888 q 492 904 479 896 q 509 929 504 913 q 518 951 514 946 q 522 953 519 953 q 525 950 524 953 q 530 936 528 944 q 535 919 532 928 q 604 704 568 814 q 674 492 640 594 q 737 309 708 390 q 782 178 765 228 q 824 94 801 122 q 870 56 846 67 q 922 39 894 44 q 957 26 946 35 q 968 7 968 17 q 957 -4 968 -1 q 928 -7 946 -7 q 875 -5 908 -7 q 804 -1 842 -3 q 735 1 767 1 q 681 1 708 1 q 629 1 653 1 q 589 0 606 0 q 560 4 571 0 q 549 17 549 8 q 563 33 549 26 q 594 43 576 40 q 660 67 640 50 q 679 106 679 83 q 670 166 679 126 q 649 251 661 206 q 625 331 636 296 q 615 344 622 342 q 588 346 607 346 l 325 346 q 313 341 319 346 q 301 321 307 336 q 288 277 297 307 q 268 214 278 247 q 251 154 258 181 q 244 121 244 128 q 268 70 244 90 q 325 42 292 50 q 371 14 371 29 q 360 2 371 6 q 331 -1 349 -1 q 278 0 313 -1 q 204 1 243 1 q 115 -3 158 1 q 38 -7 72 -7 m 363 392 l 578 392 q 597 399 597 392 q 597 405 597 401 q 594 413 596 408 l 486 751 q 474 776 478 776 q 463 753 471 776 l 336 413 q 333 401 333 404 q 341 393 333 394 q 363 392 349 392 m 321 1004 q 308 1010 314 1004 q 301 1021 301 1015 q 304 1042 301 1028 q 315 1067 307 1056 q 335 1079 322 1079 l 700 1079 q 713 1074 707 1079 q 718 1063 718 1069 q 705 1023 718 1042 q 675 1004 692 1004 l 321 1004 z "},"Ą":{"ha":961,"x_min":-3,"x_max":968,"o":"m 38 -7 q 8 -2 19 -7 q -3 11 -3 3 q 9 28 -3 21 q 43 43 21 36 q 110 76 79 54 q 163 150 140 99 q 234 317 201 239 q 296 469 267 394 q 356 626 325 544 q 422 803 388 707 q 435 842 429 822 q 442 883 440 861 q 467 892 454 888 q 492 904 479 896 q 509 929 504 913 q 518 951 514 946 q 522 953 519 953 q 525 950 524 953 q 530 936 528 944 q 535 919 532 928 q 604 704 568 814 q 674 492 640 594 q 737 309 708 390 q 782 178 765 228 q 824 94 801 122 q 870 56 846 67 q 922 39 894 44 q 957 26 946 35 q 968 7 968 17 q 957 -4 968 -1 q 928 -7 946 -7 q 875 -5 908 -7 q 804 -1 842 -3 q 735 1 767 1 q 681 1 708 1 q 629 1 653 1 q 589 0 606 0 q 560 4 571 0 q 549 17 549 8 q 563 33 549 26 q 594 43 576 40 q 660 67 640 50 q 679 106 679 83 q 670 166 679 126 q 649 251 661 206 q 625 331 636 296 q 615 344 622 342 q 588 346 607 346 l 325 346 q 313 341 319 346 q 301 321 307 336 q 288 277 297 307 q 268 214 278 247 q 251 154 258 181 q 244 121 244 128 q 268 70 244 90 q 325 42 292 50 q 371 14 371 29 q 360 2 371 6 q 331 -1 349 -1 q 278 0 313 -1 q 204 1 243 1 q 115 -3 158 1 q 38 -7 72 -7 m 363 392 l 578 392 q 597 399 597 392 q 597 405 597 401 q 594 413 596 408 l 486 751 q 474 776 478 776 q 463 753 471 776 l 336 413 q 333 401 333 404 q 341 393 333 394 q 363 392 349 392 m 708 -399 q 597 -353 643 -399 q 550 -242 550 -307 q 574 -160 550 -200 q 633 -87 599 -121 q 703 -28 668 -54 q 763 11 739 -3 q 788 25 788 25 l 824 25 q 800 7 824 25 q 746 -43 776 -11 q 692 -119 715 -75 q 668 -215 668 -162 q 696 -276 668 -251 q 760 -300 724 -300 q 808 -287 785 -300 q 850 -261 832 -275 q 874 -244 868 -247 q 885 -243 879 -242 q 890 -253 890 -244 q 873 -301 890 -275 q 828 -349 856 -326 q 768 -385 800 -371 q 708 -399 736 -399 z "},"Å":{"ha":961,"x_min":-3,"x_max":968,"o":"m 38 -7 q 8 -2 19 -7 q -3 11 -3 3 q 9 28 -3 21 q 43 43 21 36 q 110 76 79 54 q 163 150 140 99 q 234 317 201 239 q 296 469 267 394 q 356 626 325 544 q 422 803 388 707 q 435 842 429 822 q 442 883 440 861 q 467 892 454 888 q 492 904 479 896 q 509 929 504 913 q 518 951 514 946 q 522 953 519 953 q 525 950 524 953 q 530 936 528 944 q 535 919 532 928 q 604 704 568 814 q 674 492 640 594 q 737 309 708 390 q 782 178 765 228 q 824 94 801 122 q 870 56 846 67 q 922 39 894 44 q 957 26 946 35 q 968 7 968 17 q 957 -4 968 -1 q 928 -7 946 -7 q 875 -5 908 -7 q 804 -1 842 -3 q 735 1 767 1 q 681 1 708 1 q 629 1 653 1 q 589 0 606 0 q 560 4 571 0 q 549 17 549 8 q 563 33 549 26 q 594 43 576 40 q 660 67 640 50 q 679 106 679 83 q 670 166 679 126 q 649 251 661 206 q 625 331 636 296 q 615 344 622 342 q 588 346 607 346 l 325 346 q 313 341 319 346 q 301 321 307 336 q 288 277 297 307 q 268 214 278 247 q 251 154 258 181 q 244 121 244 128 q 268 70 244 90 q 325 42 292 50 q 371 14 371 29 q 360 2 371 6 q 331 -1 349 -1 q 278 0 313 -1 q 204 1 243 1 q 115 -3 158 1 q 38 -7 72 -7 m 363 392 l 578 392 q 597 399 597 392 q 597 405 597 401 q 594 413 596 408 l 486 751 q 474 776 478 776 q 463 753 471 776 l 336 413 q 333 401 333 404 q 341 393 333 394 q 363 392 349 392 m 433 1072 q 453 1023 433 1043 q 503 1003 474 1003 q 544 1024 529 1003 q 558 1072 558 1046 q 539 1120 558 1100 q 492 1140 519 1140 q 449 1120 465 1140 q 433 1072 433 1100 m 501 1172 q 581 1148 546 1172 q 617 1079 617 1124 q 599 1023 617 1047 q 552 985 581 999 q 490 972 524 972 q 410 998 446 972 q 375 1068 375 1024 q 393 1124 375 1100 q 440 1160 411 1147 q 501 1172 469 1172 z "},"Ǻ":{"ha":961,"x_min":-3,"x_max":968,"o":"m 38 -7 q 8 -2 19 -7 q -3 11 -3 3 q 9 28 -3 21 q 43 43 21 36 q 110 76 79 54 q 163 150 140 99 q 234 317 201 239 q 296 469 267 394 q 356 626 325 544 q 422 803 388 707 q 435 842 429 822 q 442 883 440 861 q 467 892 454 888 q 492 904 479 896 q 509 929 504 913 q 518 951 514 946 q 522 953 519 953 q 525 950 524 953 q 530 936 528 944 q 535 919 532 928 q 604 704 568 814 q 674 492 640 594 q 737 309 708 390 q 782 178 765 228 q 824 94 801 122 q 870 56 846 67 q 922 39 894 44 q 957 26 946 35 q 968 7 968 17 q 957 -4 968 -1 q 928 -7 946 -7 q 875 -5 908 -7 q 804 -1 842 -3 q 735 1 767 1 q 681 1 708 1 q 629 1 653 1 q 589 0 606 0 q 560 4 571 0 q 549 17 549 8 q 563 33 549 26 q 594 43 576 40 q 660 67 640 50 q 679 106 679 83 q 670 166 679 126 q 649 251 661 206 q 625 331 636 296 q 615 344 622 342 q 588 346 607 346 l 325 346 q 313 341 319 346 q 301 321 307 336 q 288 277 297 307 q 268 214 278 247 q 251 154 258 181 q 244 121 244 128 q 268 70 244 90 q 325 42 292 50 q 371 14 371 29 q 360 2 371 6 q 331 -1 349 -1 q 278 0 313 -1 q 204 1 243 1 q 115 -3 158 1 q 38 -7 72 -7 m 363 392 l 578 392 q 597 399 597 392 q 597 405 597 401 q 594 413 596 408 l 486 751 q 474 776 478 776 q 463 753 471 776 l 336 413 q 333 401 333 404 q 341 393 333 394 q 363 392 349 392 m 433 1072 q 453 1023 433 1043 q 503 1003 474 1003 q 544 1024 529 1003 q 558 1072 558 1046 q 539 1120 558 1100 q 492 1140 519 1140 q 449 1120 465 1140 q 433 1072 433 1100 m 501 1172 q 581 1148 546 1172 q 617 1079 617 1124 q 599 1023 617 1047 q 552 985 581 999 q 490 972 524 972 q 410 998 446 972 q 375 1068 375 1024 q 393 1124 375 1100 q 440 1160 411 1147 q 501 1172 469 1172 m 396 1193 q 383 1196 389 1193 q 376 1204 376 1199 q 377 1210 376 1207 q 382 1218 378 1214 q 419 1247 392 1228 q 482 1288 447 1267 q 548 1328 517 1310 q 597 1353 579 1346 q 612 1358 604 1356 q 626 1361 619 1361 q 656 1347 643 1361 q 675 1317 668 1333 q 682 1292 682 1300 q 676 1279 682 1283 q 634 1263 664 1274 q 566 1239 604 1251 q 492 1216 528 1226 q 433 1200 457 1206 q 415 1196 425 1199 q 396 1193 406 1193 z "},"Ã":{"ha":961,"x_min":-3,"x_max":968,"o":"m 38 -7 q 8 -2 19 -7 q -3 11 -3 3 q 9 28 -3 21 q 43 43 21 36 q 110 76 79 54 q 163 150 140 99 q 234 317 201 239 q 296 469 267 394 q 356 626 325 544 q 422 803 388 707 q 435 842 429 822 q 442 883 440 861 q 467 892 454 888 q 492 904 479 896 q 509 929 504 913 q 518 951 514 946 q 522 953 519 953 q 525 950 524 953 q 530 936 528 944 q 535 919 532 928 q 604 704 568 814 q 674 492 640 594 q 737 309 708 390 q 782 178 765 228 q 824 94 801 122 q 870 56 846 67 q 922 39 894 44 q 957 26 946 35 q 968 7 968 17 q 957 -4 968 -1 q 928 -7 946 -7 q 875 -5 908 -7 q 804 -1 842 -3 q 735 1 767 1 q 681 1 708 1 q 629 1 653 1 q 589 0 606 0 q 560 4 571 0 q 549 17 549 8 q 563 33 549 26 q 594 43 576 40 q 660 67 640 50 q 679 106 679 83 q 670 166 679 126 q 649 251 661 206 q 625 331 636 296 q 615 344 622 342 q 588 346 607 346 l 325 346 q 313 341 319 346 q 301 321 307 336 q 288 277 297 307 q 268 214 278 247 q 251 154 258 181 q 244 121 244 128 q 268 70 244 90 q 325 42 292 50 q 371 14 371 29 q 360 2 371 6 q 331 -1 349 -1 q 278 0 313 -1 q 204 1 243 1 q 115 -3 158 1 q 38 -7 72 -7 m 363 392 l 578 392 q 597 399 597 392 q 597 405 597 401 q 594 413 596 408 l 486 751 q 474 776 478 776 q 463 753 471 776 l 336 413 q 333 401 333 404 q 341 393 333 394 q 363 392 349 392 m 349 961 q 334 969 342 961 q 326 983 326 976 q 339 1007 326 989 q 370 1047 351 1025 q 408 1084 389 1068 q 440 1100 428 1100 q 490 1099 464 1100 q 535 1096 515 1099 q 582 1092 558 1094 q 624 1090 606 1090 q 653 1099 639 1090 q 678 1117 668 1107 q 694 1135 688 1126 q 706 1144 701 1144 q 724 1138 717 1144 q 732 1121 732 1132 q 726 1110 732 1117 q 713 1096 719 1103 q 678 1057 696 1079 q 647 1018 661 1035 q 625 1003 639 1008 q 607 999 611 999 q 576 1000 599 999 q 524 1004 553 1001 q 468 1008 494 1007 q 425 1010 442 1010 q 401 1005 415 1010 q 379 993 388 1000 q 359 972 367 983 q 349 961 351 961 z "},"Æ":{"ha":1211,"x_min":-7,"x_max":1176,"o":"m 33 -7 q 4 -3 15 -7 q -7 8 -7 0 q 5 25 -7 18 q 39 39 17 32 q 115 88 75 50 q 183 175 154 125 l 563 825 q 560 840 568 833 q 539 849 553 847 l 417 869 q 406 877 410 872 q 403 888 403 882 q 417 904 403 904 q 525 902 461 904 q 660 900 589 900 q 781 901 717 900 q 905 903 844 903 q 1014 906 965 904 q 1089 907 1063 907 q 1104 904 1096 907 q 1114 894 1113 901 q 1125 822 1121 856 q 1131 751 1129 788 q 1124 742 1131 746 q 1111 739 1118 739 q 1101 742 1104 739 q 1096 753 1099 746 q 1081 794 1089 776 q 1064 821 1074 811 q 1021 851 1044 843 q 971 858 997 858 l 789 858 q 759 850 778 858 q 740 822 740 842 l 740 485 q 747 464 740 474 q 764 454 754 454 q 840 455 808 454 q 897 457 872 456 q 931 465 917 458 q 958 482 946 471 q 985 519 978 499 q 1007 539 993 539 q 1019 533 1013 539 q 1025 517 1026 526 q 1022 474 1024 493 q 1021 435 1021 454 q 1022 388 1021 411 q 1025 333 1024 364 q 1023 317 1025 324 q 1013 310 1021 310 q 991 322 999 310 q 981 342 983 335 q 951 388 971 374 q 915 403 932 401 q 842 406 872 406 q 772 406 813 406 q 750 398 760 406 q 740 374 740 390 l 740 154 q 762 82 740 115 q 831 49 783 49 l 975 49 q 1001 52 979 49 q 1048 61 1024 56 q 1081 74 1072 67 q 1115 116 1100 89 q 1139 161 1131 143 q 1147 173 1143 169 q 1158 175 1151 176 q 1176 160 1176 172 q 1169 85 1176 121 q 1153 17 1161 49 q 1148 1 1151 8 q 1133 -7 1144 -7 q 1018 -6 1074 -7 q 908 -3 963 -4 q 799 0 854 -1 q 683 1 743 1 q 631 -1 653 1 q 585 -5 608 -3 q 524 -7 561 -7 q 494 -3 506 -7 q 483 8 483 0 q 529 33 483 25 q 606 65 581 43 q 631 133 631 86 l 631 371 q 626 389 631 382 q 600 396 621 396 l 404 396 q 379 387 389 396 q 363 364 369 378 q 309 269 336 317 q 249 156 282 221 q 236 114 236 133 q 266 65 236 81 q 326 42 296 49 q 372 14 372 29 q 361 2 372 6 q 332 -1 350 -1 q 280 0 314 -1 q 208 1 246 1 q 115 -3 161 1 q 33 -7 68 -7 m 436 456 l 608 456 q 627 458 624 456 q 631 476 631 461 l 631 806 q 626 831 631 831 q 608 807 622 831 l 419 476 q 414 463 414 467 q 419 457 414 458 q 436 456 425 456 z "},"Ǽ":{"ha":1211,"x_min":-7,"x_max":1176,"o":"m 33 -7 q 4 -3 15 -7 q -7 8 -7 0 q 5 25 -7 18 q 39 39 17 32 q 115 88 75 50 q 183 175 154 125 l 563 825 q 560 840 568 833 q 539 849 553 847 l 417 869 q 406 877 410 872 q 403 888 403 882 q 417 904 403 904 q 525 902 461 904 q 660 900 589 900 q 781 901 717 900 q 905 903 844 903 q 1014 906 965 904 q 1089 907 1063 907 q 1104 904 1096 907 q 1114 894 1113 901 q 1125 822 1121 856 q 1131 751 1129 788 q 1124 742 1131 746 q 1111 739 1118 739 q 1101 742 1104 739 q 1096 753 1099 746 q 1081 794 1089 776 q 1064 821 1074 811 q 1021 851 1044 843 q 971 858 997 858 l 789 858 q 759 850 778 858 q 740 822 740 842 l 740 485 q 747 464 740 474 q 764 454 754 454 q 840 455 808 454 q 897 457 872 456 q 931 465 917 458 q 958 482 946 471 q 985 519 978 499 q 1007 539 993 539 q 1019 533 1013 539 q 1025 517 1026 526 q 1022 474 1024 493 q 1021 435 1021 454 q 1022 388 1021 411 q 1025 333 1024 364 q 1023 317 1025 324 q 1013 310 1021 310 q 991 322 999 310 q 981 342 983 335 q 951 388 971 374 q 915 403 932 401 q 842 406 872 406 q 772 406 813 406 q 750 398 760 406 q 740 374 740 390 l 740 154 q 762 82 740 115 q 831 49 783 49 l 975 49 q 1001 52 979 49 q 1048 61 1024 56 q 1081 74 1072 67 q 1115 116 1100 89 q 1139 161 1131 143 q 1147 173 1143 169 q 1158 175 1151 176 q 1176 160 1176 172 q 1169 85 1176 121 q 1153 17 1161 49 q 1148 1 1151 8 q 1133 -7 1144 -7 q 1018 -6 1074 -7 q 908 -3 963 -4 q 799 0 854 -1 q 683 1 743 1 q 631 -1 653 1 q 585 -5 608 -3 q 524 -7 561 -7 q 494 -3 506 -7 q 483 8 483 0 q 529 33 483 25 q 606 65 581 43 q 631 133 631 86 l 631 371 q 626 389 631 382 q 600 396 621 396 l 404 396 q 379 387 389 396 q 363 364 369 378 q 309 269 336 317 q 249 156 282 221 q 236 114 236 133 q 266 65 236 81 q 326 42 296 49 q 372 14 372 29 q 361 2 372 6 q 332 -1 350 -1 q 280 0 314 -1 q 208 1 246 1 q 115 -3 161 1 q 33 -7 68 -7 m 436 456 l 608 456 q 627 458 624 456 q 631 476 631 461 l 631 806 q 626 831 631 831 q 608 807 622 831 l 419 476 q 414 463 414 467 q 419 457 414 458 q 436 456 425 456 m 708 951 q 700 960 700 951 q 707 981 700 969 q 759 1064 732 1022 q 814 1146 786 1106 q 851 1164 826 1164 q 881 1160 861 1164 q 916 1149 900 1156 q 932 1132 932 1142 q 914 1106 932 1122 q 824 1033 874 1069 q 733 964 774 996 q 717 954 724 957 q 708 951 711 951 z "},"Ǣ":{"ha":1211,"x_min":-7,"x_max":1176,"o":"m 33 -7 q 4 -3 15 -7 q -7 8 -7 0 q 5 25 -7 18 q 39 39 17 32 q 115 88 75 50 q 183 175 154 125 l 563 825 q 560 840 568 833 q 539 849 553 847 l 417 869 q 406 877 410 872 q 403 888 403 882 q 417 904 403 904 q 525 902 461 904 q 660 900 589 900 q 781 901 717 900 q 905 903 844 903 q 1014 906 965 904 q 1089 907 1063 907 q 1104 904 1096 907 q 1114 894 1113 901 q 1125 822 1121 856 q 1131 751 1129 788 q 1124 742 1131 746 q 1111 739 1118 739 q 1101 742 1104 739 q 1096 753 1099 746 q 1081 794 1089 776 q 1064 821 1074 811 q 1021 851 1044 843 q 971 858 997 858 l 789 858 q 759 850 778 858 q 740 822 740 842 l 740 485 q 747 464 740 474 q 764 454 754 454 q 840 455 808 454 q 897 457 872 456 q 931 465 917 458 q 958 482 946 471 q 985 519 978 499 q 1007 539 993 539 q 1019 533 1013 539 q 1025 517 1026 526 q 1022 474 1024 493 q 1021 435 1021 454 q 1022 388 1021 411 q 1025 333 1024 364 q 1023 317 1025 324 q 1013 310 1021 310 q 991 322 999 310 q 981 342 983 335 q 951 388 971 374 q 915 403 932 401 q 842 406 872 406 q 772 406 813 406 q 750 398 760 406 q 740 374 740 390 l 740 154 q 762 82 740 115 q 831 49 783 49 l 975 49 q 1001 52 979 49 q 1048 61 1024 56 q 1081 74 1072 67 q 1115 116 1100 89 q 1139 161 1131 143 q 1147 173 1143 169 q 1158 175 1151 176 q 1176 160 1176 172 q 1169 85 1176 121 q 1153 17 1161 49 q 1148 1 1151 8 q 1133 -7 1144 -7 q 1018 -6 1074 -7 q 908 -3 963 -4 q 799 0 854 -1 q 683 1 743 1 q 631 -1 653 1 q 585 -5 608 -3 q 524 -7 561 -7 q 494 -3 506 -7 q 483 8 483 0 q 529 33 483 25 q 606 65 581 43 q 631 133 631 86 l 631 371 q 626 389 631 382 q 600 396 621 396 l 404 396 q 379 387 389 396 q 363 364 369 378 q 309 269 336 317 q 249 156 282 221 q 236 114 236 133 q 266 65 236 81 q 326 42 296 49 q 372 14 372 29 q 361 2 372 6 q 332 -1 350 -1 q 280 0 314 -1 q 208 1 246 1 q 115 -3 161 1 q 33 -7 68 -7 m 436 456 l 608 456 q 627 458 624 456 q 631 476 631 461 l 631 806 q 626 831 631 831 q 608 807 622 831 l 419 476 q 414 463 414 467 q 419 457 414 458 q 436 456 425 456 m 571 1004 q 558 1010 564 1004 q 551 1021 551 1015 q 554 1042 551 1028 q 565 1067 557 1056 q 585 1079 572 1079 l 950 1079 q 963 1074 957 1079 q 968 1063 968 1069 q 955 1023 968 1042 q 925 1004 942 1004 l 571 1004 z "},"B":{"ha":815,"x_min":26,"x_max":760,"o":"m 67 -7 q 38 -3 49 -7 q 26 8 26 0 q 72 33 26 25 q 153 65 125 43 q 181 138 181 88 l 181 763 q 160 836 181 813 q 88 864 139 860 q 53 874 64 867 q 42 892 42 882 q 53 903 42 900 q 82 907 64 907 q 140 907 119 907 q 180 906 161 907 q 226 906 199 906 q 272 908 253 906 q 316 911 292 910 q 381 913 340 913 q 623 866 543 913 q 703 706 703 819 q 687 623 703 658 q 656 572 671 588 q 615 538 633 550 q 563 513 597 526 q 557 506 557 511 q 563 499 557 501 q 628 474 594 489 q 692 434 663 458 q 741 370 722 410 q 760 269 760 331 q 735 149 760 193 q 678 81 711 104 q 615 42 644 57 q 515 7 572 19 q 379 -6 458 -6 q 325 -3 361 -6 q 247 0 289 0 q 186 -1 211 0 q 134 -5 161 -3 q 67 -7 107 -7 m 399 51 q 513 79 460 51 q 597 155 565 107 q 629 263 629 203 q 611 352 629 317 q 569 410 593 388 q 526 442 546 432 q 469 465 508 453 q 368 476 431 476 q 306 458 324 476 q 289 426 289 440 l 289 150 q 317 72 289 92 q 399 51 346 51 m 353 515 q 434 524 390 515 q 521 556 478 532 q 560 596 536 564 q 583 688 583 628 q 568 770 583 728 q 510 842 553 813 q 381 871 467 871 q 306 856 324 871 q 289 808 289 840 l 289 567 q 313 523 289 531 q 353 515 336 515 z "},"C":{"ha":986,"x_min":64,"x_max":910,"o":"m 565 -21 q 378 13 468 -21 q 217 108 288 46 q 105 256 146 169 q 64 449 64 343 q 107 636 64 550 q 225 786 150 722 q 397 885 300 850 q 600 921 493 921 q 692 917 654 921 q 765 905 729 913 q 847 885 800 897 q 877 868 868 879 q 888 838 886 857 q 894 769 890 806 q 900 678 899 732 q 891 662 901 668 q 869 658 881 656 q 853 676 857 661 q 821 767 839 729 q 767 831 803 806 q 683 866 732 854 q 576 878 633 878 q 427 845 496 878 q 309 756 358 813 q 232 629 260 700 q 204 482 204 558 q 231 315 204 397 q 309 167 258 233 q 430 62 360 101 q 586 22 500 22 q 751 68 686 22 q 863 196 817 114 q 891 214 872 214 q 910 192 910 214 q 904 156 910 181 q 890 105 899 132 q 872 57 881 78 q 856 32 863 38 q 828 19 850 26 q 705 -11 776 -1 q 565 -21 633 -21 z "},"Ć":{"ha":986,"x_min":64,"x_max":910,"o":"m 565 -21 q 378 13 468 -21 q 217 108 288 46 q 105 256 146 169 q 64 449 64 343 q 107 636 64 550 q 225 786 150 722 q 397 885 300 850 q 600 921 493 921 q 692 917 654 921 q 765 905 729 913 q 847 885 800 897 q 877 868 868 879 q 888 838 886 857 q 894 769 890 806 q 900 678 899 732 q 891 662 901 668 q 869 658 881 656 q 853 676 857 661 q 821 767 839 729 q 767 831 803 806 q 683 866 732 854 q 576 878 633 878 q 427 845 496 878 q 309 756 358 813 q 232 629 260 700 q 204 482 204 558 q 231 315 204 397 q 309 167 258 233 q 430 62 360 101 q 586 22 500 22 q 751 68 686 22 q 863 196 817 114 q 891 214 872 214 q 910 192 910 214 q 904 156 910 181 q 890 105 899 132 q 872 57 881 78 q 856 32 863 38 q 828 19 850 26 q 705 -11 776 -1 q 565 -21 633 -21 m 511 951 q 503 960 503 951 q 510 981 503 969 q 562 1064 535 1022 q 617 1146 589 1106 q 654 1164 629 1164 q 683 1160 664 1164 q 719 1149 703 1156 q 735 1132 735 1142 q 717 1106 735 1122 q 626 1033 676 1069 q 536 964 576 996 q 520 954 526 957 q 511 951 514 951 z "},"Č":{"ha":986,"x_min":64,"x_max":910,"o":"m 565 -21 q 378 13 468 -21 q 217 108 288 46 q 105 256 146 169 q 64 449 64 343 q 107 636 64 550 q 225 786 150 722 q 397 885 300 850 q 600 921 493 921 q 692 917 654 921 q 765 905 729 913 q 847 885 800 897 q 877 868 868 879 q 888 838 886 857 q 894 769 890 806 q 900 678 899 732 q 891 662 901 668 q 869 658 881 656 q 853 676 857 661 q 821 767 839 729 q 767 831 803 806 q 683 866 732 854 q 576 878 633 878 q 427 845 496 878 q 309 756 358 813 q 232 629 260 700 q 204 482 204 558 q 231 315 204 397 q 309 167 258 233 q 430 62 360 101 q 586 22 500 22 q 751 68 686 22 q 863 196 817 114 q 891 214 872 214 q 910 192 910 214 q 904 156 910 181 q 890 105 899 132 q 872 57 881 78 q 856 32 863 38 q 828 19 850 26 q 705 -11 776 -1 q 565 -21 633 -21 m 376 1142 q 405 1133 383 1142 q 453 1111 426 1124 q 506 1086 481 1099 q 544 1065 531 1074 q 558 1060 554 1060 q 572 1065 563 1060 q 611 1086 586 1074 q 663 1112 636 1099 q 712 1134 690 1125 q 740 1143 733 1143 q 760 1128 760 1143 q 751 1111 760 1118 l 615 1003 q 584 979 594 986 q 558 972 574 972 q 533 979 543 972 q 501 1003 522 986 l 365 1111 q 356 1128 356 1119 q 376 1142 356 1142 z "},"Ç":{"ha":986,"x_min":64,"x_max":910,"o":"m 565 -21 q 378 13 468 -21 q 217 108 288 46 q 105 256 146 169 q 64 449 64 343 q 107 636 64 550 q 225 786 150 722 q 397 885 300 850 q 600 921 493 921 q 692 917 654 921 q 765 905 729 913 q 847 885 800 897 q 877 868 868 879 q 888 838 886 857 q 894 769 890 806 q 900 678 899 732 q 891 662 901 668 q 869 658 881 656 q 853 676 857 661 q 821 767 839 729 q 767 831 803 806 q 683 866 732 854 q 576 878 633 878 q 427 845 496 878 q 309 756 358 813 q 232 629 260 700 q 204 482 204 558 q 231 315 204 397 q 309 167 258 233 q 430 62 360 101 q 586 22 500 22 q 751 68 686 22 q 863 196 817 114 q 891 214 872 214 q 910 192 910 214 q 904 156 910 181 q 890 105 899 132 q 872 57 881 78 q 856 32 863 38 q 828 19 850 26 q 705 -11 776 -1 q 565 -21 633 -21 m 465 -382 q 419 -370 435 -382 q 403 -337 403 -358 q 410 -302 403 -314 q 425 -290 417 -290 q 447 -299 433 -290 q 513 -308 461 -308 q 557 -292 543 -308 q 571 -254 571 -276 q 552 -197 571 -214 q 506 -179 533 -179 q 486 -181 493 -179 q 469 -183 479 -183 q 442 -174 451 -183 q 433 -160 433 -165 q 436 -148 433 -153 q 442 -139 439 -143 l 553 11 l 596 11 l 544 -67 q 553 -97 529 -87 q 613 -140 582 -108 q 644 -221 644 -172 q 613 -304 644 -268 q 539 -361 581 -340 q 465 -382 497 -382 z "},"Ĉ":{"ha":986,"x_min":64,"x_max":910,"o":"m 565 -21 q 378 13 468 -21 q 217 108 288 46 q 105 256 146 169 q 64 449 64 343 q 107 636 64 550 q 225 786 150 722 q 397 885 300 850 q 600 921 493 921 q 692 917 654 921 q 765 905 729 913 q 847 885 800 897 q 877 868 868 879 q 888 838 886 857 q 894 769 890 806 q 900 678 899 732 q 891 662 901 668 q 869 658 881 656 q 853 676 857 661 q 821 767 839 729 q 767 831 803 806 q 683 866 732 854 q 576 878 633 878 q 427 845 496 878 q 309 756 358 813 q 232 629 260 700 q 204 482 204 558 q 231 315 204 397 q 309 167 258 233 q 430 62 360 101 q 586 22 500 22 q 751 68 686 22 q 863 196 817 114 q 891 214 872 214 q 910 192 910 214 q 904 156 910 181 q 890 105 899 132 q 872 57 881 78 q 856 32 863 38 q 828 19 850 26 q 705 -11 776 -1 q 565 -21 633 -21 m 375 967 q 354 981 354 967 q 364 997 354 989 l 500 1113 q 531 1136 519 1129 q 557 1143 542 1143 q 583 1136 572 1143 q 614 1113 594 1129 l 750 997 q 758 981 758 990 q 739 965 758 965 q 710 974 732 965 q 662 997 689 983 q 610 1022 635 1010 q 571 1043 585 1035 q 557 1049 561 1049 q 543 1043 553 1049 q 504 1022 529 1035 q 452 997 479 1010 q 403 976 425 985 q 375 967 382 967 z "},"Ċ":{"ha":986,"x_min":64,"x_max":910,"o":"m 565 -21 q 378 13 468 -21 q 217 108 288 46 q 105 256 146 169 q 64 449 64 343 q 107 636 64 550 q 225 786 150 722 q 397 885 300 850 q 600 921 493 921 q 692 917 654 921 q 765 905 729 913 q 847 885 800 897 q 877 868 868 879 q 888 838 886 857 q 894 769 890 806 q 900 678 899 732 q 891 662 901 668 q 869 658 881 656 q 853 676 857 661 q 821 767 839 729 q 767 831 803 806 q 683 866 732 854 q 576 878 633 878 q 427 845 496 878 q 309 756 358 813 q 232 629 260 700 q 204 482 204 558 q 231 315 204 397 q 309 167 258 233 q 430 62 360 101 q 586 22 500 22 q 751 68 686 22 q 863 196 817 114 q 891 214 872 214 q 910 192 910 214 q 904 156 910 181 q 890 105 899 132 q 872 57 881 78 q 856 32 863 38 q 828 19 850 26 q 705 -11 776 -1 q 565 -21 633 -21 m 557 965 q 503 988 526 965 q 481 1042 481 1011 q 503 1096 481 1074 q 557 1118 526 1118 q 611 1096 589 1118 q 633 1042 633 1074 q 611 988 633 1011 q 557 965 589 965 z "},"D":{"ha":1047,"x_min":40,"x_max":999,"o":"m 515 -10 q 453 -7 501 -10 q 344 -2 406 -4 q 226 0 282 0 q 180 -1 199 0 q 140 -5 161 -3 q 81 -7 118 -7 q 51 -3 63 -7 q 40 11 40 1 q 51 26 40 22 q 86 33 63 29 q 159 65 139 43 q 179 138 179 88 l 179 763 q 159 833 179 813 q 86 864 139 854 q 51 873 63 868 q 40 889 40 878 q 51 903 40 899 q 81 907 63 907 q 138 906 117 907 q 181 905 160 906 q 235 904 201 904 q 291 906 257 904 q 362 910 325 907 q 428 914 399 913 q 472 915 458 915 q 714 881 614 915 q 876 787 814 847 q 969 647 939 726 q 999 475 999 567 q 961 288 999 375 q 857 133 924 200 q 703 28 790 65 q 515 -10 615 -10 m 499 39 q 690 92 607 39 q 820 238 774 144 q 867 451 867 331 q 833 630 867 551 q 744 762 800 708 q 619 844 689 815 q 479 872 550 872 q 377 869 419 872 q 313 847 335 865 q 290 788 290 829 l 290 168 q 321 85 290 113 q 399 48 351 57 q 499 39 447 39 z "},"Ð":{"ha":1047,"x_min":40,"x_max":999,"o":"m 83 440 q 69 450 74 440 q 64 465 64 460 q 74 483 64 475 q 97 490 85 490 l 524 490 q 537 486 531 490 q 543 475 543 482 q 542 473 543 474 q 542 471 542 472 q 524 449 535 457 q 499 440 514 440 l 83 440 m 515 -10 q 453 -7 501 -10 q 344 -2 406 -4 q 226 0 282 0 q 180 -1 199 0 q 140 -5 161 -3 q 81 -7 118 -7 q 51 -3 63 -7 q 40 11 40 1 q 51 26 40 22 q 86 33 63 29 q 159 65 139 43 q 179 138 179 88 l 179 763 q 159 833 179 813 q 86 864 139 854 q 51 873 63 868 q 40 889 40 878 q 51 903 40 899 q 81 907 63 907 q 138 906 117 907 q 181 905 160 906 q 235 904 201 904 q 291 906 257 904 q 362 910 325 907 q 428 914 399 913 q 472 915 458 915 q 714 881 614 915 q 876 787 814 847 q 969 647 939 726 q 999 475 999 567 q 961 288 999 375 q 857 133 924 200 q 703 28 790 65 q 515 -10 615 -10 m 499 39 q 690 92 607 39 q 820 238 774 144 q 867 451 867 331 q 833 630 867 551 q 744 762 800 708 q 619 844 689 815 q 479 872 550 872 q 377 869 419 872 q 313 847 335 865 q 290 788 290 829 l 290 168 q 321 85 290 113 q 399 48 351 57 q 499 39 447 39 z "},"Ď":{"ha":1047,"x_min":40,"x_max":999,"o":"m 515 -10 q 453 -7 501 -10 q 344 -2 406 -4 q 226 0 282 0 q 180 -1 199 0 q 140 -5 161 -3 q 81 -7 118 -7 q 51 -3 63 -7 q 40 11 40 1 q 51 26 40 22 q 86 33 63 29 q 159 65 139 43 q 179 138 179 88 l 179 763 q 159 833 179 813 q 86 864 139 854 q 51 873 63 868 q 40 889 40 878 q 51 903 40 899 q 81 907 63 907 q 138 906 117 907 q 181 905 160 906 q 235 904 201 904 q 291 906 257 904 q 362 910 325 907 q 428 914 399 913 q 472 915 458 915 q 714 881 614 915 q 876 787 814 847 q 969 647 939 726 q 999 475 999 567 q 961 288 999 375 q 857 133 924 200 q 703 28 790 65 q 515 -10 615 -10 m 499 39 q 690 92 607 39 q 820 238 774 144 q 867 451 867 331 q 833 630 867 551 q 744 762 800 708 q 619 844 689 815 q 479 872 550 872 q 377 869 419 872 q 313 847 335 865 q 290 788 290 829 l 290 168 q 321 85 290 113 q 399 48 351 57 q 499 39 447 39 m 325 1142 q 353 1133 332 1142 q 402 1111 375 1124 q 454 1086 429 1099 q 493 1065 479 1074 q 507 1060 503 1060 q 521 1065 511 1060 q 560 1086 535 1074 q 612 1112 585 1099 q 660 1134 639 1125 q 689 1143 682 1143 q 708 1128 708 1143 q 700 1111 708 1118 l 564 1003 q 533 979 543 986 q 507 972 522 972 q 481 979 492 972 q 450 1003 471 986 l 314 1111 q 304 1128 304 1119 q 325 1142 304 1142 z "},"Đ":{"ha":1047,"x_min":40,"x_max":999,"o":"m 83 440 q 69 450 74 440 q 64 465 64 460 q 74 483 64 475 q 97 490 85 490 l 524 490 q 537 486 531 490 q 543 475 543 482 q 542 473 543 474 q 542 471 542 472 q 524 449 535 457 q 499 440 514 440 l 83 440 m 515 -10 q 453 -7 501 -10 q 344 -2 406 -4 q 226 0 282 0 q 180 -1 199 0 q 140 -5 161 -3 q 81 -7 118 -7 q 51 -3 63 -7 q 40 11 40 1 q 51 26 40 22 q 86 33 63 29 q 159 65 139 43 q 179 138 179 88 l 179 763 q 159 833 179 813 q 86 864 139 854 q 51 873 63 868 q 40 889 40 878 q 51 903 40 899 q 81 907 63 907 q 138 906 117 907 q 181 905 160 906 q 235 904 201 904 q 291 906 257 904 q 362 910 325 907 q 428 914 399 913 q 472 915 458 915 q 714 881 614 915 q 876 787 814 847 q 969 647 939 726 q 999 475 999 567 q 961 288 999 375 q 857 133 924 200 q 703 28 790 65 q 515 -10 615 -10 m 499 39 q 690 92 607 39 q 820 238 774 144 q 867 451 867 331 q 833 630 867 551 q 744 762 800 708 q 619 844 689 815 q 479 872 550 872 q 377 869 419 872 q 313 847 335 865 q 290 788 290 829 l 290 168 q 321 85 290 113 q 399 48 351 57 q 499 39 447 39 z "},"E":{"ha":783,"x_min":51,"x_max":749,"o":"m 92 -7 q 63 -3 74 -7 q 51 8 51 0 q 97 33 51 25 q 175 65 150 43 q 200 138 200 88 l 200 763 q 180 833 200 813 q 107 864 160 854 q 72 875 83 868 q 61 892 61 882 q 72 903 61 900 q 101 907 83 907 q 191 906 154 907 q 263 903 228 904 q 347 903 299 903 q 444 903 393 903 q 538 904 494 904 q 617 906 585 906 q 656 907 650 907 q 671 904 663 907 q 681 894 679 901 q 694 817 688 856 q 701 751 701 779 q 695 735 701 739 q 682 731 689 731 q 672 734 675 731 q 667 744 669 738 q 653 790 660 768 q 636 821 646 811 q 593 851 617 843 q 543 858 569 858 l 361 858 q 331 846 350 858 q 311 814 311 833 l 311 519 q 319 498 311 507 q 336 489 326 489 l 474 489 q 529 503 514 489 q 554 557 544 518 q 579 588 563 588 q 591 582 585 588 q 597 565 597 576 q 597 540 597 560 q 594 500 596 521 q 593 468 593 479 q 594 431 593 454 q 595 388 594 408 q 596 361 596 367 q 594 344 596 351 q 583 338 592 338 q 551 382 563 338 q 529 429 543 414 q 488 444 515 444 l 358 444 q 323 438 335 444 q 311 408 311 432 l 311 142 q 333 69 311 89 q 403 49 356 49 l 506 49 q 580 53 550 49 q 632 72 610 58 q 672 113 654 88 q 711 179 689 138 q 721 193 715 188 q 733 197 726 199 q 744 191 740 196 q 749 178 749 186 q 742 134 749 165 q 724 69 735 103 q 706 17 714 36 q 698 0 701 7 q 686 -7 694 -7 q 563 -6 619 -7 q 454 -3 506 -4 q 353 0 403 -1 q 251 1 304 1 q 199 -1 221 1 q 153 -5 176 -3 q 92 -7 129 -7 z "},"É":{"ha":783,"x_min":51,"x_max":749,"o":"m 92 -7 q 63 -3 74 -7 q 51 8 51 0 q 97 33 51 25 q 175 65 150 43 q 200 138 200 88 l 200 763 q 180 833 200 813 q 107 864 160 854 q 72 875 83 868 q 61 892 61 882 q 72 903 61 900 q 101 907 83 907 q 191 906 154 907 q 263 903 228 904 q 347 903 299 903 q 444 903 393 903 q 538 904 494 904 q 617 906 585 906 q 656 907 650 907 q 671 904 663 907 q 681 894 679 901 q 694 817 688 856 q 701 751 701 779 q 695 735 701 739 q 682 731 689 731 q 672 734 675 731 q 667 744 669 738 q 653 790 660 768 q 636 821 646 811 q 593 851 617 843 q 543 858 569 858 l 361 858 q 331 846 350 858 q 311 814 311 833 l 311 519 q 319 498 311 507 q 336 489 326 489 l 474 489 q 529 503 514 489 q 554 557 544 518 q 579 588 563 588 q 591 582 585 588 q 597 565 597 576 q 597 540 597 560 q 594 500 596 521 q 593 468 593 479 q 594 431 593 454 q 595 388 594 408 q 596 361 596 367 q 594 344 596 351 q 583 338 592 338 q 551 382 563 338 q 529 429 543 414 q 488 444 515 444 l 358 444 q 323 438 335 444 q 311 408 311 432 l 311 142 q 333 69 311 89 q 403 49 356 49 l 506 49 q 580 53 550 49 q 632 72 610 58 q 672 113 654 88 q 711 179 689 138 q 721 193 715 188 q 733 197 726 199 q 744 191 740 196 q 749 178 749 186 q 742 134 749 165 q 724 69 735 103 q 706 17 714 36 q 698 0 701 7 q 686 -7 694 -7 q 563 -6 619 -7 q 454 -3 506 -4 q 353 0 403 -1 q 251 1 304 1 q 199 -1 221 1 q 153 -5 176 -3 q 92 -7 129 -7 m 368 951 q 360 960 360 951 q 367 981 360 969 q 419 1064 392 1022 q 474 1146 446 1106 q 511 1164 486 1164 q 540 1160 521 1164 q 576 1149 560 1156 q 592 1132 592 1142 q 574 1106 592 1122 q 483 1033 533 1069 q 393 964 433 996 q 377 954 383 957 q 368 951 371 951 z "},"Ĕ":{"ha":783,"x_min":51,"x_max":749,"o":"m 92 -7 q 63 -3 74 -7 q 51 8 51 0 q 97 33 51 25 q 175 65 150 43 q 200 138 200 88 l 200 763 q 180 833 200 813 q 107 864 160 854 q 72 875 83 868 q 61 892 61 882 q 72 903 61 900 q 101 907 83 907 q 191 906 154 907 q 263 903 228 904 q 347 903 299 903 q 444 903 393 903 q 538 904 494 904 q 617 906 585 906 q 656 907 650 907 q 671 904 663 907 q 681 894 679 901 q 694 817 688 856 q 701 751 701 779 q 695 735 701 739 q 682 731 689 731 q 672 734 675 731 q 667 744 669 738 q 653 790 660 768 q 636 821 646 811 q 593 851 617 843 q 543 858 569 858 l 361 858 q 331 846 350 858 q 311 814 311 833 l 311 519 q 319 498 311 507 q 336 489 326 489 l 474 489 q 529 503 514 489 q 554 557 544 518 q 579 588 563 588 q 591 582 585 588 q 597 565 597 576 q 597 540 597 560 q 594 500 596 521 q 593 468 593 479 q 594 431 593 454 q 595 388 594 408 q 596 361 596 367 q 594 344 596 351 q 583 338 592 338 q 551 382 563 338 q 529 429 543 414 q 488 444 515 444 l 358 444 q 323 438 335 444 q 311 408 311 432 l 311 142 q 333 69 311 89 q 403 49 356 49 l 506 49 q 580 53 550 49 q 632 72 610 58 q 672 113 654 88 q 711 179 689 138 q 721 193 715 188 q 733 197 726 199 q 744 191 740 196 q 749 178 749 186 q 742 134 749 165 q 724 69 735 103 q 706 17 714 36 q 698 0 701 7 q 686 -7 694 -7 q 563 -6 619 -7 q 454 -3 506 -4 q 353 0 403 -1 q 251 1 304 1 q 199 -1 221 1 q 153 -5 176 -3 q 92 -7 129 -7 m 414 961 q 313 985 356 961 q 247 1044 269 1010 q 224 1106 224 1078 q 228 1129 224 1119 q 238 1139 232 1139 q 257 1128 249 1139 q 271 1110 265 1118 q 334 1060 299 1076 q 414 1044 369 1044 q 494 1060 458 1044 q 557 1110 529 1076 q 572 1128 564 1118 q 590 1139 581 1139 q 603 1129 601 1139 q 604 1106 604 1119 q 581 1044 604 1078 q 516 985 558 1010 q 414 961 474 961 z "},"Ě":{"ha":783,"x_min":51,"x_max":749,"o":"m 92 -7 q 63 -3 74 -7 q 51 8 51 0 q 97 33 51 25 q 175 65 150 43 q 200 138 200 88 l 200 763 q 180 833 200 813 q 107 864 160 854 q 72 875 83 868 q 61 892 61 882 q 72 903 61 900 q 101 907 83 907 q 191 906 154 907 q 263 903 228 904 q 347 903 299 903 q 444 903 393 903 q 538 904 494 904 q 617 906 585 906 q 656 907 650 907 q 671 904 663 907 q 681 894 679 901 q 694 817 688 856 q 701 751 701 779 q 695 735 701 739 q 682 731 689 731 q 672 734 675 731 q 667 744 669 738 q 653 790 660 768 q 636 821 646 811 q 593 851 617 843 q 543 858 569 858 l 361 858 q 331 846 350 858 q 311 814 311 833 l 311 519 q 319 498 311 507 q 336 489 326 489 l 474 489 q 529 503 514 489 q 554 557 544 518 q 579 588 563 588 q 591 582 585 588 q 597 565 597 576 q 597 540 597 560 q 594 500 596 521 q 593 468 593 479 q 594 431 593 454 q 595 388 594 408 q 596 361 596 367 q 594 344 596 351 q 583 338 592 338 q 551 382 563 338 q 529 429 543 414 q 488 444 515 444 l 358 444 q 323 438 335 444 q 311 408 311 432 l 311 142 q 333 69 311 89 q 403 49 356 49 l 506 49 q 580 53 550 49 q 632 72 610 58 q 672 113 654 88 q 711 179 689 138 q 721 193 715 188 q 733 197 726 199 q 744 191 740 196 q 749 178 749 186 q 742 134 749 165 q 724 69 735 103 q 706 17 714 36 q 698 0 701 7 q 686 -7 694 -7 q 563 -6 619 -7 q 454 -3 506 -4 q 353 0 403 -1 q 251 1 304 1 q 199 -1 221 1 q 153 -5 176 -3 q 92 -7 129 -7 m 233 1142 q 262 1133 240 1142 q 310 1111 283 1124 q 363 1086 338 1099 q 401 1065 388 1074 q 415 1060 411 1060 q 429 1065 419 1060 q 468 1086 443 1074 q 520 1112 493 1099 q 569 1134 547 1125 q 597 1143 590 1143 q 617 1128 617 1143 q 608 1111 617 1118 l 472 1003 q 441 979 451 986 q 415 972 431 972 q 390 979 400 972 q 358 1003 379 986 l 222 1111 q 213 1128 213 1119 q 233 1142 213 1142 z "},"Ê":{"ha":783,"x_min":51,"x_max":749,"o":"m 92 -7 q 63 -3 74 -7 q 51 8 51 0 q 97 33 51 25 q 175 65 150 43 q 200 138 200 88 l 200 763 q 180 833 200 813 q 107 864 160 854 q 72 875 83 868 q 61 892 61 882 q 72 903 61 900 q 101 907 83 907 q 191 906 154 907 q 263 903 228 904 q 347 903 299 903 q 444 903 393 903 q 538 904 494 904 q 617 906 585 906 q 656 907 650 907 q 671 904 663 907 q 681 894 679 901 q 694 817 688 856 q 701 751 701 779 q 695 735 701 739 q 682 731 689 731 q 672 734 675 731 q 667 744 669 738 q 653 790 660 768 q 636 821 646 811 q 593 851 617 843 q 543 858 569 858 l 361 858 q 331 846 350 858 q 311 814 311 833 l 311 519 q 319 498 311 507 q 336 489 326 489 l 474 489 q 529 503 514 489 q 554 557 544 518 q 579 588 563 588 q 591 582 585 588 q 597 565 597 576 q 597 540 597 560 q 594 500 596 521 q 593 468 593 479 q 594 431 593 454 q 595 388 594 408 q 596 361 596 367 q 594 344 596 351 q 583 338 592 338 q 551 382 563 338 q 529 429 543 414 q 488 444 515 444 l 358 444 q 323 438 335 444 q 311 408 311 432 l 311 142 q 333 69 311 89 q 403 49 356 49 l 506 49 q 580 53 550 49 q 632 72 610 58 q 672 113 654 88 q 711 179 689 138 q 721 193 715 188 q 733 197 726 199 q 744 191 740 196 q 749 178 749 186 q 742 134 749 165 q 724 69 735 103 q 706 17 714 36 q 698 0 701 7 q 686 -7 694 -7 q 563 -6 619 -7 q 454 -3 506 -4 q 353 0 403 -1 q 251 1 304 1 q 199 -1 221 1 q 153 -5 176 -3 q 92 -7 129 -7 m 232 967 q 211 981 211 967 q 221 997 211 989 l 357 1113 q 388 1136 376 1129 q 414 1143 399 1143 q 440 1136 429 1143 q 471 1113 451 1129 l 607 997 q 615 981 615 990 q 596 965 615 965 q 567 974 589 965 q 519 997 546 983 q 467 1022 492 1010 q 428 1043 442 1035 q 414 1049 418 1049 q 400 1043 410 1049 q 361 1022 386 1035 q 309 997 336 1010 q 260 976 282 985 q 232 967 239 967 z "},"Ë":{"ha":783,"x_min":51,"x_max":749,"o":"m 92 -7 q 63 -3 74 -7 q 51 8 51 0 q 97 33 51 25 q 175 65 150 43 q 200 138 200 88 l 200 763 q 180 833 200 813 q 107 864 160 854 q 72 875 83 868 q 61 892 61 882 q 72 903 61 900 q 101 907 83 907 q 191 906 154 907 q 263 903 228 904 q 347 903 299 903 q 444 903 393 903 q 538 904 494 904 q 617 906 585 906 q 656 907 650 907 q 671 904 663 907 q 681 894 679 901 q 694 817 688 856 q 701 751 701 779 q 695 735 701 739 q 682 731 689 731 q 672 734 675 731 q 667 744 669 738 q 653 790 660 768 q 636 821 646 811 q 593 851 617 843 q 543 858 569 858 l 361 858 q 331 846 350 858 q 311 814 311 833 l 311 519 q 319 498 311 507 q 336 489 326 489 l 474 489 q 529 503 514 489 q 554 557 544 518 q 579 588 563 588 q 591 582 585 588 q 597 565 597 576 q 597 540 597 560 q 594 500 596 521 q 593 468 593 479 q 594 431 593 454 q 595 388 594 408 q 596 361 596 367 q 594 344 596 351 q 583 338 592 338 q 551 382 563 338 q 529 429 543 414 q 488 444 515 444 l 358 444 q 323 438 335 444 q 311 408 311 432 l 311 142 q 333 69 311 89 q 403 49 356 49 l 506 49 q 580 53 550 49 q 632 72 610 58 q 672 113 654 88 q 711 179 689 138 q 721 193 715 188 q 733 197 726 199 q 744 191 740 196 q 749 178 749 186 q 742 134 749 165 q 724 69 735 103 q 706 17 714 36 q 698 0 701 7 q 686 -7 694 -7 q 563 -6 619 -7 q 454 -3 506 -4 q 353 0 403 -1 q 251 1 304 1 q 199 -1 221 1 q 153 -5 176 -3 q 92 -7 129 -7 m 550 965 q 501 985 521 965 q 481 1035 481 1006 q 501 1084 481 1064 q 550 1104 521 1104 q 599 1084 579 1104 q 619 1035 619 1064 q 599 985 619 1006 q 550 965 579 965 m 279 965 q 230 985 250 965 q 210 1035 210 1006 q 230 1084 210 1064 q 279 1104 250 1104 q 328 1084 308 1104 q 349 1035 349 1064 q 328 985 349 1006 q 279 965 308 965 z "},"Ė":{"ha":783,"x_min":51,"x_max":749,"o":"m 92 -7 q 63 -3 74 -7 q 51 8 51 0 q 97 33 51 25 q 175 65 150 43 q 200 138 200 88 l 200 763 q 180 833 200 813 q 107 864 160 854 q 72 875 83 868 q 61 892 61 882 q 72 903 61 900 q 101 907 83 907 q 191 906 154 907 q 263 903 228 904 q 347 903 299 903 q 444 903 393 903 q 538 904 494 904 q 617 906 585 906 q 656 907 650 907 q 671 904 663 907 q 681 894 679 901 q 694 817 688 856 q 701 751 701 779 q 695 735 701 739 q 682 731 689 731 q 672 734 675 731 q 667 744 669 738 q 653 790 660 768 q 636 821 646 811 q 593 851 617 843 q 543 858 569 858 l 361 858 q 331 846 350 858 q 311 814 311 833 l 311 519 q 319 498 311 507 q 336 489 326 489 l 474 489 q 529 503 514 489 q 554 557 544 518 q 579 588 563 588 q 591 582 585 588 q 597 565 597 576 q 597 540 597 560 q 594 500 596 521 q 593 468 593 479 q 594 431 593 454 q 595 388 594 408 q 596 361 596 367 q 594 344 596 351 q 583 338 592 338 q 551 382 563 338 q 529 429 543 414 q 488 444 515 444 l 358 444 q 323 438 335 444 q 311 408 311 432 l 311 142 q 333 69 311 89 q 403 49 356 49 l 506 49 q 580 53 550 49 q 632 72 610 58 q 672 113 654 88 q 711 179 689 138 q 721 193 715 188 q 733 197 726 199 q 744 191 740 196 q 749 178 749 186 q 742 134 749 165 q 724 69 735 103 q 706 17 714 36 q 698 0 701 7 q 686 -7 694 -7 q 563 -6 619 -7 q 454 -3 506 -4 q 353 0 403 -1 q 251 1 304 1 q 199 -1 221 1 q 153 -5 176 -3 q 92 -7 129 -7 m 414 965 q 360 988 383 965 q 338 1042 338 1011 q 360 1096 338 1074 q 414 1118 383 1118 q 468 1096 446 1118 q 490 1042 490 1074 q 468 988 490 1011 q 414 965 446 965 z "},"È":{"ha":783,"x_min":51,"x_max":749,"o":"m 458 951 q 449 954 456 951 q 433 964 443 957 q 343 1033 393 996 q 253 1106 293 1069 q 235 1132 235 1122 q 251 1149 235 1142 q 286 1160 267 1156 q 315 1164 306 1164 q 353 1146 340 1164 q 408 1064 381 1106 q 460 981 435 1022 q 467 960 467 969 q 458 951 467 951 m 92 -7 q 63 -3 74 -7 q 51 8 51 0 q 97 33 51 25 q 175 65 150 43 q 200 138 200 88 l 200 763 q 180 833 200 813 q 107 864 160 854 q 72 875 83 868 q 61 892 61 882 q 72 903 61 900 q 101 907 83 907 q 191 906 154 907 q 263 903 228 904 q 347 903 299 903 q 444 903 393 903 q 538 904 494 904 q 617 906 585 906 q 656 907 650 907 q 671 904 663 907 q 681 894 679 901 q 694 817 688 856 q 701 751 701 779 q 695 735 701 739 q 682 731 689 731 q 672 734 675 731 q 667 744 669 738 q 653 790 660 768 q 636 821 646 811 q 593 851 617 843 q 543 858 569 858 l 361 858 q 331 846 350 858 q 311 814 311 833 l 311 519 q 319 498 311 507 q 336 489 326 489 l 474 489 q 529 503 514 489 q 554 557 544 518 q 579 588 563 588 q 591 582 585 588 q 597 565 597 576 q 597 540 597 560 q 594 500 596 521 q 593 468 593 479 q 594 431 593 454 q 595 388 594 408 q 596 361 596 367 q 594 344 596 351 q 583 338 592 338 q 551 382 563 338 q 529 429 543 414 q 488 444 515 444 l 358 444 q 323 438 335 444 q 311 408 311 432 l 311 142 q 333 69 311 89 q 403 49 356 49 l 506 49 q 580 53 550 49 q 632 72 610 58 q 672 113 654 88 q 711 179 689 138 q 721 193 715 188 q 733 197 726 199 q 744 191 740 196 q 749 178 749 186 q 742 134 749 165 q 724 69 735 103 q 706 17 714 36 q 698 0 701 7 q 686 -7 694 -7 q 563 -6 619 -7 q 454 -3 506 -4 q 353 0 403 -1 q 251 1 304 1 q 199 -1 221 1 q 153 -5 176 -3 q 92 -7 129 -7 z "},"Ē":{"ha":783,"x_min":51,"x_max":749,"o":"m 92 -7 q 63 -3 74 -7 q 51 8 51 0 q 97 33 51 25 q 175 65 150 43 q 200 138 200 88 l 200 763 q 180 833 200 813 q 107 864 160 854 q 72 875 83 868 q 61 892 61 882 q 72 903 61 900 q 101 907 83 907 q 191 906 154 907 q 263 903 228 904 q 347 903 299 903 q 444 903 393 903 q 538 904 494 904 q 617 906 585 906 q 656 907 650 907 q 671 904 663 907 q 681 894 679 901 q 694 817 688 856 q 701 751 701 779 q 695 735 701 739 q 682 731 689 731 q 672 734 675 731 q 667 744 669 738 q 653 790 660 768 q 636 821 646 811 q 593 851 617 843 q 543 858 569 858 l 361 858 q 331 846 350 858 q 311 814 311 833 l 311 519 q 319 498 311 507 q 336 489 326 489 l 474 489 q 529 503 514 489 q 554 557 544 518 q 579 588 563 588 q 591 582 585 588 q 597 565 597 576 q 597 540 597 560 q 594 500 596 521 q 593 468 593 479 q 594 431 593 454 q 595 388 594 408 q 596 361 596 367 q 594 344 596 351 q 583 338 592 338 q 551 382 563 338 q 529 429 543 414 q 488 444 515 444 l 358 444 q 323 438 335 444 q 311 408 311 432 l 311 142 q 333 69 311 89 q 403 49 356 49 l 506 49 q 580 53 550 49 q 632 72 610 58 q 672 113 654 88 q 711 179 689 138 q 721 193 715 188 q 733 197 726 199 q 744 191 740 196 q 749 178 749 186 q 742 134 749 165 q 724 69 735 103 q 706 17 714 36 q 698 0 701 7 q 686 -7 694 -7 q 563 -6 619 -7 q 454 -3 506 -4 q 353 0 403 -1 q 251 1 304 1 q 199 -1 221 1 q 153 -5 176 -3 q 92 -7 129 -7 m 231 1004 q 217 1010 224 1004 q 211 1021 211 1015 q 214 1042 211 1028 q 224 1067 217 1056 q 244 1079 232 1079 l 610 1079 q 622 1074 617 1079 q 628 1063 628 1069 q 615 1023 628 1042 q 585 1004 601 1004 l 231 1004 z "},"Ę":{"ha":743,"x_min":51,"x_max":749,"o":"m 92 -7 q 63 -3 74 -7 q 51 8 51 0 q 97 33 51 25 q 175 65 150 43 q 200 138 200 88 l 200 763 q 180 833 200 813 q 107 864 160 854 q 72 875 83 868 q 61 892 61 882 q 72 903 61 900 q 101 907 83 907 q 191 906 154 907 q 263 903 228 904 q 347 903 299 903 q 444 903 393 903 q 538 904 494 904 q 617 906 585 906 q 656 907 650 907 q 671 904 663 907 q 681 894 679 901 q 694 817 688 856 q 701 751 701 779 q 695 735 701 739 q 682 731 689 731 q 672 734 675 731 q 667 744 669 738 q 653 790 660 768 q 636 821 646 811 q 593 851 617 843 q 543 858 569 858 l 361 858 q 331 846 350 858 q 311 814 311 833 l 311 519 q 319 498 311 507 q 336 489 326 489 l 474 489 q 529 503 514 489 q 554 557 544 518 q 579 588 563 588 q 591 582 585 588 q 597 565 597 576 q 597 540 597 560 q 594 500 596 521 q 593 468 593 479 q 594 431 593 454 q 595 388 594 408 q 596 361 596 367 q 594 344 596 351 q 583 338 592 338 q 551 382 563 338 q 529 429 543 414 q 488 444 515 444 l 358 444 q 323 438 335 444 q 311 408 311 432 l 311 142 q 333 69 311 89 q 403 49 356 49 l 506 49 q 580 53 550 49 q 632 72 610 58 q 672 113 654 88 q 711 179 689 138 q 721 193 715 188 q 733 197 726 199 q 744 191 740 196 q 749 178 749 186 q 742 134 749 165 q 724 69 735 103 q 706 17 714 36 q 698 0 701 7 q 686 -7 694 -7 q 563 -6 619 -7 q 454 -3 506 -4 q 353 0 403 -1 q 251 1 304 1 q 199 -1 221 1 q 153 -5 176 -3 q 92 -7 129 -7 m 531 -399 q 419 -353 465 -399 q 372 -242 372 -307 q 397 -160 372 -200 q 456 -87 421 -121 q 526 -28 490 -54 q 585 11 561 -3 q 610 25 610 25 l 646 25 q 622 7 646 25 q 568 -43 599 -11 q 514 -119 538 -75 q 490 -215 490 -162 q 518 -276 490 -251 q 582 -300 546 -300 q 631 -287 607 -300 q 672 -261 654 -275 q 696 -244 690 -247 q 707 -243 701 -242 q 713 -253 713 -244 q 695 -301 713 -275 q 650 -349 678 -326 q 590 -385 622 -371 q 531 -399 558 -399 z "},"F":{"ha":711,"x_min":42,"x_max":674,"o":"m 82 -7 q 53 -3 64 -7 q 42 8 42 0 q 88 33 42 25 q 160 65 140 43 q 181 139 181 88 l 181 725 q 165 821 181 788 q 96 864 149 854 q 61 875 72 868 q 50 892 50 882 q 61 903 50 900 q 90 907 72 907 q 177 906 142 907 q 247 903 213 904 q 329 903 282 903 q 415 903 369 903 q 504 903 461 903 q 583 910 549 903 q 642 917 617 917 q 657 914 649 917 q 667 904 665 911 q 671 859 669 889 q 673 801 672 829 q 674 764 674 774 q 661 735 674 735 q 649 740 654 735 q 640 751 643 744 q 626 792 635 775 q 608 819 618 810 q 565 849 589 842 q 515 857 542 857 l 339 857 q 300 836 307 857 q 292 788 293 815 q 290 723 290 761 q 290 649 290 685 q 290 578 290 614 q 292 517 290 542 q 294 496 292 506 q 306 486 296 486 q 396 488 350 486 q 467 490 442 490 q 519 507 497 490 q 551 547 542 524 q 563 562 554 553 q 576 571 571 571 q 589 565 582 571 q 594 549 596 558 q 592 507 593 525 q 590 472 590 489 q 592 430 590 451 q 594 378 593 408 q 592 361 594 368 q 582 354 590 354 q 560 367 568 354 q 550 386 553 379 q 521 430 540 418 q 485 442 501 442 q 449 442 467 442 q 415 443 432 443 q 369 443 392 443 q 325 440 347 443 q 301 431 311 439 q 292 406 292 424 q 292 276 292 342 q 296 140 293 210 q 317 69 299 96 q 388 33 336 43 q 422 24 411 29 q 433 8 433 18 q 422 -3 433 0 q 393 -7 411 -7 q 335 -4 356 -7 q 299 1 315 -1 q 257 3 283 3 q 198 1 224 3 q 146 -4 172 -1 q 82 -7 119 -7 z "},"G":{"ha":1013,"x_min":63,"x_max":963,"o":"m 544 -19 q 362 15 449 -19 q 208 110 275 49 q 101 253 140 171 q 63 432 63 336 q 103 624 63 535 q 214 779 143 713 q 377 883 285 846 q 574 921 469 921 q 638 916 597 921 q 723 904 679 911 q 802 890 767 897 q 851 875 838 882 q 860 869 858 872 q 864 858 863 865 q 874 778 869 818 q 878 711 878 739 q 872 692 878 701 q 857 683 865 683 q 836 696 843 683 q 825 721 829 708 q 808 759 817 743 q 782 794 799 775 q 747 823 774 806 q 674 854 719 840 q 561 868 628 868 q 414 834 481 868 q 299 741 347 800 q 226 607 251 682 q 200 450 200 532 q 231 274 200 351 q 313 142 261 196 q 429 60 364 88 q 564 32 494 32 q 683 51 644 32 q 733 83 721 71 q 762 126 749 99 q 775 190 775 154 q 776 217 775 203 q 777 244 776 231 q 778 271 778 258 q 776 297 778 286 q 771 313 775 307 q 732 338 760 328 q 676 351 704 347 q 635 356 649 356 q 618 363 629 356 q 607 379 607 369 q 618 397 607 390 q 635 403 629 403 q 694 401 669 403 q 746 399 719 400 q 810 397 772 397 q 871 400 846 397 q 933 403 896 403 q 951 399 939 403 q 963 381 963 394 q 951 364 963 371 q 933 356 939 357 q 891 331 903 347 q 875 288 879 315 q 869 233 871 257 q 868 183 868 210 l 868 146 q 871 135 868 139 q 876 124 874 131 q 888 111 881 117 q 894 100 894 106 q 892 85 894 94 q 875 74 890 76 q 837 58 865 72 q 765 25 808 43 q 667 -6 722 7 q 544 -19 611 -19 z "},"Ğ":{"ha":1013,"x_min":63,"x_max":963,"o":"m 544 -19 q 362 15 449 -19 q 208 110 275 49 q 101 253 140 171 q 63 432 63 336 q 103 624 63 535 q 214 779 143 713 q 377 883 285 846 q 574 921 469 921 q 638 916 597 921 q 723 904 679 911 q 802 890 767 897 q 851 875 838 882 q 860 869 858 872 q 864 858 863 865 q 874 778 869 818 q 878 711 878 739 q 872 692 878 701 q 857 683 865 683 q 836 696 843 683 q 825 721 829 708 q 808 759 817 743 q 782 794 799 775 q 747 823 774 806 q 674 854 719 840 q 561 868 628 868 q 414 834 481 868 q 299 741 347 800 q 226 607 251 682 q 200 450 200 532 q 231 274 200 351 q 313 142 261 196 q 429 60 364 88 q 564 32 494 32 q 683 51 644 32 q 733 83 721 71 q 762 126 749 99 q 775 190 775 154 q 776 217 775 203 q 777 244 776 231 q 778 271 778 258 q 776 297 778 286 q 771 313 775 307 q 732 338 760 328 q 676 351 704 347 q 635 356 649 356 q 618 363 629 356 q 607 379 607 369 q 618 397 607 390 q 635 403 629 403 q 694 401 669 403 q 746 399 719 400 q 810 397 772 397 q 871 400 846 397 q 933 403 896 403 q 951 399 939 403 q 963 381 963 394 q 951 364 963 371 q 933 356 939 357 q 891 331 903 347 q 875 288 879 315 q 869 233 871 257 q 868 183 868 210 l 868 146 q 871 135 868 139 q 876 124 874 131 q 888 111 881 117 q 894 100 894 106 q 892 85 894 94 q 875 74 890 76 q 837 58 865 72 q 765 25 808 43 q 667 -6 722 7 q 544 -19 611 -19 m 574 961 q 472 985 515 961 q 406 1044 429 1010 q 383 1106 383 1078 q 388 1129 383 1119 q 397 1139 392 1139 q 417 1128 408 1139 q 431 1110 425 1118 q 494 1060 458 1076 q 574 1044 529 1044 q 653 1060 618 1044 q 717 1110 689 1076 q 732 1128 724 1118 q 750 1139 740 1139 q 763 1129 761 1139 q 764 1106 764 1119 q 741 1044 764 1078 q 676 985 718 1010 q 574 961 633 961 z "},"Ǧ":{"ha":1013,"x_min":63,"x_max":963,"o":"m 544 -19 q 362 15 449 -19 q 208 110 275 49 q 101 253 140 171 q 63 432 63 336 q 103 624 63 535 q 214 779 143 713 q 377 883 285 846 q 574 921 469 921 q 638 916 597 921 q 723 904 679 911 q 802 890 767 897 q 851 875 838 882 q 860 869 858 872 q 864 858 863 865 q 874 778 869 818 q 878 711 878 739 q 872 692 878 701 q 857 683 865 683 q 836 696 843 683 q 825 721 829 708 q 808 759 817 743 q 782 794 799 775 q 747 823 774 806 q 674 854 719 840 q 561 868 628 868 q 414 834 481 868 q 299 741 347 800 q 226 607 251 682 q 200 450 200 532 q 231 274 200 351 q 313 142 261 196 q 429 60 364 88 q 564 32 494 32 q 683 51 644 32 q 733 83 721 71 q 762 126 749 99 q 775 190 775 154 q 776 217 775 203 q 777 244 776 231 q 778 271 778 258 q 776 297 778 286 q 771 313 775 307 q 732 338 760 328 q 676 351 704 347 q 635 356 649 356 q 618 363 629 356 q 607 379 607 369 q 618 397 607 390 q 635 403 629 403 q 694 401 669 403 q 746 399 719 400 q 810 397 772 397 q 871 400 846 397 q 933 403 896 403 q 951 399 939 403 q 963 381 963 394 q 951 364 963 371 q 933 356 939 357 q 891 331 903 347 q 875 288 879 315 q 869 233 871 257 q 868 183 868 210 l 868 146 q 871 135 868 139 q 876 124 874 131 q 888 111 881 117 q 894 100 894 106 q 892 85 894 94 q 875 74 890 76 q 837 58 865 72 q 765 25 808 43 q 667 -6 722 7 q 544 -19 611 -19 m 393 1142 q 422 1133 400 1142 q 470 1111 443 1124 q 522 1086 497 1099 q 561 1065 547 1074 q 575 1060 571 1060 q 589 1065 579 1060 q 628 1086 603 1074 q 680 1112 653 1099 q 728 1134 707 1125 q 757 1143 750 1143 q 776 1128 776 1143 q 768 1111 776 1118 l 632 1003 q 601 979 611 986 q 575 972 590 972 q 549 979 560 972 q 518 1003 539 986 l 382 1111 q 372 1128 372 1119 q 393 1142 372 1142 z "},"Ĝ":{"ha":1013,"x_min":63,"x_max":963,"o":"m 544 -19 q 362 15 449 -19 q 208 110 275 49 q 101 253 140 171 q 63 432 63 336 q 103 624 63 535 q 214 779 143 713 q 377 883 285 846 q 574 921 469 921 q 638 916 597 921 q 723 904 679 911 q 802 890 767 897 q 851 875 838 882 q 860 869 858 872 q 864 858 863 865 q 874 778 869 818 q 878 711 878 739 q 872 692 878 701 q 857 683 865 683 q 836 696 843 683 q 825 721 829 708 q 808 759 817 743 q 782 794 799 775 q 747 823 774 806 q 674 854 719 840 q 561 868 628 868 q 414 834 481 868 q 299 741 347 800 q 226 607 251 682 q 200 450 200 532 q 231 274 200 351 q 313 142 261 196 q 429 60 364 88 q 564 32 494 32 q 683 51 644 32 q 733 83 721 71 q 762 126 749 99 q 775 190 775 154 q 776 217 775 203 q 777 244 776 231 q 778 271 778 258 q 776 297 778 286 q 771 313 775 307 q 732 338 760 328 q 676 351 704 347 q 635 356 649 356 q 618 363 629 356 q 607 379 607 369 q 618 397 607 390 q 635 403 629 403 q 694 401 669 403 q 746 399 719 400 q 810 397 772 397 q 871 400 846 397 q 933 403 896 403 q 951 399 939 403 q 963 381 963 394 q 951 364 963 371 q 933 356 939 357 q 891 331 903 347 q 875 288 879 315 q 869 233 871 257 q 868 183 868 210 l 868 146 q 871 135 868 139 q 876 124 874 131 q 888 111 881 117 q 894 100 894 106 q 892 85 894 94 q 875 74 890 76 q 837 58 865 72 q 765 25 808 43 q 667 -6 722 7 q 544 -19 611 -19 m 392 967 q 371 981 371 967 q 381 997 371 989 l 517 1113 q 547 1136 536 1129 q 574 1143 558 1143 q 600 1136 589 1143 q 631 1113 611 1129 l 767 997 q 775 981 775 990 q 756 965 775 965 q 727 974 749 965 q 678 997 706 983 q 626 1022 651 1010 q 588 1043 601 1035 q 574 1049 578 1049 q 560 1043 569 1049 q 521 1022 546 1035 q 469 997 496 1010 q 420 976 442 985 q 392 967 399 967 z "},"Ġ":{"ha":1013,"x_min":63,"x_max":963,"o":"m 544 -19 q 362 15 449 -19 q 208 110 275 49 q 101 253 140 171 q 63 432 63 336 q 103 624 63 535 q 214 779 143 713 q 377 883 285 846 q 574 921 469 921 q 638 916 597 921 q 723 904 679 911 q 802 890 767 897 q 851 875 838 882 q 860 869 858 872 q 864 858 863 865 q 874 778 869 818 q 878 711 878 739 q 872 692 878 701 q 857 683 865 683 q 836 696 843 683 q 825 721 829 708 q 808 759 817 743 q 782 794 799 775 q 747 823 774 806 q 674 854 719 840 q 561 868 628 868 q 414 834 481 868 q 299 741 347 800 q 226 607 251 682 q 200 450 200 532 q 231 274 200 351 q 313 142 261 196 q 429 60 364 88 q 564 32 494 32 q 683 51 644 32 q 733 83 721 71 q 762 126 749 99 q 775 190 775 154 q 776 217 775 203 q 777 244 776 231 q 778 271 778 258 q 776 297 778 286 q 771 313 775 307 q 732 338 760 328 q 676 351 704 347 q 635 356 649 356 q 618 363 629 356 q 607 379 607 369 q 618 397 607 390 q 635 403 629 403 q 694 401 669 403 q 746 399 719 400 q 810 397 772 397 q 871 400 846 397 q 933 403 896 403 q 951 399 939 403 q 963 381 963 394 q 951 364 963 371 q 933 356 939 357 q 891 331 903 347 q 875 288 879 315 q 869 233 871 257 q 868 183 868 210 l 868 146 q 871 135 868 139 q 876 124 874 131 q 888 111 881 117 q 894 100 894 106 q 892 85 894 94 q 875 74 890 76 q 837 58 865 72 q 765 25 808 43 q 667 -6 722 7 q 544 -19 611 -19 m 574 965 q 520 988 543 965 q 497 1042 497 1011 q 520 1096 497 1074 q 574 1118 543 1118 q 628 1096 606 1118 q 650 1042 650 1074 q 628 988 650 1011 q 574 965 606 965 z "},"Ɂ":{"ha":649,"x_min":49,"x_max":603,"o":"m 133 -7 q 104 -3 115 -7 q 93 8 93 0 q 139 33 93 25 q 219 65 192 43 q 247 135 247 88 l 247 326 q 269 402 247 371 q 319 454 292 433 q 363 486 347 475 q 412 528 386 504 q 456 591 438 553 q 474 688 474 629 q 451 785 474 742 q 390 853 429 828 q 297 879 350 879 q 208 861 243 879 q 151 815 172 843 q 118 758 129 788 q 100 704 107 728 q 86 680 97 693 q 63 667 75 667 q 56 674 58 667 q 51 691 53 681 q 49 710 49 701 q 51 745 49 722 q 56 793 53 768 q 64 835 60 818 q 74 854 68 853 q 134 875 92 858 q 227 907 176 892 q 322 922 278 922 q 465 894 401 922 q 566 818 529 867 q 603 706 603 769 q 583 603 603 646 q 535 529 564 560 q 474 476 506 499 q 418 438 443 454 q 367 385 375 407 q 358 326 358 364 l 358 135 q 388 65 358 88 q 468 33 417 43 q 503 24 492 29 q 514 8 514 18 q 503 -3 514 0 q 474 -7 492 -7 q 412 -5 436 -7 q 365 -1 388 -3 q 311 0 343 0 q 251 -1 276 0 q 198 -5 225 -3 q 133 -7 171 -7 z "},"Ȝ":{"ha":729,"x_min":-7,"x_max":700,"o":"m 156 -278 q 40 -268 88 -278 q -7 -236 -7 -258 q 9 -184 -7 -208 q 43 -160 25 -160 q 68 -172 54 -160 q 103 -199 82 -185 q 144 -218 121 -210 q 197 -226 167 -226 q 360 -193 290 -226 q 476 -104 429 -160 q 547 16 524 -49 q 571 143 571 81 q 549 252 571 203 q 485 332 528 301 q 378 363 443 363 q 301 350 333 363 q 249 325 269 338 q 218 313 229 313 q 198 317 208 313 q 180 328 188 321 q 172 342 172 335 q 192 368 172 353 q 224 389 211 383 q 340 450 285 415 q 429 541 394 485 q 464 688 464 597 q 445 780 464 736 q 391 851 426 824 q 307 879 356 879 q 231 867 264 879 q 171 831 197 856 q 133 777 150 808 q 106 701 117 746 q 89 676 103 686 q 69 667 75 667 q 60 679 64 667 q 56 701 56 692 q 60 766 56 738 q 69 829 64 794 q 75 848 72 840 q 88 857 78 856 q 159 881 118 865 q 246 909 200 896 q 333 922 292 922 q 460 896 400 922 q 557 821 519 869 q 594 706 594 772 q 549 553 594 619 q 444 450 503 486 q 439 442 439 447 q 444 436 439 436 q 585 402 529 436 q 671 311 642 368 q 700 185 700 254 q 665 27 700 108 q 561 -124 631 -54 q 390 -235 492 -193 q 156 -278 289 -278 z "},"H":{"ha":1125,"x_min":51,"x_max":1069,"o":"m 92 -7 q 63 -2 74 -7 q 51 11 51 3 q 96 33 51 25 q 165 65 149 43 q 181 138 181 88 l 181 765 q 170 834 181 814 q 107 864 160 854 q 61 889 61 872 q 71 902 61 897 q 101 907 81 907 q 160 906 139 907 q 199 903 181 904 q 244 903 217 903 q 292 903 274 903 q 333 906 311 904 q 392 907 354 907 q 432 889 432 907 q 421 874 432 879 q 386 864 410 868 q 313 830 335 854 q 292 765 292 806 l 292 492 q 299 481 292 483 q 311 479 306 479 l 826 479 q 836 496 836 479 l 836 767 q 817 829 836 804 q 744 864 797 854 q 710 874 721 868 q 699 889 699 879 q 739 907 699 907 q 801 906 776 907 q 847 903 825 904 q 900 903 869 903 q 939 903 925 903 q 971 906 953 904 q 1026 907 989 907 q 1056 902 1046 907 q 1067 889 1067 897 q 1021 864 1067 872 q 958 831 969 854 q 947 767 947 807 l 947 139 q 960 65 947 88 q 1025 33 974 43 q 1069 11 1069 25 q 1058 -2 1069 3 q 1029 -7 1047 -7 q 971 -5 992 -7 q 932 -1 950 -3 q 885 0 914 0 q 837 -1 856 0 q 796 -5 818 -3 q 736 -7 774 -7 q 707 -2 718 -7 q 696 11 696 3 q 706 25 696 21 q 740 33 717 29 q 810 66 785 42 q 836 135 836 90 l 836 406 q 836 419 836 413 q 829 426 836 426 l 299 426 q 292 411 292 426 l 292 147 q 324 73 292 104 q 403 33 356 42 q 437 25 426 29 q 447 11 447 21 q 436 -2 447 3 q 407 -7 425 -7 q 345 -5 369 -7 q 299 -1 321 -3 q 244 0 276 0 q 195 -1 215 0 q 152 -5 175 -3 q 92 -7 129 -7 z "},"Ħ":{"ha":1125,"x_min":51,"x_max":1069,"o":"m 94 633 q 79 641 86 633 q 72 658 72 649 q 82 676 72 669 q 106 683 92 683 l 1040 683 q 1053 679 1047 683 q 1058 667 1058 675 q 1045 645 1058 657 q 1015 633 1032 633 l 94 633 m 92 -7 q 63 -2 74 -7 q 51 11 51 3 q 96 33 51 25 q 165 65 149 43 q 181 138 181 88 l 181 765 q 170 834 181 814 q 107 864 160 854 q 61 889 61 872 q 71 902 61 897 q 101 907 81 907 q 160 906 139 907 q 199 903 181 904 q 244 903 217 903 q 292 903 274 903 q 333 906 311 904 q 392 907 354 907 q 432 889 432 907 q 421 874 432 879 q 386 864 410 868 q 313 830 335 854 q 292 765 292 806 l 292 492 q 299 481 292 483 q 311 479 306 479 l 826 479 q 836 496 836 479 l 836 767 q 817 829 836 804 q 744 864 797 854 q 710 874 721 868 q 699 889 699 879 q 739 907 699 907 q 801 906 776 907 q 847 903 825 904 q 900 903 869 903 q 939 903 925 903 q 971 906 953 904 q 1026 907 989 907 q 1056 902 1046 907 q 1067 889 1067 897 q 1021 864 1067 872 q 958 831 969 854 q 947 767 947 807 l 947 139 q 960 65 947 88 q 1025 33 974 43 q 1069 11 1069 25 q 1058 -2 1069 3 q 1029 -7 1047 -7 q 971 -5 992 -7 q 932 -1 950 -3 q 885 0 914 0 q 837 -1 856 0 q 796 -5 818 -3 q 736 -7 774 -7 q 707 -2 718 -7 q 696 11 696 3 q 706 25 696 21 q 740 33 717 29 q 810 66 785 42 q 836 135 836 90 l 836 406 q 836 419 836 413 q 829 426 836 426 l 299 426 q 292 411 292 426 l 292 147 q 324 73 292 104 q 403 33 356 42 q 437 25 426 29 q 447 11 447 21 q 436 -2 447 3 q 407 -7 425 -7 q 345 -5 369 -7 q 299 -1 321 -3 q 244 0 276 0 q 195 -1 215 0 q 152 -5 175 -3 q 92 -7 129 -7 z "},"Ĥ":{"ha":1125,"x_min":51,"x_max":1069,"o":"m 92 -7 q 63 -2 74 -7 q 51 11 51 3 q 96 33 51 25 q 165 65 149 43 q 181 138 181 88 l 181 765 q 170 834 181 814 q 107 864 160 854 q 61 889 61 872 q 71 902 61 897 q 101 907 81 907 q 160 906 139 907 q 199 903 181 904 q 244 903 217 903 q 292 903 274 903 q 333 906 311 904 q 392 907 354 907 q 432 889 432 907 q 421 874 432 879 q 386 864 410 868 q 313 830 335 854 q 292 765 292 806 l 292 492 q 299 481 292 483 q 311 479 306 479 l 826 479 q 836 496 836 479 l 836 767 q 817 829 836 804 q 744 864 797 854 q 710 874 721 868 q 699 889 699 879 q 739 907 699 907 q 801 906 776 907 q 847 903 825 904 q 900 903 869 903 q 939 903 925 903 q 971 906 953 904 q 1026 907 989 907 q 1056 902 1046 907 q 1067 889 1067 897 q 1021 864 1067 872 q 958 831 969 854 q 947 767 947 807 l 947 139 q 960 65 947 88 q 1025 33 974 43 q 1069 11 1069 25 q 1058 -2 1069 3 q 1029 -7 1047 -7 q 971 -5 992 -7 q 932 -1 950 -3 q 885 0 914 0 q 837 -1 856 0 q 796 -5 818 -3 q 736 -7 774 -7 q 707 -2 718 -7 q 696 11 696 3 q 706 25 696 21 q 740 33 717 29 q 810 66 785 42 q 836 135 836 90 l 836 406 q 836 419 836 413 q 829 426 836 426 l 299 426 q 292 411 292 426 l 292 147 q 324 73 292 104 q 403 33 356 42 q 437 25 426 29 q 447 11 447 21 q 436 -2 447 3 q 407 -7 425 -7 q 345 -5 369 -7 q 299 -1 321 -3 q 244 0 276 0 q 195 -1 215 0 q 152 -5 175 -3 q 92 -7 129 -7 m 381 967 q 360 981 360 967 q 369 997 360 989 l 506 1113 q 536 1136 525 1129 q 563 1143 547 1143 q 589 1136 578 1143 q 619 1113 600 1129 l 756 997 q 764 981 764 990 q 744 965 764 965 q 716 974 738 965 q 667 997 694 983 q 615 1022 640 1010 q 576 1043 590 1035 q 563 1049 567 1049 q 549 1043 558 1049 q 510 1022 535 1035 q 458 997 485 1010 q 409 976 431 985 q 381 967 388 967 z "},"I":{"ha":472,"x_min":26,"x_max":447,"o":"m 67 -7 q 38 -3 49 -7 q 26 8 26 0 q 72 33 26 25 q 153 65 125 43 q 181 136 181 88 l 181 764 q 160 833 181 813 q 88 864 140 854 q 42 892 42 872 q 53 903 42 900 q 82 907 64 907 q 144 906 119 907 q 190 903 168 904 q 244 903 213 903 q 294 903 275 903 q 336 906 314 904 q 396 907 358 907 q 425 903 414 907 q 436 892 436 900 q 425 875 436 882 q 390 864 414 868 q 315 833 339 854 q 292 764 292 813 l 292 136 q 321 65 292 88 q 401 33 350 43 q 436 24 425 29 q 447 8 447 18 q 436 -3 447 0 q 407 -7 425 -7 q 345 -5 369 -7 q 299 -1 321 -3 q 244 0 276 0 q 184 -1 210 0 q 131 -5 158 -3 q 67 -7 104 -7 z "},"Ĳ":{"ha":944,"x_min":26,"x_max":889,"o":"m 67 -7 q 38 -3 49 -7 q 26 8 26 0 q 72 33 26 25 q 153 65 125 43 q 181 136 181 88 l 181 764 q 160 833 181 813 q 88 864 140 854 q 42 892 42 872 q 53 903 42 900 q 82 907 64 907 q 144 906 119 907 q 190 903 168 904 q 244 903 213 903 q 294 903 275 903 q 336 906 314 904 q 396 907 358 907 q 425 903 414 907 q 436 892 436 900 q 425 875 436 882 q 390 864 414 868 q 315 833 339 854 q 292 764 292 813 l 292 136 q 321 65 292 88 q 401 33 350 43 q 436 24 425 29 q 447 8 447 18 q 436 -3 447 0 q 407 -7 425 -7 q 345 -5 369 -7 q 299 -1 321 -3 q 244 0 276 0 q 184 -1 210 0 q 131 -5 158 -3 q 67 -7 104 -7 m 519 -278 q 376 -210 376 -278 q 396 -165 376 -186 q 431 -144 415 -144 q 465 -152 449 -144 q 496 -179 482 -160 q 528 -211 514 -201 q 561 -221 543 -221 q 631 -162 610 -221 q 653 -1 653 -103 l 653 765 q 632 834 653 814 q 561 864 611 854 q 515 892 515 872 q 526 903 515 900 q 556 907 538 907 q 617 906 593 907 q 664 903 642 904 q 718 903 686 903 q 759 903 744 903 q 792 906 774 904 q 849 907 811 907 q 878 903 867 907 q 889 892 889 900 q 878 875 889 882 q 843 864 867 868 q 778 834 792 854 q 764 765 764 814 l 764 65 q 746 -44 764 7 q 702 -136 728 -96 q 654 -203 676 -176 q 593 -257 626 -236 q 519 -278 560 -278 z "},"Í":{"ha":472,"x_min":26,"x_max":447,"o":"m 67 -7 q 38 -3 49 -7 q 26 8 26 0 q 72 33 26 25 q 153 65 125 43 q 181 136 181 88 l 181 764 q 160 833 181 813 q 88 864 140 854 q 42 892 42 872 q 53 903 42 900 q 82 907 64 907 q 144 906 119 907 q 190 903 168 904 q 244 903 213 903 q 294 903 275 903 q 336 906 314 904 q 396 907 358 907 q 425 903 414 907 q 436 892 436 900 q 425 875 436 882 q 390 864 414 868 q 315 833 339 854 q 292 764 292 813 l 292 136 q 321 65 292 88 q 401 33 350 43 q 436 24 425 29 q 447 8 447 18 q 436 -3 447 0 q 407 -7 425 -7 q 345 -5 369 -7 q 299 -1 321 -3 q 244 0 276 0 q 184 -1 210 0 q 131 -5 158 -3 q 67 -7 104 -7 m 190 951 q 182 960 182 951 q 189 981 182 969 q 241 1064 214 1022 q 296 1146 268 1106 q 333 1164 308 1164 q 363 1160 343 1164 q 398 1149 382 1156 q 414 1132 414 1142 q 396 1106 414 1122 q 306 1033 356 1069 q 215 964 256 996 q 199 954 206 957 q 190 951 193 951 z "},"Ĭ":{"ha":472,"x_min":26,"x_max":447,"o":"m 67 -7 q 38 -3 49 -7 q 26 8 26 0 q 72 33 26 25 q 153 65 125 43 q 181 136 181 88 l 181 764 q 160 833 181 813 q 88 864 140 854 q 42 892 42 872 q 53 903 42 900 q 82 907 64 907 q 144 906 119 907 q 190 903 168 904 q 244 903 213 903 q 294 903 275 903 q 336 906 314 904 q 396 907 358 907 q 425 903 414 907 q 436 892 436 900 q 425 875 436 882 q 390 864 414 868 q 315 833 339 854 q 292 764 292 813 l 292 136 q 321 65 292 88 q 401 33 350 43 q 436 24 425 29 q 447 8 447 18 q 436 -3 447 0 q 407 -7 425 -7 q 345 -5 369 -7 q 299 -1 321 -3 q 244 0 276 0 q 184 -1 210 0 q 131 -5 158 -3 q 67 -7 104 -7 m 236 961 q 135 985 178 961 q 69 1044 92 1010 q 46 1106 46 1078 q 50 1129 46 1119 q 60 1139 54 1139 q 79 1128 71 1139 q 93 1110 88 1118 q 156 1060 121 1076 q 236 1044 192 1044 q 316 1060 281 1044 q 379 1110 351 1076 q 394 1128 386 1118 q 413 1139 403 1139 q 425 1129 424 1139 q 426 1106 426 1119 q 403 1044 426 1078 q 338 985 381 1010 q 236 961 296 961 z "},"Î":{"ha":472,"x_min":26,"x_max":447,"o":"m 67 -7 q 38 -3 49 -7 q 26 8 26 0 q 72 33 26 25 q 153 65 125 43 q 181 136 181 88 l 181 764 q 160 833 181 813 q 88 864 140 854 q 42 892 42 872 q 53 903 42 900 q 82 907 64 907 q 144 906 119 907 q 190 903 168 904 q 244 903 213 903 q 294 903 275 903 q 336 906 314 904 q 396 907 358 907 q 425 903 414 907 q 436 892 436 900 q 425 875 436 882 q 390 864 414 868 q 315 833 339 854 q 292 764 292 813 l 292 136 q 321 65 292 88 q 401 33 350 43 q 436 24 425 29 q 447 8 447 18 q 436 -3 447 0 q 407 -7 425 -7 q 345 -5 369 -7 q 299 -1 321 -3 q 244 0 276 0 q 184 -1 210 0 q 131 -5 158 -3 q 67 -7 104 -7 m 54 967 q 33 981 33 967 q 43 997 33 989 l 179 1113 q 210 1136 199 1129 q 236 1143 221 1143 q 263 1136 251 1143 q 293 1113 274 1129 l 429 997 q 438 981 438 990 q 418 965 438 965 q 390 974 411 965 q 341 997 368 983 q 289 1022 314 1010 q 250 1043 264 1035 q 236 1049 240 1049 q 222 1043 232 1049 q 183 1022 208 1035 q 131 997 158 1010 q 83 976 104 985 q 54 967 61 967 z "},"Ï":{"ha":472,"x_min":26,"x_max":447,"o":"m 67 -7 q 38 -3 49 -7 q 26 8 26 0 q 72 33 26 25 q 153 65 125 43 q 181 136 181 88 l 181 764 q 160 833 181 813 q 88 864 140 854 q 42 892 42 872 q 53 903 42 900 q 82 907 64 907 q 144 906 119 907 q 190 903 168 904 q 244 903 213 903 q 294 903 275 903 q 336 906 314 904 q 396 907 358 907 q 425 903 414 907 q 436 892 436 900 q 425 875 436 882 q 390 864 414 868 q 315 833 339 854 q 292 764 292 813 l 292 136 q 321 65 292 88 q 401 33 350 43 q 436 24 425 29 q 447 8 447 18 q 436 -3 447 0 q 407 -7 425 -7 q 345 -5 369 -7 q 299 -1 321 -3 q 244 0 276 0 q 184 -1 210 0 q 131 -5 158 -3 q 67 -7 104 -7 m 372 965 q 323 985 343 965 q 303 1035 303 1006 q 323 1084 303 1064 q 372 1104 343 1104 q 422 1084 401 1104 q 442 1035 442 1064 q 422 985 442 1006 q 372 965 401 965 m 101 965 q 52 985 72 965 q 32 1035 32 1006 q 52 1084 32 1064 q 101 1104 72 1104 q 151 1084 131 1104 q 171 1035 171 1064 q 151 985 171 1006 q 101 965 131 965 z "},"İ":{"ha":472,"x_min":26,"x_max":447,"o":"m 67 -7 q 38 -3 49 -7 q 26 8 26 0 q 72 33 26 25 q 153 65 125 43 q 181 136 181 88 l 181 764 q 160 833 181 813 q 88 864 140 854 q 42 892 42 872 q 53 903 42 900 q 82 907 64 907 q 144 906 119 907 q 190 903 168 904 q 244 903 213 903 q 294 903 275 903 q 336 906 314 904 q 396 907 358 907 q 425 903 414 907 q 436 892 436 900 q 425 875 436 882 q 390 864 414 868 q 315 833 339 854 q 292 764 292 813 l 292 136 q 321 65 292 88 q 401 33 350 43 q 436 24 425 29 q 447 8 447 18 q 436 -3 447 0 q 407 -7 425 -7 q 345 -5 369 -7 q 299 -1 321 -3 q 244 0 276 0 q 184 -1 210 0 q 131 -5 158 -3 q 67 -7 104 -7 m 236 965 q 183 988 206 965 q 160 1042 160 1011 q 183 1096 160 1074 q 236 1118 206 1118 q 290 1096 268 1118 q 313 1042 313 1074 q 290 988 313 1011 q 236 965 268 965 z "},"Ì":{"ha":472,"x_min":26,"x_max":447,"o":"m 281 951 q 272 954 278 951 q 256 964 265 957 q 165 1033 215 996 q 75 1106 115 1069 q 57 1132 57 1122 q 73 1149 57 1142 q 108 1160 89 1156 q 138 1164 128 1164 q 175 1146 163 1164 q 230 1064 203 1106 q 282 981 257 1022 q 289 960 289 969 q 281 951 289 951 m 67 -7 q 38 -3 49 -7 q 26 8 26 0 q 72 33 26 25 q 153 65 125 43 q 181 136 181 88 l 181 764 q 160 833 181 813 q 88 864 140 854 q 42 892 42 872 q 53 903 42 900 q 82 907 64 907 q 144 906 119 907 q 190 903 168 904 q 244 903 213 903 q 294 903 275 903 q 336 906 314 904 q 396 907 358 907 q 425 903 414 907 q 436 892 436 900 q 425 875 436 882 q 390 864 414 868 q 315 833 339 854 q 292 764 292 813 l 292 136 q 321 65 292 88 q 401 33 350 43 q 436 24 425 29 q 447 8 447 18 q 436 -3 447 0 q 407 -7 425 -7 q 345 -5 369 -7 q 299 -1 321 -3 q 244 0 276 0 q 184 -1 210 0 q 131 -5 158 -3 q 67 -7 104 -7 z "},"Ī":{"ha":472,"x_min":26,"x_max":450,"o":"m 67 -7 q 38 -3 49 -7 q 26 8 26 0 q 72 33 26 25 q 153 65 125 43 q 181 136 181 88 l 181 764 q 160 833 181 813 q 88 864 140 854 q 42 892 42 872 q 53 903 42 900 q 82 907 64 907 q 144 906 119 907 q 190 903 168 904 q 244 903 213 903 q 294 903 275 903 q 336 906 314 904 q 396 907 358 907 q 425 903 414 907 q 436 892 436 900 q 425 875 436 882 q 390 864 414 868 q 315 833 339 854 q 292 764 292 813 l 292 136 q 321 65 292 88 q 401 33 350 43 q 436 24 425 29 q 447 8 447 18 q 436 -3 447 0 q 407 -7 425 -7 q 345 -5 369 -7 q 299 -1 321 -3 q 244 0 276 0 q 184 -1 210 0 q 131 -5 158 -3 q 67 -7 104 -7 m 53 1004 q 40 1010 46 1004 q 33 1021 33 1015 q 36 1042 33 1028 q 47 1067 39 1056 q 67 1079 54 1079 l 432 1079 q 444 1074 439 1079 q 450 1063 450 1069 q 437 1023 450 1042 q 407 1004 424 1004 l 53 1004 z "},"Į":{"ha":472,"x_min":26,"x_max":447,"o":"m 67 -7 q 38 -3 49 -7 q 26 8 26 0 q 72 33 26 25 q 153 65 125 43 q 181 136 181 88 l 181 764 q 160 833 181 813 q 88 864 140 854 q 42 892 42 872 q 53 903 42 900 q 82 907 64 907 q 144 906 119 907 q 190 903 168 904 q 244 903 213 903 q 294 903 275 903 q 336 906 314 904 q 396 907 358 907 q 425 903 414 907 q 436 892 436 900 q 425 875 436 882 q 390 864 414 868 q 315 833 339 854 q 292 764 292 813 l 292 136 q 321 65 292 88 q 401 33 350 43 q 436 24 425 29 q 447 8 447 18 q 436 -3 447 0 q 407 -7 425 -7 q 345 -5 369 -7 q 299 -1 321 -3 q 244 0 276 0 q 184 -1 210 0 q 131 -5 158 -3 q 67 -7 104 -7 m 260 -399 q 148 -353 194 -399 q 101 -242 101 -307 q 126 -160 101 -200 q 185 -87 150 -121 q 255 -28 219 -54 q 315 11 290 -3 q 339 25 339 25 l 375 25 q 351 7 375 25 q 297 -43 328 -11 q 243 -119 267 -75 q 219 -215 219 -162 q 247 -276 219 -251 q 311 -300 275 -300 q 360 -287 336 -300 q 401 -261 383 -275 q 425 -244 419 -247 q 436 -243 431 -242 q 442 -253 442 -244 q 424 -301 442 -275 q 379 -349 407 -326 q 319 -385 351 -371 q 260 -399 288 -399 z "},"Ĩ":{"ha":472,"x_min":26,"x_max":464,"o":"m 67 -7 q 38 -3 49 -7 q 26 8 26 0 q 72 33 26 25 q 153 65 125 43 q 181 136 181 88 l 181 764 q 160 833 181 813 q 88 864 140 854 q 42 892 42 872 q 53 903 42 900 q 82 907 64 907 q 144 906 119 907 q 190 903 168 904 q 244 903 213 903 q 294 903 275 903 q 336 906 314 904 q 396 907 358 907 q 425 903 414 907 q 436 892 436 900 q 425 875 436 882 q 390 864 414 868 q 315 833 339 854 q 292 764 292 813 l 292 136 q 321 65 292 88 q 401 33 350 43 q 436 24 425 29 q 447 8 447 18 q 436 -3 447 0 q 407 -7 425 -7 q 345 -5 369 -7 q 299 -1 321 -3 q 244 0 276 0 q 184 -1 210 0 q 131 -5 158 -3 q 67 -7 104 -7 m 81 961 q 66 969 74 961 q 58 983 58 976 q 71 1007 58 989 q 102 1047 83 1025 q 140 1084 121 1068 q 172 1100 160 1100 q 222 1099 196 1100 q 267 1096 247 1099 q 314 1092 290 1094 q 356 1090 338 1090 q 385 1099 371 1090 q 410 1117 400 1107 q 426 1135 419 1126 q 438 1144 433 1144 q 456 1138 449 1144 q 464 1121 464 1132 q 458 1110 464 1117 q 444 1096 451 1103 q 410 1057 428 1079 q 379 1018 393 1035 q 357 1003 371 1008 q 339 999 343 999 q 308 1000 331 999 q 256 1004 285 1001 q 200 1008 226 1007 q 157 1010 174 1010 q 133 1005 147 1010 q 111 993 119 1000 q 91 972 99 983 q 81 961 83 961 z "},"J":{"ha":472,"x_min":-96,"x_max":417,"o":"m 47 -278 q -96 -210 -96 -278 q -76 -165 -96 -186 q -42 -144 -57 -144 q -7 -152 -24 -144 q 24 -179 10 -160 q 56 -211 42 -201 q 89 -221 71 -221 q 159 -162 138 -221 q 181 -1 181 -103 l 181 765 q 160 834 181 814 q 89 864 139 854 q 43 892 43 872 q 54 903 43 900 q 83 907 65 907 q 145 906 121 907 q 192 903 169 904 q 246 903 214 903 q 287 903 272 903 q 320 906 301 904 q 376 907 339 907 q 406 903 394 907 q 417 892 417 900 q 406 875 417 882 q 371 864 394 868 q 306 834 319 854 q 292 765 292 814 l 292 65 q 274 -44 292 7 q 230 -136 256 -96 q 182 -203 204 -176 q 121 -257 154 -236 q 47 -278 88 -278 z "},"Ĵ":{"ha":472,"x_min":-96,"x_max":429,"o":"m 47 -278 q -96 -210 -96 -278 q -76 -165 -96 -186 q -42 -144 -57 -144 q -7 -152 -24 -144 q 24 -179 10 -160 q 56 -211 42 -201 q 89 -221 71 -221 q 159 -162 138 -221 q 181 -1 181 -103 l 181 765 q 160 834 181 814 q 89 864 139 854 q 43 892 43 872 q 54 903 43 900 q 83 907 65 907 q 145 906 121 907 q 192 903 169 904 q 246 903 214 903 q 287 903 272 903 q 320 906 301 904 q 376 907 339 907 q 406 903 394 907 q 417 892 417 900 q 406 875 417 882 q 371 864 394 868 q 306 834 319 854 q 292 765 292 814 l 292 65 q 274 -44 292 7 q 230 -136 256 -96 q 182 -203 204 -176 q 121 -257 154 -236 q 47 -278 88 -278 m 46 967 q 25 981 25 967 q 35 997 25 989 l 171 1113 q 201 1136 190 1129 q 228 1143 213 1143 q 254 1136 243 1143 q 285 1113 265 1129 l 421 997 q 429 981 429 990 q 410 965 429 965 q 381 974 403 965 q 333 997 360 983 q 281 1022 306 1010 q 242 1043 256 1035 q 228 1049 232 1049 q 214 1043 224 1049 q 175 1022 200 1035 q 123 997 150 1010 q 74 976 96 985 q 46 967 53 967 z "},"K":{"ha":946,"x_min":43,"x_max":956,"o":"m 83 -7 q 54 -3 65 -7 q 43 8 43 0 q 89 33 43 25 q 162 66 142 43 q 182 140 182 89 l 182 765 q 162 834 182 814 q 89 864 142 854 q 43 892 43 872 q 54 903 43 900 q 83 907 65 907 q 144 906 121 907 q 188 905 167 906 q 239 904 208 904 q 281 905 265 904 q 317 906 297 906 q 374 907 336 907 q 403 903 392 907 q 414 892 414 900 q 403 875 414 882 q 368 864 392 868 q 305 830 317 854 q 293 765 293 806 l 293 506 q 294 490 293 500 q 300 479 294 479 q 319 488 307 479 q 338 504 331 496 l 615 788 q 631 809 626 799 q 636 829 636 819 q 610 861 636 854 q 576 874 586 868 q 567 889 567 879 q 578 901 567 897 q 607 904 589 904 l 682 904 q 771 906 722 904 q 859 908 819 907 q 907 910 899 910 q 929 906 921 910 q 938 894 938 901 q 926 878 938 885 q 892 867 915 871 q 785 836 840 857 q 681 775 729 815 q 588 694 631 733 q 504 612 546 654 q 414 515 463 569 q 421 490 406 507 l 757 132 q 806 81 788 99 q 848 52 825 63 q 910 33 871 42 q 944 23 933 28 q 956 8 956 18 q 944 -3 956 0 q 915 -7 933 -7 q 846 -5 875 -7 q 789 -1 817 -3 q 722 0 761 0 q 676 -1 696 0 q 610 -1 657 -1 q 581 2 592 -1 q 569 14 569 6 q 607 38 569 29 q 646 65 646 47 q 640 82 646 74 q 625 100 633 90 l 331 425 q 313 441 322 433 q 299 449 304 449 q 293 438 293 449 q 293 419 293 426 q 295 295 293 354 q 300 153 297 236 q 309 99 301 124 q 335 57 317 74 q 389 33 354 40 q 424 24 413 29 q 435 8 435 18 q 424 -3 435 0 q 394 -7 413 -7 q 337 -4 357 -7 q 301 1 317 -1 q 258 3 285 3 q 199 1 225 3 q 147 -4 174 -1 q 83 -7 121 -7 z "},"L":{"ha":811,"x_min":38,"x_max":799,"o":"m 76 -7 q 48 -2 58 -7 q 38 10 38 3 q 51 27 38 22 q 68 33 64 32 q 151 66 122 44 q 181 133 181 88 l 181 778 q 174 827 181 811 q 149 851 167 843 q 96 864 131 858 q 50 892 50 872 q 61 903 50 900 q 90 907 72 907 q 151 906 128 907 q 194 903 174 904 q 246 903 215 903 q 306 903 281 903 q 357 906 331 904 q 421 907 383 907 q 450 903 439 907 q 461 892 461 900 q 450 875 461 882 q 415 864 439 868 q 328 841 364 854 q 292 788 292 828 l 292 133 q 311 69 292 90 q 399 49 331 49 l 571 49 q 637 60 608 49 q 679 85 665 72 q 720 127 707 108 q 751 183 733 146 q 763 208 754 192 q 782 225 772 225 q 794 217 790 225 q 799 200 799 208 q 798 197 799 199 q 797 193 797 194 q 780 128 788 157 q 767 72 772 99 q 760 17 763 46 q 755 0 758 7 q 740 -7 751 -7 q 607 -6 671 -7 q 484 -3 543 -4 q 371 -1 425 -3 q 264 0 317 0 q 185 -1 229 0 q 109 -5 142 -3 q 76 -7 76 -7 z "},"Ĺ":{"ha":811,"x_min":38,"x_max":799,"o":"m 76 -7 q 48 -2 58 -7 q 38 10 38 3 q 51 27 38 22 q 68 33 64 32 q 151 66 122 44 q 181 133 181 88 l 181 778 q 174 827 181 811 q 149 851 167 843 q 96 864 131 858 q 50 892 50 872 q 61 903 50 900 q 90 907 72 907 q 151 906 128 907 q 194 903 174 904 q 246 903 215 903 q 306 903 281 903 q 357 906 331 904 q 421 907 383 907 q 450 903 439 907 q 461 892 461 900 q 450 875 461 882 q 415 864 439 868 q 328 841 364 854 q 292 788 292 828 l 292 133 q 311 69 292 90 q 399 49 331 49 l 571 49 q 637 60 608 49 q 679 85 665 72 q 720 127 707 108 q 751 183 733 146 q 763 208 754 192 q 782 225 772 225 q 794 217 790 225 q 799 200 799 208 q 798 197 799 199 q 797 193 797 194 q 780 128 788 157 q 767 72 772 99 q 760 17 763 46 q 755 0 758 7 q 740 -7 751 -7 q 607 -6 671 -7 q 484 -3 543 -4 q 371 -1 425 -3 q 264 0 317 0 q 185 -1 229 0 q 109 -5 142 -3 q 76 -7 76 -7 m 214 951 q 206 960 206 951 q 213 981 206 969 q 265 1064 238 1022 q 319 1146 292 1106 q 357 1164 332 1164 q 386 1160 367 1164 q 422 1149 406 1156 q 438 1132 438 1142 q 419 1106 438 1122 q 329 1033 379 1069 q 239 964 279 996 q 223 954 229 957 q 214 951 217 951 z "},"Ľ":{"ha":811,"x_min":38,"x_max":799,"o":"m 76 -7 q 48 -2 58 -7 q 38 10 38 3 q 51 27 38 22 q 68 33 64 32 q 151 66 122 44 q 181 133 181 88 l 181 778 q 174 827 181 811 q 149 851 167 843 q 96 864 131 858 q 50 892 50 872 q 61 903 50 900 q 90 907 72 907 q 151 906 128 907 q 194 903 174 904 q 246 903 215 903 q 306 903 281 903 q 357 906 331 904 q 421 907 383 907 q 450 903 439 907 q 461 892 461 900 q 450 875 461 882 q 415 864 439 868 q 328 841 364 854 q 292 788 292 828 l 292 133 q 311 69 292 90 q 399 49 331 49 l 571 49 q 637 60 608 49 q 679 85 665 72 q 720 127 707 108 q 751 183 733 146 q 763 208 754 192 q 782 225 772 225 q 794 217 790 225 q 799 200 799 208 q 798 197 799 199 q 797 193 797 194 q 780 128 788 157 q 767 72 772 99 q 760 17 763 46 q 755 0 758 7 q 740 -7 751 -7 q 607 -6 671 -7 q 484 -3 543 -4 q 371 -1 425 -3 q 264 0 317 0 q 185 -1 229 0 q 109 -5 142 -3 q 76 -7 76 -7 m 578 661 q 571 670 574 661 q 568 693 568 679 q 569 709 568 697 q 572 736 571 721 q 572 761 572 751 q 569 823 572 800 q 565 863 565 846 q 576 893 565 878 q 604 919 588 908 q 635 929 621 929 q 650 917 647 929 q 653 888 653 904 q 647 827 653 863 q 630 757 640 792 q 607 696 619 722 q 578 661 590 661 z "},"Ŀ":{"ha":811,"x_min":38,"x_max":799,"o":"m 76 -7 q 48 -2 58 -7 q 38 10 38 3 q 51 27 38 22 q 68 33 64 32 q 151 66 122 44 q 181 133 181 88 l 181 778 q 174 827 181 811 q 149 851 167 843 q 96 864 131 858 q 50 892 50 872 q 61 903 50 900 q 90 907 72 907 q 151 906 128 907 q 194 903 174 904 q 246 903 215 903 q 306 903 281 903 q 357 906 331 904 q 421 907 383 907 q 450 903 439 907 q 461 892 461 900 q 450 875 461 882 q 415 864 439 868 q 328 841 364 854 q 292 788 292 828 l 292 133 q 311 69 292 90 q 399 49 331 49 l 571 49 q 637 60 608 49 q 679 85 665 72 q 720 127 707 108 q 751 183 733 146 q 763 208 754 192 q 782 225 772 225 q 794 217 790 225 q 799 200 799 208 q 798 197 799 199 q 797 193 797 194 q 780 128 788 157 q 767 72 772 99 q 760 17 763 46 q 755 0 758 7 q 740 -7 751 -7 q 607 -6 671 -7 q 484 -3 543 -4 q 371 -1 425 -3 q 264 0 317 0 q 185 -1 229 0 q 109 -5 142 -3 q 76 -7 76 -7 m 657 436 q 608 456 628 436 q 588 506 588 476 q 608 556 588 536 q 657 576 628 576 q 708 556 688 576 q 728 506 728 536 q 708 456 728 476 q 657 436 688 436 z "},"Ł":{"ha":811,"x_min":38,"x_max":799,"o":"m 83 357 q 65 356 75 354 q 54 365 54 357 q 58 394 54 381 q 74 411 63 407 l 208 461 l 250 471 l 521 571 q 537 572 528 574 q 546 563 546 569 q 538 528 546 542 q 521 511 531 514 l 251 413 l 210 403 l 83 357 m 76 -7 q 48 -2 58 -7 q 38 10 38 3 q 51 27 38 22 q 68 33 64 32 q 151 66 122 44 q 181 133 181 88 l 181 778 q 174 827 181 811 q 149 851 167 843 q 96 864 131 858 q 50 892 50 872 q 61 903 50 900 q 90 907 72 907 q 151 906 128 907 q 194 903 174 904 q 246 903 215 903 q 306 903 281 903 q 357 906 331 904 q 421 907 383 907 q 450 903 439 907 q 461 892 461 900 q 450 875 461 882 q 415 864 439 868 q 328 841 364 854 q 292 788 292 828 l 292 133 q 311 69 292 90 q 399 49 331 49 l 571 49 q 637 60 608 49 q 679 85 665 72 q 720 127 707 108 q 751 183 733 146 q 763 208 754 192 q 782 225 772 225 q 794 217 790 225 q 799 200 799 208 q 798 197 799 199 q 797 193 797 194 q 780 128 788 157 q 767 72 772 99 q 760 17 763 46 q 755 0 758 7 q 740 -7 751 -7 q 607 -6 671 -7 q 484 -3 543 -4 q 371 -1 425 -3 q 264 0 317 0 q 185 -1 229 0 q 109 -5 142 -3 q 76 -7 76 -7 z "},"M":{"ha":1251,"x_min":26,"x_max":1201,"o":"m 67 -7 q 38 -3 49 -7 q 26 8 26 0 q 38 24 26 18 q 72 33 49 29 q 129 67 107 40 q 158 142 151 93 q 188 380 175 267 q 208 584 200 493 q 215 733 215 675 q 215 757 215 744 q 214 779 215 769 q 210 802 213 790 q 193 825 207 814 q 144 853 168 846 q 89 867 121 861 q 67 877 75 869 q 58 894 58 885 q 72 908 58 906 q 106 910 85 910 q 148 908 119 910 q 210 904 176 907 q 272 900 243 901 q 314 899 300 899 q 331 893 324 899 q 340 876 338 888 q 354 824 347 851 q 371 769 361 796 l 590 213 q 606 201 594 203 q 622 208 617 199 l 896 778 q 910 831 903 801 q 921 882 917 860 q 935 900 925 900 l 985 900 q 1073 906 1026 900 q 1143 911 1119 911 q 1161 909 1150 911 q 1172 897 1172 907 q 1165 882 1172 888 q 1136 868 1157 876 q 1096 853 1118 861 q 1054 836 1074 844 q 1031 817 1040 831 q 1021 789 1021 804 q 1024 606 1021 692 q 1032 442 1028 521 q 1042 288 1036 364 q 1051 132 1047 211 q 1079 66 1054 89 q 1156 33 1104 43 q 1190 24 1179 29 q 1201 8 1201 18 q 1190 -3 1201 0 q 1161 -7 1179 -7 q 1099 -5 1124 -7 q 1053 -1 1075 -3 q 999 0 1031 0 q 952 -1 971 0 q 912 -5 933 -3 q 853 -7 890 -7 q 824 -3 835 -7 q 813 8 813 0 q 824 24 813 18 q 858 33 835 31 q 914 62 899 39 q 929 133 929 85 q 927 314 929 233 q 921 473 925 394 q 913 644 917 551 q 904 659 911 660 q 890 644 897 658 l 571 -7 q 558 -15 568 -14 q 546 -6 549 -15 q 430 315 492 157 q 290 654 368 472 q 281 661 288 661 q 272 654 274 661 q 249 476 260 557 q 233 315 239 394 q 228 142 228 236 q 251 73 228 104 q 318 33 275 42 q 353 24 342 29 q 364 8 364 18 q 353 -3 364 0 q 324 -7 342 -7 q 267 -5 286 -7 q 234 -1 249 -3 q 193 0 219 0 q 154 -1 168 0 q 122 -5 140 -3 q 67 -7 104 -7 z "},"N":{"ha":1100,"x_min":17,"x_max":1086,"o":"m 928 -24 q 878 -3 915 -24 q 808 64 842 18 q 774 106 803 71 q 702 192 746 140 q 607 306 658 244 q 504 428 556 367 q 408 541 453 489 q 334 628 364 593 q 297 672 304 664 q 281 690 288 685 q 268 694 274 694 q 258 684 261 694 q 256 665 256 674 q 253 508 254 597 q 250 325 251 419 q 249 144 249 231 q 267 75 249 107 q 338 33 286 43 q 372 24 361 29 q 383 8 383 18 q 372 -3 383 0 q 343 -7 361 -7 q 287 -5 306 -7 q 253 -1 268 -3 q 213 0 239 0 q 174 -1 188 0 q 142 -5 160 -3 q 86 -7 124 -7 q 57 -3 68 -7 q 46 8 46 0 q 57 24 46 18 q 92 35 68 29 q 150 76 132 46 q 172 149 168 106 q 183 288 178 201 q 193 483 189 375 q 197 704 197 590 q 159 810 197 778 q 60 861 121 842 q 35 873 54 864 q 17 894 17 882 q 29 910 17 907 q 49 914 42 914 q 114 912 89 913 q 158 910 139 911 q 201 908 178 908 q 263 907 225 907 q 282 900 275 907 q 296 883 289 893 q 333 837 301 875 q 410 741 364 799 q 513 616 457 683 q 624 481 568 549 q 726 356 679 414 q 805 261 774 299 q 842 217 836 224 q 858 200 847 211 q 876 189 868 189 q 890 218 889 189 q 891 292 890 238 q 892 426 892 347 q 893 596 893 504 q 893 783 893 688 q 864 833 892 811 q 813 860 836 856 q 769 871 789 864 q 750 888 750 878 q 769 899 750 896 q 807 903 789 903 q 834 903 821 903 q 860 903 847 903 q 886 903 874 903 q 939 903 919 903 q 981 906 958 904 q 1046 907 1004 907 q 1075 903 1064 907 q 1086 892 1086 900 q 1040 864 1086 872 q 972 839 989 854 q 953 789 956 824 q 952 735 953 782 q 951 615 951 688 q 951 460 951 543 q 950 294 950 376 q 950 146 950 211 q 952 85 950 113 q 956 40 954 58 q 957 11 957 21 q 948 -17 957 -11 q 928 -24 939 -24 z "},"Ń":{"ha":1100,"x_min":17,"x_max":1086,"o":"m 928 -24 q 878 -3 915 -24 q 808 64 842 18 q 774 106 803 71 q 702 192 746 140 q 607 306 658 244 q 504 428 556 367 q 408 541 453 489 q 334 628 364 593 q 297 672 304 664 q 281 690 288 685 q 268 694 274 694 q 258 684 261 694 q 256 665 256 674 q 253 508 254 597 q 250 325 251 419 q 249 144 249 231 q 267 75 249 107 q 338 33 286 43 q 372 24 361 29 q 383 8 383 18 q 372 -3 383 0 q 343 -7 361 -7 q 287 -5 306 -7 q 253 -1 268 -3 q 213 0 239 0 q 174 -1 188 0 q 142 -5 160 -3 q 86 -7 124 -7 q 57 -3 68 -7 q 46 8 46 0 q 57 24 46 18 q 92 35 68 29 q 150 76 132 46 q 172 149 168 106 q 183 288 178 201 q 193 483 189 375 q 197 704 197 590 q 159 810 197 778 q 60 861 121 842 q 35 873 54 864 q 17 894 17 882 q 29 910 17 907 q 49 914 42 914 q 114 912 89 913 q 158 910 139 911 q 201 908 178 908 q 263 907 225 907 q 282 900 275 907 q 296 883 289 893 q 333 837 301 875 q 410 741 364 799 q 513 616 457 683 q 624 481 568 549 q 726 356 679 414 q 805 261 774 299 q 842 217 836 224 q 858 200 847 211 q 876 189 868 189 q 890 218 889 189 q 891 292 890 238 q 892 426 892 347 q 893 596 893 504 q 893 783 893 688 q 864 833 892 811 q 813 860 836 856 q 769 871 789 864 q 750 888 750 878 q 769 899 750 896 q 807 903 789 903 q 834 903 821 903 q 860 903 847 903 q 886 903 874 903 q 939 903 919 903 q 981 906 958 904 q 1046 907 1004 907 q 1075 903 1064 907 q 1086 892 1086 900 q 1040 864 1086 872 q 972 839 989 854 q 953 789 956 824 q 952 735 953 782 q 951 615 951 688 q 951 460 951 543 q 950 294 950 376 q 950 146 950 211 q 952 85 950 113 q 956 40 954 58 q 957 11 957 21 q 948 -17 957 -11 q 928 -24 939 -24 m 518 951 q 510 960 510 951 q 517 981 510 969 q 569 1064 542 1022 q 624 1146 596 1106 q 661 1164 636 1164 q 690 1160 671 1164 q 726 1149 710 1156 q 742 1132 742 1142 q 724 1106 742 1122 q 633 1033 683 1069 q 543 964 583 996 q 527 954 533 957 q 518 951 521 951 z "},"Ň":{"ha":1100,"x_min":17,"x_max":1086,"o":"m 928 -24 q 878 -3 915 -24 q 808 64 842 18 q 774 106 803 71 q 702 192 746 140 q 607 306 658 244 q 504 428 556 367 q 408 541 453 489 q 334 628 364 593 q 297 672 304 664 q 281 690 288 685 q 268 694 274 694 q 258 684 261 694 q 256 665 256 674 q 253 508 254 597 q 250 325 251 419 q 249 144 249 231 q 267 75 249 107 q 338 33 286 43 q 372 24 361 29 q 383 8 383 18 q 372 -3 383 0 q 343 -7 361 -7 q 287 -5 306 -7 q 253 -1 268 -3 q 213 0 239 0 q 174 -1 188 0 q 142 -5 160 -3 q 86 -7 124 -7 q 57 -3 68 -7 q 46 8 46 0 q 57 24 46 18 q 92 35 68 29 q 150 76 132 46 q 172 149 168 106 q 183 288 178 201 q 193 483 189 375 q 197 704 197 590 q 159 810 197 778 q 60 861 121 842 q 35 873 54 864 q 17 894 17 882 q 29 910 17 907 q 49 914 42 914 q 114 912 89 913 q 158 910 139 911 q 201 908 178 908 q 263 907 225 907 q 282 900 275 907 q 296 883 289 893 q 333 837 301 875 q 410 741 364 799 q 513 616 457 683 q 624 481 568 549 q 726 356 679 414 q 805 261 774 299 q 842 217 836 224 q 858 200 847 211 q 876 189 868 189 q 890 218 889 189 q 891 292 890 238 q 892 426 892 347 q 893 596 893 504 q 893 783 893 688 q 864 833 892 811 q 813 860 836 856 q 769 871 789 864 q 750 888 750 878 q 769 899 750 896 q 807 903 789 903 q 834 903 821 903 q 860 903 847 903 q 886 903 874 903 q 939 903 919 903 q 981 906 958 904 q 1046 907 1004 907 q 1075 903 1064 907 q 1086 892 1086 900 q 1040 864 1086 872 q 972 839 989 854 q 953 789 956 824 q 952 735 953 782 q 951 615 951 688 q 951 460 951 543 q 950 294 950 376 q 950 146 950 211 q 952 85 950 113 q 956 40 954 58 q 957 11 957 21 q 948 -17 957 -11 q 928 -24 939 -24 m 383 1142 q 412 1133 390 1142 q 460 1111 433 1124 q 513 1086 488 1099 q 551 1065 538 1074 q 565 1060 561 1060 q 579 1065 569 1060 q 618 1086 593 1074 q 670 1112 643 1099 q 719 1134 697 1125 q 747 1143 740 1143 q 767 1128 767 1143 q 758 1111 767 1118 l 622 1003 q 591 979 601 986 q 565 972 581 972 q 540 979 550 972 q 508 1003 529 986 l 372 1111 q 363 1128 363 1119 q 383 1142 363 1142 z "},"Ŋ":{"ha":1069,"x_min":24,"x_max":1076,"o":"m 751 -354 q 678 -325 706 -354 q 650 -251 650 -296 q 658 -225 650 -232 q 689 -217 665 -218 q 803 -192 764 -208 q 856 -148 842 -176 q 869 -76 869 -119 q 860 -26 869 -50 q 838 15 850 -1 q 802 59 832 22 q 726 153 772 96 q 627 276 681 210 q 519 408 574 342 q 419 531 465 474 q 342 626 372 588 q 304 672 311 664 q 288 690 294 685 q 275 694 281 694 q 265 684 268 694 q 263 665 263 674 q 260 508 261 597 q 257 325 258 419 q 256 144 256 231 q 274 75 256 107 q 344 33 293 43 q 379 24 368 29 q 390 8 390 18 q 379 -3 390 0 q 350 -7 368 -7 q 294 -5 313 -7 q 260 -1 275 -3 q 219 0 246 0 q 181 -1 194 0 q 149 -5 167 -3 q 93 -7 131 -7 q 64 -3 75 -7 q 53 8 53 0 q 64 24 53 18 q 99 33 75 29 q 142 63 125 39 q 169 114 160 88 q 179 149 178 140 q 192 288 186 201 q 201 483 197 375 q 204 704 204 590 q 166 810 204 778 q 67 861 128 842 q 42 873 61 864 q 24 894 24 882 q 36 910 24 907 q 56 914 49 914 q 121 912 96 913 q 165 910 146 911 q 208 908 185 908 q 269 907 232 907 q 289 900 282 907 q 303 883 296 893 q 338 837 308 875 q 414 741 368 799 q 513 616 460 683 q 620 481 567 549 q 719 356 674 414 q 796 261 765 299 q 832 217 826 224 q 848 200 838 211 q 867 189 858 189 q 881 218 879 189 q 881 292 881 238 q 883 426 882 347 q 883 596 883 504 q 883 783 883 688 q 854 833 882 811 q 803 860 826 856 q 768 871 779 864 q 757 888 757 878 q 768 899 757 896 q 797 903 779 903 q 824 903 811 903 q 851 903 838 903 q 876 903 864 903 q 929 903 910 903 q 972 906 949 904 q 1036 907 994 907 q 1065 903 1054 907 q 1076 892 1076 900 q 1031 864 1076 872 q 961 839 979 854 q 943 789 943 824 l 943 19 q 929 -119 943 -53 q 890 -239 915 -186 q 828 -323 864 -292 q 751 -354 793 -354 z "},"Ñ":{"ha":1100,"x_min":17,"x_max":1086,"o":"m 928 -24 q 878 -3 915 -24 q 808 64 842 18 q 774 106 803 71 q 702 192 746 140 q 607 306 658 244 q 504 428 556 367 q 408 541 453 489 q 334 628 364 593 q 297 672 304 664 q 281 690 288 685 q 268 694 274 694 q 258 684 261 694 q 256 665 256 674 q 253 508 254 597 q 250 325 251 419 q 249 144 249 231 q 267 75 249 107 q 338 33 286 43 q 372 24 361 29 q 383 8 383 18 q 372 -3 383 0 q 343 -7 361 -7 q 287 -5 306 -7 q 253 -1 268 -3 q 213 0 239 0 q 174 -1 188 0 q 142 -5 160 -3 q 86 -7 124 -7 q 57 -3 68 -7 q 46 8 46 0 q 57 24 46 18 q 92 35 68 29 q 150 76 132 46 q 172 149 168 106 q 183 288 178 201 q 193 483 189 375 q 197 704 197 590 q 159 810 197 778 q 60 861 121 842 q 35 873 54 864 q 17 894 17 882 q 29 910 17 907 q 49 914 42 914 q 114 912 89 913 q 158 910 139 911 q 201 908 178 908 q 263 907 225 907 q 282 900 275 907 q 296 883 289 893 q 333 837 301 875 q 410 741 364 799 q 513 616 457 683 q 624 481 568 549 q 726 356 679 414 q 805 261 774 299 q 842 217 836 224 q 858 200 847 211 q 876 189 868 189 q 890 218 889 189 q 891 292 890 238 q 892 426 892 347 q 893 596 893 504 q 893 783 893 688 q 864 833 892 811 q 813 860 836 856 q 769 871 789 864 q 750 888 750 878 q 769 899 750 896 q 807 903 789 903 q 834 903 821 903 q 860 903 847 903 q 886 903 874 903 q 939 903 919 903 q 981 906 958 904 q 1046 907 1004 907 q 1075 903 1064 907 q 1086 892 1086 900 q 1040 864 1086 872 q 972 839 989 854 q 953 789 956 824 q 952 735 953 782 q 951 615 951 688 q 951 460 951 543 q 950 294 950 376 q 950 146 950 211 q 952 85 950 113 q 956 40 954 58 q 957 11 957 21 q 948 -17 957 -11 q 928 -24 939 -24 m 408 961 q 394 969 401 961 q 386 983 386 976 q 399 1007 386 989 q 430 1047 411 1025 q 468 1084 449 1068 q 500 1100 488 1100 q 549 1099 524 1100 q 594 1096 575 1099 q 642 1092 618 1094 q 683 1090 665 1090 q 713 1099 699 1090 q 738 1117 728 1107 q 754 1135 747 1126 q 765 1144 761 1144 q 784 1138 776 1144 q 792 1121 792 1132 q 785 1110 792 1117 q 772 1096 779 1103 q 738 1057 756 1079 q 707 1018 721 1035 q 685 1003 699 1008 q 667 999 671 999 q 635 1000 658 999 q 583 1004 613 1001 q 528 1008 554 1007 q 485 1010 501 1010 q 461 1005 475 1010 q 439 993 447 1000 q 419 972 426 983 q 408 961 411 961 z "},"O":{"ha":1060,"x_min":63,"x_max":997,"o":"m 524 -19 q 349 13 432 -19 q 201 106 265 46 q 100 251 138 167 q 63 438 63 335 q 93 619 63 532 q 183 774 124 706 q 332 882 243 842 q 536 922 421 922 q 711 890 628 922 q 858 797 794 857 q 960 652 922 736 q 997 465 997 568 q 967 285 997 372 q 876 129 936 197 q 728 21 817 61 q 524 -19 639 -19 m 544 36 q 722 81 651 36 q 828 208 793 126 q 864 397 864 289 q 842 578 864 493 q 776 727 819 663 q 667 828 732 792 q 514 864 601 864 q 339 819 410 864 q 232 695 268 775 q 196 507 196 615 q 217 325 196 410 q 283 175 239 240 q 392 73 326 110 q 544 36 457 36 z "},"Ó":{"ha":1060,"x_min":63,"x_max":997,"o":"m 524 -19 q 349 13 432 -19 q 201 106 265 46 q 100 251 138 167 q 63 438 63 335 q 93 619 63 532 q 183 774 124 706 q 332 882 243 842 q 536 922 421 922 q 711 890 628 922 q 858 797 794 857 q 960 652 922 736 q 997 465 997 568 q 967 285 997 372 q 876 129 936 197 q 728 21 817 61 q 524 -19 639 -19 m 544 36 q 722 81 651 36 q 828 208 793 126 q 864 397 864 289 q 842 578 864 493 q 776 727 819 663 q 667 828 732 792 q 514 864 601 864 q 339 819 410 864 q 232 695 268 775 q 196 507 196 615 q 217 325 196 410 q 283 175 239 240 q 392 73 326 110 q 544 36 457 36 m 497 951 q 489 960 489 951 q 496 981 489 969 q 548 1064 521 1022 q 603 1146 575 1106 q 640 1164 615 1164 q 669 1160 650 1164 q 705 1149 689 1156 q 721 1132 721 1142 q 703 1106 721 1122 q 613 1033 663 1069 q 522 964 563 996 q 506 954 513 957 q 497 951 500 951 z "},"Ŏ":{"ha":1060,"x_min":63,"x_max":997,"o":"m 524 -19 q 349 13 432 -19 q 201 106 265 46 q 100 251 138 167 q 63 438 63 335 q 93 619 63 532 q 183 774 124 706 q 332 882 243 842 q 536 922 421 922 q 711 890 628 922 q 858 797 794 857 q 960 652 922 736 q 997 465 997 568 q 967 285 997 372 q 876 129 936 197 q 728 21 817 61 q 524 -19 639 -19 m 544 36 q 722 81 651 36 q 828 208 793 126 q 864 397 864 289 q 842 578 864 493 q 776 727 819 663 q 667 828 732 792 q 514 864 601 864 q 339 819 410 864 q 232 695 268 775 q 196 507 196 615 q 217 325 196 410 q 283 175 239 240 q 392 73 326 110 q 544 36 457 36 m 543 961 q 442 985 485 961 q 376 1044 399 1010 q 353 1106 353 1078 q 357 1129 353 1119 q 367 1139 361 1139 q 386 1128 378 1139 q 400 1110 394 1118 q 463 1060 428 1076 q 543 1044 499 1044 q 623 1060 588 1044 q 686 1110 658 1076 q 701 1128 693 1118 q 719 1139 710 1139 q 732 1129 731 1139 q 733 1106 733 1119 q 710 1044 733 1078 q 645 985 688 1010 q 543 961 603 961 z "},"Ô":{"ha":1060,"x_min":63,"x_max":997,"o":"m 524 -19 q 349 13 432 -19 q 201 106 265 46 q 100 251 138 167 q 63 438 63 335 q 93 619 63 532 q 183 774 124 706 q 332 882 243 842 q 536 922 421 922 q 711 890 628 922 q 858 797 794 857 q 960 652 922 736 q 997 465 997 568 q 967 285 997 372 q 876 129 936 197 q 728 21 817 61 q 524 -19 639 -19 m 544 36 q 722 81 651 36 q 828 208 793 126 q 864 397 864 289 q 842 578 864 493 q 776 727 819 663 q 667 828 732 792 q 514 864 601 864 q 339 819 410 864 q 232 695 268 775 q 196 507 196 615 q 217 325 196 410 q 283 175 239 240 q 392 73 326 110 q 544 36 457 36 m 361 967 q 340 981 340 967 q 350 997 340 989 l 486 1113 q 517 1136 506 1129 q 543 1143 528 1143 q 569 1136 558 1143 q 600 1113 581 1129 l 736 997 q 744 981 744 990 q 725 965 744 965 q 697 974 718 965 q 648 997 675 983 q 596 1022 621 1010 q 557 1043 571 1035 q 543 1049 547 1049 q 529 1043 539 1049 q 490 1022 515 1035 q 438 997 465 1010 q 390 976 411 985 q 361 967 368 967 z "},"Ö":{"ha":1060,"x_min":63,"x_max":997,"o":"m 524 -19 q 349 13 432 -19 q 201 106 265 46 q 100 251 138 167 q 63 438 63 335 q 93 619 63 532 q 183 774 124 706 q 332 882 243 842 q 536 922 421 922 q 711 890 628 922 q 858 797 794 857 q 960 652 922 736 q 997 465 997 568 q 967 285 997 372 q 876 129 936 197 q 728 21 817 61 q 524 -19 639 -19 m 544 36 q 722 81 651 36 q 828 208 793 126 q 864 397 864 289 q 842 578 864 493 q 776 727 819 663 q 667 828 732 792 q 514 864 601 864 q 339 819 410 864 q 232 695 268 775 q 196 507 196 615 q 217 325 196 410 q 283 175 239 240 q 392 73 326 110 q 544 36 457 36 m 679 965 q 630 985 650 965 q 610 1035 610 1006 q 630 1084 610 1064 q 679 1104 650 1104 q 728 1084 708 1104 q 749 1035 749 1064 q 728 985 749 1006 q 679 965 708 965 m 408 965 q 359 985 379 965 q 339 1035 339 1006 q 359 1084 339 1064 q 408 1104 379 1104 q 458 1084 438 1104 q 478 1035 478 1064 q 458 985 478 1006 q 408 965 438 965 z "},"Ò":{"ha":1060,"x_min":63,"x_max":997,"o":"m 588 951 q 578 954 585 951 q 563 964 572 957 q 472 1033 522 996 q 382 1106 422 1069 q 364 1132 364 1122 q 380 1149 364 1142 q 415 1160 396 1156 q 444 1164 435 1164 q 482 1146 469 1164 q 537 1064 510 1106 q 589 981 564 1022 q 596 960 596 969 q 588 951 596 951 m 524 -19 q 349 13 432 -19 q 201 106 265 46 q 100 251 138 167 q 63 438 63 335 q 93 619 63 532 q 183 774 124 706 q 332 882 243 842 q 536 922 421 922 q 711 890 628 922 q 858 797 794 857 q 960 652 922 736 q 997 465 997 568 q 967 285 997 372 q 876 129 936 197 q 728 21 817 61 q 524 -19 639 -19 m 544 36 q 722 81 651 36 q 828 208 793 126 q 864 397 864 289 q 842 578 864 493 q 776 727 819 663 q 667 828 732 792 q 514 864 601 864 q 339 819 410 864 q 232 695 268 775 q 196 507 196 615 q 217 325 196 410 q 283 175 239 240 q 392 73 326 110 q 544 36 457 36 z "},"Ơ":{"ha":1060,"x_min":63,"x_max":1079,"o":"m 531 -19 q 354 15 439 -19 q 204 113 269 50 q 101 261 139 176 q 63 444 63 346 q 93 624 63 539 q 183 777 124 710 q 329 883 242 844 q 531 922 417 922 q 692 903 629 922 q 803 861 756 883 q 872 831 839 844 q 942 818 904 818 q 985 829 968 818 q 1001 854 1001 840 q 995 874 1001 867 q 975 886 989 881 q 953 897 964 890 q 943 921 943 904 q 958 957 943 939 q 992 988 972 975 q 1026 1001 1011 1001 q 1052 988 1040 1001 q 1072 956 1064 975 q 1079 918 1079 936 q 1058 840 1079 876 q 1003 782 1038 804 q 926 760 968 760 q 909 753 913 760 q 908 742 906 747 q 974 617 950 679 q 997 465 997 556 q 967 285 997 372 q 878 129 938 197 q 732 21 819 61 q 531 -19 644 -19 m 549 35 q 784 140 706 35 q 863 424 863 246 q 840 604 863 522 q 775 745 818 686 q 668 836 732 804 q 521 868 604 868 q 384 836 444 868 q 282 750 324 804 q 219 628 240 696 q 197 486 197 560 q 223 316 197 397 q 296 172 249 235 q 408 72 343 108 q 549 35 472 35 z "},"Ő":{"ha":1060,"x_min":63,"x_max":997,"o":"m 524 -19 q 349 13 432 -19 q 201 106 265 46 q 100 251 138 167 q 63 438 63 335 q 93 619 63 532 q 183 774 124 706 q 332 882 243 842 q 536 922 421 922 q 711 890 628 922 q 858 797 794 857 q 960 652 922 736 q 997 465 997 568 q 967 285 997 372 q 876 129 936 197 q 728 21 817 61 q 524 -19 639 -19 m 544 36 q 722 81 651 36 q 828 208 793 126 q 864 397 864 289 q 842 578 864 493 q 776 727 819 663 q 667 828 732 792 q 514 864 601 864 q 339 819 410 864 q 232 695 268 775 q 196 507 196 615 q 217 325 196 410 q 283 175 239 240 q 392 73 326 110 q 544 36 457 36 m 586 951 q 578 960 578 951 q 585 981 578 969 q 637 1064 610 1022 q 692 1146 664 1106 q 729 1164 704 1164 q 758 1160 739 1164 q 794 1149 778 1156 q 810 1132 810 1142 q 792 1106 810 1122 q 701 1033 751 1069 q 611 964 651 996 q 595 954 601 957 q 586 951 589 951 m 403 951 q 394 960 394 951 q 401 981 394 969 q 453 1064 426 1022 q 508 1146 481 1106 q 546 1164 521 1164 q 575 1160 556 1164 q 610 1149 594 1156 q 626 1132 626 1142 q 608 1106 626 1122 q 518 1033 568 1069 q 428 964 468 996 q 412 954 418 957 q 403 951 406 951 z "},"Ō":{"ha":1060,"x_min":63,"x_max":997,"o":"m 524 -19 q 349 13 432 -19 q 201 106 265 46 q 100 251 138 167 q 63 438 63 335 q 93 619 63 532 q 183 774 124 706 q 332 882 243 842 q 536 922 421 922 q 711 890 628 922 q 858 797 794 857 q 960 652 922 736 q 997 465 997 568 q 967 285 997 372 q 876 129 936 197 q 728 21 817 61 q 524 -19 639 -19 m 544 36 q 722 81 651 36 q 828 208 793 126 q 864 397 864 289 q 842 578 864 493 q 776 727 819 663 q 667 828 732 792 q 514 864 601 864 q 339 819 410 864 q 232 695 268 775 q 196 507 196 615 q 217 325 196 410 q 283 175 239 240 q 392 73 326 110 q 544 36 457 36 m 360 1004 q 347 1010 353 1004 q 340 1021 340 1015 q 343 1042 340 1028 q 353 1067 346 1056 q 374 1079 361 1079 l 739 1079 q 751 1074 746 1079 q 757 1063 757 1069 q 744 1023 757 1042 q 714 1004 731 1004 l 360 1004 z "},"Ø":{"ha":1074,"x_min":58,"x_max":999,"o":"m 97 -19 q 71 -10 83 -19 q 58 8 58 -1 q 72 36 58 22 l 961 914 q 980 919 968 921 q 994 908 992 918 q 997 899 996 904 q 999 888 999 893 q 997 874 999 881 q 989 863 994 868 l 110 -15 q 105 -18 108 -17 q 97 -19 101 -19 m 524 -19 q 349 13 432 -19 q 201 106 265 46 q 100 251 138 167 q 63 438 63 335 q 93 619 63 532 q 183 774 124 706 q 332 882 243 842 q 536 922 421 922 q 711 890 628 922 q 858 797 794 857 q 960 652 922 736 q 997 465 997 568 q 967 285 997 372 q 876 129 936 197 q 728 21 817 61 q 524 -19 639 -19 m 544 36 q 722 81 651 36 q 828 208 793 126 q 864 397 864 289 q 842 578 864 493 q 776 727 819 663 q 667 828 732 792 q 514 864 601 864 q 339 819 410 864 q 232 695 268 775 q 196 507 196 615 q 217 325 196 410 q 283 175 239 240 q 392 73 326 110 q 544 36 457 36 z "},"Ǿ":{"ha":1074,"x_min":58,"x_max":999,"o":"m 97 -19 q 71 -10 83 -19 q 58 8 58 -1 q 72 36 58 22 l 961 914 q 980 919 968 921 q 994 908 992 918 q 997 899 996 904 q 999 888 999 893 q 997 874 999 881 q 989 863 994 868 l 110 -15 q 105 -18 108 -17 q 97 -19 101 -19 m 524 -19 q 349 13 432 -19 q 201 106 265 46 q 100 251 138 167 q 63 438 63 335 q 93 619 63 532 q 183 774 124 706 q 332 882 243 842 q 536 922 421 922 q 711 890 628 922 q 858 797 794 857 q 960 652 922 736 q 997 465 997 568 q 967 285 997 372 q 876 129 936 197 q 728 21 817 61 q 524 -19 639 -19 m 544 36 q 722 81 651 36 q 828 208 793 126 q 864 397 864 289 q 842 578 864 493 q 776 727 819 663 q 667 828 732 792 q 514 864 601 864 q 339 819 410 864 q 232 695 268 775 q 196 507 196 615 q 217 325 196 410 q 283 175 239 240 q 392 73 326 110 q 544 36 457 36 m 497 951 q 489 960 489 951 q 496 981 489 969 q 548 1064 521 1022 q 603 1146 575 1106 q 640 1164 615 1164 q 669 1160 650 1164 q 705 1149 689 1156 q 721 1132 721 1142 q 703 1106 721 1122 q 613 1033 663 1069 q 522 964 563 996 q 506 954 513 957 q 497 951 500 951 z "},"Õ":{"ha":1060,"x_min":63,"x_max":997,"o":"m 524 -19 q 349 13 432 -19 q 201 106 265 46 q 100 251 138 167 q 63 438 63 335 q 93 619 63 532 q 183 774 124 706 q 332 882 243 842 q 536 922 421 922 q 711 890 628 922 q 858 797 794 857 q 960 652 922 736 q 997 465 997 568 q 967 285 997 372 q 876 129 936 197 q 728 21 817 61 q 524 -19 639 -19 m 544 36 q 722 81 651 36 q 828 208 793 126 q 864 397 864 289 q 842 578 864 493 q 776 727 819 663 q 667 828 732 792 q 514 864 601 864 q 339 819 410 864 q 232 695 268 775 q 196 507 196 615 q 217 325 196 410 q 283 175 239 240 q 392 73 326 110 q 544 36 457 36 m 388 961 q 373 969 381 961 q 365 983 365 976 q 378 1007 365 989 q 409 1047 390 1025 q 447 1084 428 1068 q 479 1100 467 1100 q 528 1099 503 1100 q 574 1096 554 1099 q 621 1092 597 1094 q 663 1090 644 1090 q 692 1099 678 1090 q 717 1117 707 1107 q 733 1135 726 1126 q 744 1144 740 1144 q 763 1138 756 1144 q 771 1121 771 1132 q 765 1110 771 1117 q 751 1096 758 1103 q 717 1057 735 1079 q 686 1018 700 1035 q 664 1003 678 1008 q 646 999 650 999 q 615 1000 638 999 q 563 1004 592 1001 q 507 1008 533 1007 q 464 1010 481 1010 q 440 1005 454 1010 q 418 993 426 1000 q 398 972 406 983 q 388 961 390 961 z "},"Œ":{"ha":1315,"x_min":63,"x_max":1281,"o":"m 524 -19 q 349 13 432 -19 q 201 106 265 46 q 100 251 138 167 q 63 438 63 335 q 93 619 63 532 q 183 774 124 706 q 332 882 243 842 q 536 922 421 922 q 674 902 607 922 q 796 846 740 882 l 733 732 q 701 820 733 792 q 618 857 668 849 q 514 865 568 865 q 278 760 358 865 q 199 479 199 656 q 238 249 199 349 q 355 92 278 149 q 543 36 432 36 q 683 53 633 36 q 733 128 733 69 l 796 60 q 674 1 742 22 q 524 -19 606 -19 m 624 -7 q 594 -3 606 -7 q 583 8 583 0 q 629 33 583 25 q 707 65 682 43 q 732 138 732 88 l 732 763 q 712 833 732 813 q 639 864 692 854 q 604 875 615 868 q 593 892 593 882 q 604 903 593 900 q 633 907 615 907 q 723 906 686 907 q 795 903 760 904 q 879 903 831 903 q 976 903 925 903 q 1069 904 1026 904 q 1149 906 1117 906 q 1188 907 1182 907 q 1203 904 1194 907 q 1213 894 1211 901 q 1226 817 1219 856 q 1233 751 1233 779 q 1227 735 1233 739 q 1214 731 1221 731 q 1204 734 1207 731 q 1199 744 1201 738 q 1185 790 1192 768 q 1168 821 1178 811 q 1125 851 1149 843 q 1075 858 1101 858 l 893 858 q 863 846 882 858 q 843 814 843 833 l 843 519 q 851 498 843 507 q 868 489 858 489 l 1006 489 q 1061 503 1046 489 q 1086 557 1076 518 q 1111 588 1094 588 q 1123 582 1117 588 q 1129 565 1129 576 q 1128 540 1129 560 q 1126 500 1128 521 q 1125 468 1125 479 q 1126 431 1125 454 q 1127 388 1126 408 q 1128 361 1128 367 q 1126 344 1128 351 q 1115 338 1124 338 q 1083 382 1094 338 q 1061 429 1075 414 q 1019 444 1047 444 l 890 444 q 855 438 867 444 q 843 408 843 432 l 843 142 q 865 69 843 89 q 935 49 888 49 l 1038 49 q 1112 53 1082 49 q 1164 72 1142 58 q 1203 113 1186 88 q 1243 179 1221 138 q 1253 193 1247 188 q 1265 197 1258 199 q 1276 191 1272 196 q 1281 178 1281 186 q 1274 134 1281 165 q 1256 69 1267 103 q 1238 17 1246 36 q 1230 0 1233 7 q 1218 -7 1226 -7 q 1094 -6 1151 -7 q 986 -3 1038 -4 q 885 0 935 -1 q 783 1 836 1 q 731 -1 753 1 q 685 -5 708 -3 q 624 -7 661 -7 z "},"P":{"ha":767,"x_min":33,"x_max":732,"o":"m 74 -7 q 44 -3 56 -7 q 33 8 33 0 q 79 33 33 25 q 156 65 132 43 q 181 139 181 88 l 181 725 q 165 821 181 788 q 96 864 149 854 q 61 875 72 868 q 50 892 50 882 q 61 903 50 900 q 90 907 72 907 q 147 907 128 907 q 182 906 165 907 q 226 906 199 906 q 283 908 254 906 q 336 912 311 910 q 381 914 361 914 q 635 849 539 914 q 732 667 732 783 q 699 510 732 582 q 597 396 665 439 q 421 353 528 353 q 374 362 390 353 q 358 379 358 371 q 366 392 358 385 q 381 399 374 399 q 402 397 388 399 q 444 396 417 396 q 570 465 528 396 q 613 657 613 535 q 547 822 613 768 q 381 875 482 875 q 317 862 342 875 q 292 817 292 849 l 292 154 q 313 74 292 104 q 385 33 333 43 q 419 24 408 29 q 431 8 431 18 q 419 -3 431 0 q 390 -7 408 -7 q 333 -4 353 -7 q 297 1 313 -1 q 254 3 281 3 q 192 1 219 3 q 138 -4 165 -1 q 74 -7 111 -7 z "},"Þ":{"ha":776,"x_min":31,"x_max":721,"o":"m 71 -7 q 42 -3 53 -7 q 31 8 31 0 q 76 33 31 25 q 158 65 129 43 q 186 138 186 88 l 186 763 q 173 828 186 803 q 107 864 160 854 q 61 892 61 872 q 72 903 61 900 q 101 907 83 907 q 160 906 139 907 q 199 903 181 904 q 246 903 218 903 q 301 903 278 903 q 349 906 324 904 q 411 907 374 907 q 440 903 429 907 q 451 892 451 900 q 440 875 451 882 q 406 864 429 868 q 326 833 354 854 q 297 763 297 813 l 297 739 q 299 719 297 728 q 306 711 300 711 q 315 713 308 711 q 330 717 322 715 q 338 718 338 718 q 383 726 357 724 q 438 728 410 728 q 581 697 517 728 q 683 609 646 667 q 721 468 721 551 q 669 303 721 367 q 535 209 618 239 q 356 179 451 179 q 330 181 342 179 q 308 183 318 183 q 297 171 297 183 l 297 133 q 326 67 297 90 q 407 33 356 43 q 442 24 431 29 q 453 8 453 18 q 442 -3 453 0 q 413 -7 431 -7 q 351 -5 375 -7 q 304 -1 326 -3 q 250 0 282 0 q 189 -1 215 0 q 135 -5 163 -3 q 71 -7 108 -7 m 368 219 q 540 288 479 219 q 601 465 601 356 q 582 576 601 525 q 522 658 563 626 q 415 689 481 689 q 341 681 367 689 q 306 651 315 674 q 297 583 297 628 l 297 300 q 319 238 297 257 q 368 219 342 219 z "},"Q":{"ha":1060,"x_min":63,"x_max":1221,"o":"m 1033 -344 q 863 -316 933 -344 q 726 -240 793 -287 q 624 -166 672 -201 q 507 -75 575 -131 q 417 -17 458 -35 q 347 14 376 0 q 239 78 290 40 q 148 167 188 115 q 85 285 108 218 q 63 438 63 353 q 93 619 63 532 q 183 774 124 706 q 332 882 243 842 q 536 922 421 922 q 711 890 628 922 q 858 797 794 857 q 960 652 922 736 q 997 465 997 568 q 959 264 997 360 q 846 97 921 168 q 660 -3 771 26 q 649 -12 649 -6 q 654 -25 649 -19 q 737 -105 694 -68 q 831 -179 779 -142 q 960 -248 900 -229 q 1101 -267 1021 -267 q 1148 -264 1126 -267 q 1179 -257 1169 -261 q 1193 -253 1186 -254 q 1206 -251 1200 -251 q 1221 -262 1221 -251 q 1216 -282 1221 -275 q 1196 -299 1211 -289 q 1115 -333 1157 -322 q 1033 -344 1072 -344 m 544 36 q 784 135 704 36 q 864 397 864 233 q 842 578 864 493 q 776 727 819 663 q 667 828 732 792 q 514 864 601 864 q 276 767 357 864 q 196 507 196 669 q 217 325 196 410 q 283 175 239 240 q 392 73 326 110 q 544 36 457 36 z "},"R":{"ha":990,"x_min":33,"x_max":997,"o":"m 885 -29 q 811 -23 846 -29 q 747 0 776 -17 q 693 46 718 17 q 629 126 660 88 q 565 214 599 164 q 482 342 531 264 q 422 396 461 376 q 362 417 392 411 q 313 425 332 424 q 297 418 301 426 q 292 397 292 410 l 292 153 q 313 76 292 108 q 385 33 333 43 q 419 24 408 29 q 431 8 431 18 q 419 -3 431 0 q 390 -7 408 -7 q 333 -4 353 -7 q 297 1 313 -1 q 254 3 281 3 q 192 1 219 3 q 138 -4 165 -1 q 74 -7 111 -7 q 44 -3 56 -7 q 33 8 33 0 q 79 33 33 25 q 156 65 132 43 q 181 139 181 88 l 181 731 q 176 810 181 783 q 153 849 171 838 q 96 864 136 860 q 61 874 72 867 q 50 892 50 882 q 61 903 50 900 q 90 907 72 907 q 147 907 128 907 q 182 906 165 907 q 226 906 199 906 q 274 908 253 906 q 320 911 294 910 q 386 913 346 913 q 619 856 539 913 q 699 685 699 799 q 674 577 699 622 q 611 501 649 532 q 535 451 574 471 q 530 445 529 450 q 535 433 531 440 q 617 310 578 368 q 704 196 657 251 q 817 81 751 140 q 890 42 853 49 q 976 35 928 35 q 997 19 997 35 q 976 -12 997 -1 q 929 -26 956 -22 q 885 -29 903 -29 m 365 457 q 476 486 429 457 q 548 563 522 515 q 574 663 574 610 q 559 767 574 719 q 501 842 544 814 q 369 871 457 871 q 311 842 325 871 q 294 742 297 814 q 292 648 293 707 q 292 506 292 589 q 311 464 292 471 q 365 457 331 457 z "},"Ŕ":{"ha":990,"x_min":33,"x_max":997,"o":"m 885 -29 q 811 -23 846 -29 q 747 0 776 -17 q 693 46 718 17 q 629 126 660 88 q 565 214 599 164 q 482 342 531 264 q 422 396 461 376 q 362 417 392 411 q 313 425 332 424 q 297 418 301 426 q 292 397 292 410 l 292 153 q 313 76 292 108 q 385 33 333 43 q 419 24 408 29 q 431 8 431 18 q 419 -3 431 0 q 390 -7 408 -7 q 333 -4 353 -7 q 297 1 313 -1 q 254 3 281 3 q 192 1 219 3 q 138 -4 165 -1 q 74 -7 111 -7 q 44 -3 56 -7 q 33 8 33 0 q 79 33 33 25 q 156 65 132 43 q 181 139 181 88 l 181 731 q 176 810 181 783 q 153 849 171 838 q 96 864 136 860 q 61 874 72 867 q 50 892 50 882 q 61 903 50 900 q 90 907 72 907 q 147 907 128 907 q 182 906 165 907 q 226 906 199 906 q 274 908 253 906 q 320 911 294 910 q 386 913 346 913 q 619 856 539 913 q 699 685 699 799 q 674 577 699 622 q 611 501 649 532 q 535 451 574 471 q 530 445 529 450 q 535 433 531 440 q 617 310 578 368 q 704 196 657 251 q 817 81 751 140 q 890 42 853 49 q 976 35 928 35 q 997 19 997 35 q 976 -12 997 -1 q 929 -26 956 -22 q 885 -29 903 -29 m 365 457 q 476 486 429 457 q 548 563 522 515 q 574 663 574 610 q 559 767 574 719 q 501 842 544 814 q 369 871 457 871 q 311 842 325 871 q 294 742 297 814 q 292 648 293 707 q 292 506 292 589 q 311 464 292 471 q 365 457 331 457 m 346 951 q 338 960 338 951 q 344 981 338 969 q 397 1064 369 1022 q 451 1146 424 1106 q 489 1164 464 1164 q 518 1160 499 1164 q 553 1149 538 1156 q 569 1132 569 1142 q 551 1106 569 1122 q 461 1033 511 1069 q 371 964 411 996 q 355 954 361 957 q 346 951 349 951 z "},"Ř":{"ha":990,"x_min":33,"x_max":997,"o":"m 885 -29 q 811 -23 846 -29 q 747 0 776 -17 q 693 46 718 17 q 629 126 660 88 q 565 214 599 164 q 482 342 531 264 q 422 396 461 376 q 362 417 392 411 q 313 425 332 424 q 297 418 301 426 q 292 397 292 410 l 292 153 q 313 76 292 108 q 385 33 333 43 q 419 24 408 29 q 431 8 431 18 q 419 -3 431 0 q 390 -7 408 -7 q 333 -4 353 -7 q 297 1 313 -1 q 254 3 281 3 q 192 1 219 3 q 138 -4 165 -1 q 74 -7 111 -7 q 44 -3 56 -7 q 33 8 33 0 q 79 33 33 25 q 156 65 132 43 q 181 139 181 88 l 181 731 q 176 810 181 783 q 153 849 171 838 q 96 864 136 860 q 61 874 72 867 q 50 892 50 882 q 61 903 50 900 q 90 907 72 907 q 147 907 128 907 q 182 906 165 907 q 226 906 199 906 q 274 908 253 906 q 320 911 294 910 q 386 913 346 913 q 619 856 539 913 q 699 685 699 799 q 674 577 699 622 q 611 501 649 532 q 535 451 574 471 q 530 445 529 450 q 535 433 531 440 q 617 310 578 368 q 704 196 657 251 q 817 81 751 140 q 890 42 853 49 q 976 35 928 35 q 997 19 997 35 q 976 -12 997 -1 q 929 -26 956 -22 q 885 -29 903 -29 m 365 457 q 476 486 429 457 q 548 563 522 515 q 574 663 574 610 q 559 767 574 719 q 501 842 544 814 q 369 871 457 871 q 311 842 325 871 q 294 742 297 814 q 292 648 293 707 q 292 506 292 589 q 311 464 292 471 q 365 457 331 457 m 211 1142 q 240 1133 218 1142 q 288 1111 261 1124 q 340 1086 315 1099 q 379 1065 365 1074 q 393 1060 389 1060 q 407 1065 397 1060 q 446 1086 421 1074 q 498 1112 471 1099 q 547 1134 525 1125 q 575 1143 568 1143 q 594 1128 594 1143 q 586 1111 594 1118 l 450 1003 q 419 979 429 986 q 393 972 408 972 q 367 979 378 972 q 336 1003 357 986 l 200 1111 q 190 1128 190 1119 q 211 1142 190 1142 z "},"S":{"ha":646,"x_min":56,"x_max":586,"o":"m 283 -22 q 176 -5 225 -22 q 88 44 126 13 q 77 57 82 50 q 69 72 72 64 q 60 144 63 100 q 56 218 58 189 q 64 233 56 228 q 83 238 72 238 q 97 234 90 238 q 106 222 104 231 q 188 69 133 115 q 303 24 243 24 q 389 44 351 24 q 448 103 426 65 q 469 193 469 142 q 451 285 469 250 q 397 347 432 321 q 313 404 363 374 q 206 474 258 439 q 118 556 153 510 q 83 669 83 603 q 115 797 83 740 q 212 888 147 854 q 374 922 276 922 q 460 912 424 922 q 519 892 497 901 q 538 878 531 888 q 549 857 546 868 q 567 790 557 828 q 576 719 576 753 q 556 704 576 704 q 531 710 543 704 q 517 724 519 715 q 449 836 488 797 q 350 875 410 875 q 272 860 308 875 q 213 810 236 844 q 190 717 190 775 q 217 641 190 675 q 289 576 244 607 q 385 514 333 546 q 480 450 433 485 q 556 367 526 415 q 586 250 586 319 q 549 106 586 168 q 443 11 511 44 q 283 -22 375 -22 z "},"Ś":{"ha":646,"x_min":56,"x_max":586,"o":"m 283 -22 q 176 -5 225 -22 q 88 44 126 13 q 77 57 82 50 q 69 72 72 64 q 60 144 63 100 q 56 218 58 189 q 64 233 56 228 q 83 238 72 238 q 97 234 90 238 q 106 222 104 231 q 188 69 133 115 q 303 24 243 24 q 389 44 351 24 q 448 103 426 65 q 469 193 469 142 q 451 285 469 250 q 397 347 432 321 q 313 404 363 374 q 206 474 258 439 q 118 556 153 510 q 83 669 83 603 q 115 797 83 740 q 212 888 147 854 q 374 922 276 922 q 460 912 424 922 q 519 892 497 901 q 538 878 531 888 q 549 857 546 868 q 567 790 557 828 q 576 719 576 753 q 556 704 576 704 q 531 710 543 704 q 517 724 519 715 q 449 836 488 797 q 350 875 410 875 q 272 860 308 875 q 213 810 236 844 q 190 717 190 775 q 217 641 190 675 q 289 576 244 607 q 385 514 333 546 q 480 450 433 485 q 556 367 526 415 q 586 250 586 319 q 549 106 586 168 q 443 11 511 44 q 283 -22 375 -22 m 328 951 q 319 960 319 951 q 326 981 319 969 q 378 1064 351 1022 q 433 1146 406 1106 q 471 1164 446 1164 q 500 1160 481 1164 q 535 1149 519 1156 q 551 1132 551 1142 q 533 1106 551 1122 q 443 1033 493 1069 q 353 964 393 996 q 337 954 343 957 q 328 951 331 951 z "},"Š":{"ha":646,"x_min":56,"x_max":586,"o":"m 283 -22 q 176 -5 225 -22 q 88 44 126 13 q 77 57 82 50 q 69 72 72 64 q 60 144 63 100 q 56 218 58 189 q 64 233 56 228 q 83 238 72 238 q 97 234 90 238 q 106 222 104 231 q 188 69 133 115 q 303 24 243 24 q 389 44 351 24 q 448 103 426 65 q 469 193 469 142 q 451 285 469 250 q 397 347 432 321 q 313 404 363 374 q 206 474 258 439 q 118 556 153 510 q 83 669 83 603 q 115 797 83 740 q 212 888 147 854 q 374 922 276 922 q 460 912 424 922 q 519 892 497 901 q 538 878 531 888 q 549 857 546 868 q 567 790 557 828 q 576 719 576 753 q 556 704 576 704 q 531 710 543 704 q 517 724 519 715 q 449 836 488 797 q 350 875 410 875 q 272 860 308 875 q 213 810 236 844 q 190 717 190 775 q 217 641 190 675 q 289 576 244 607 q 385 514 333 546 q 480 450 433 485 q 556 367 526 415 q 586 250 586 319 q 549 106 586 168 q 443 11 511 44 q 283 -22 375 -22 m 193 1142 q 222 1133 200 1142 q 270 1111 243 1124 q 322 1086 297 1099 q 361 1065 347 1074 q 375 1060 371 1060 q 389 1065 379 1060 q 428 1086 403 1074 q 480 1112 453 1099 q 528 1134 507 1125 q 557 1143 550 1143 q 576 1128 576 1143 q 568 1111 576 1118 l 432 1003 q 401 979 411 986 q 375 972 390 972 q 349 979 360 972 q 318 1003 339 986 l 182 1111 q 172 1128 172 1119 q 193 1142 172 1142 z "},"Ş":{"ha":646,"x_min":56,"x_max":586,"o":"m 283 -22 q 176 -5 225 -22 q 88 44 126 13 q 77 57 82 50 q 69 72 72 64 q 60 144 63 100 q 56 218 58 189 q 64 233 56 228 q 83 238 72 238 q 97 234 90 238 q 106 222 104 231 q 188 69 133 115 q 303 24 243 24 q 389 44 351 24 q 448 103 426 65 q 469 193 469 142 q 451 285 469 250 q 397 347 432 321 q 313 404 363 374 q 206 474 258 439 q 118 556 153 510 q 83 669 83 603 q 115 797 83 740 q 212 888 147 854 q 374 922 276 922 q 460 912 424 922 q 519 892 497 901 q 538 878 531 888 q 549 857 546 868 q 567 790 557 828 q 576 719 576 753 q 556 704 576 704 q 531 710 543 704 q 517 724 519 715 q 449 836 488 797 q 350 875 410 875 q 272 860 308 875 q 213 810 236 844 q 190 717 190 775 q 217 641 190 675 q 289 576 244 607 q 385 514 333 546 q 480 450 433 485 q 556 367 526 415 q 586 250 586 319 q 549 106 586 168 q 443 11 511 44 q 283 -22 375 -22 m 250 -382 q 203 -370 219 -382 q 188 -337 188 -358 q 194 -302 188 -314 q 210 -290 201 -290 q 232 -299 218 -290 q 297 -308 246 -308 q 342 -292 328 -308 q 356 -254 356 -276 q 337 -197 356 -214 q 290 -179 318 -179 q 271 -181 278 -179 q 254 -183 264 -183 q 227 -174 236 -183 q 218 -160 218 -165 q 221 -148 218 -153 q 226 -139 224 -143 l 338 11 l 381 11 l 329 -67 q 338 -97 314 -87 q 398 -140 367 -108 q 429 -221 429 -172 q 397 -304 429 -268 q 324 -361 365 -340 q 250 -382 282 -382 z "},"Ŝ":{"ha":646,"x_min":56,"x_max":586,"o":"m 283 -22 q 176 -5 225 -22 q 88 44 126 13 q 77 57 82 50 q 69 72 72 64 q 60 144 63 100 q 56 218 58 189 q 64 233 56 228 q 83 238 72 238 q 97 234 90 238 q 106 222 104 231 q 188 69 133 115 q 303 24 243 24 q 389 44 351 24 q 448 103 426 65 q 469 193 469 142 q 451 285 469 250 q 397 347 432 321 q 313 404 363 374 q 206 474 258 439 q 118 556 153 510 q 83 669 83 603 q 115 797 83 740 q 212 888 147 854 q 374 922 276 922 q 460 912 424 922 q 519 892 497 901 q 538 878 531 888 q 549 857 546 868 q 567 790 557 828 q 576 719 576 753 q 556 704 576 704 q 531 710 543 704 q 517 724 519 715 q 449 836 488 797 q 350 875 410 875 q 272 860 308 875 q 213 810 236 844 q 190 717 190 775 q 217 641 190 675 q 289 576 244 607 q 385 514 333 546 q 480 450 433 485 q 556 367 526 415 q 586 250 586 319 q 549 106 586 168 q 443 11 511 44 q 283 -22 375 -22 m 192 967 q 171 981 171 967 q 181 997 171 989 l 317 1113 q 347 1136 336 1129 q 374 1143 358 1143 q 400 1136 389 1143 q 431 1113 411 1129 l 567 997 q 575 981 575 990 q 556 965 575 965 q 527 974 549 965 q 478 997 506 983 q 426 1022 451 1010 q 388 1043 401 1035 q 374 1049 378 1049 q 360 1043 369 1049 q 321 1022 346 1035 q 269 997 296 1010 q 220 976 242 985 q 192 967 199 967 z "},"ẞ":{"ha":971,"x_min":46,"x_max":913,"o":"m 569 -19 q 518 -15 549 -19 q 451 0 488 -10 q 432 17 438 4 q 415 69 425 33 q 397 144 404 106 q 389 208 390 183 q 397 224 388 217 q 417 231 406 231 q 435 200 421 231 q 459 150 444 179 q 495 93 474 121 q 545 47 517 65 q 610 28 574 28 q 704 60 665 28 q 763 144 743 93 q 783 249 783 194 q 746 378 783 332 q 642 444 708 425 q 486 464 575 464 q 467 466 481 464 q 461 478 454 468 l 694 811 q 674 839 704 825 q 604 863 638 856 q 540 869 571 869 q 420 842 472 869 q 333 767 368 815 q 281 654 299 718 q 264 517 264 590 q 264 357 264 419 q 264 255 264 294 q 265 190 264 215 q 267 142 265 164 q 288 74 267 100 q 325 42 308 47 q 360 29 349 35 q 371 14 371 24 q 360 2 371 6 q 331 -1 349 -1 q 310 -1 328 -1 q 270 1 293 0 q 230 3 247 3 q 210 4 213 4 q 189 3 207 4 q 148 1 171 1 q 107 -1 125 0 q 86 -3 89 -3 q 57 1 68 -3 q 46 13 46 4 q 92 43 46 31 q 135 72 115 50 q 156 144 156 94 l 156 528 q 186 692 156 619 q 273 817 217 765 q 406 894 329 868 q 574 921 482 921 q 697 907 633 921 q 828 869 760 893 q 841 859 835 868 q 843 844 847 850 l 785 769 q 725 691 753 726 q 670 619 697 656 q 611 533 643 582 q 610 523 608 529 q 617 517 611 517 q 762 481 694 514 q 871 392 829 447 q 913 265 913 336 q 873 115 913 179 q 757 15 833 50 q 569 -19 681 -19 z "},"Ə":{"ha":924,"x_min":38,"x_max":861,"o":"m 407 -21 q 265 3 332 -21 q 147 72 197 28 q 67 174 96 115 q 38 303 38 233 q 57 346 38 333 q 99 358 76 358 l 768 358 l 768 315 l 206 314 q 174 302 186 314 q 163 272 163 290 q 183 163 163 208 q 242 87 204 117 q 327 43 279 57 q 429 31 375 29 q 569 69 513 33 q 662 160 626 104 q 713 282 697 217 q 728 410 728 347 q 691 636 728 533 q 580 801 654 739 q 393 864 506 864 q 290 847 335 864 q 210 802 244 829 q 153 744 176 775 q 115 688 131 714 q 102 669 110 678 q 81 661 94 661 q 69 673 69 661 q 69 697 68 685 q 79 743 72 715 q 96 799 86 771 q 115 842 106 826 q 139 856 121 850 q 183 871 157 861 q 283 903 221 886 q 425 921 346 921 q 580 893 503 921 q 720 808 657 865 q 822 664 783 750 q 861 461 861 578 q 826 275 861 363 q 729 122 792 188 q 585 17 667 56 q 407 -21 503 -21 z "},"T":{"ha":931,"x_min":38,"x_max":928,"o":"m 297 -7 q 268 -3 279 -7 q 257 8 257 0 q 268 24 257 18 q 303 33 279 29 q 383 67 356 43 q 411 142 411 92 l 411 681 q 408 778 411 744 q 399 826 406 813 q 382 842 393 840 q 341 847 363 846 q 283 847 319 847 l 218 847 q 152 834 185 847 q 104 793 119 821 q 90 773 100 786 q 69 750 81 760 q 47 740 58 740 q 40 746 42 740 q 38 758 38 751 q 44 786 38 772 q 73 858 64 826 q 88 932 82 889 q 98 960 90 956 q 111 964 106 964 q 128 947 117 964 q 146 919 140 931 q 184 899 154 906 q 243 892 214 892 l 732 892 q 811 897 781 892 q 864 913 842 903 q 891 931 881 921 q 918 940 901 940 q 925 930 922 940 q 928 908 928 919 q 926 889 928 901 q 922 869 924 876 q 915 833 918 844 q 910 814 911 822 q 908 788 908 806 l 908 771 q 903 742 908 758 q 886 726 897 726 q 871 742 876 726 q 860 783 865 757 q 826 830 854 813 q 732 847 799 847 l 592 847 q 546 839 561 847 q 526 797 531 831 q 522 688 522 764 l 522 142 q 551 67 522 92 q 632 33 581 43 q 667 24 656 29 q 678 8 678 18 q 667 -3 678 0 q 638 -7 656 -7 q 576 -5 600 -7 q 529 -1 551 -3 q 475 0 507 0 q 415 -1 440 0 q 362 -5 389 -3 q 297 -7 335 -7 z "},"Ŧ":{"ha":931,"x_min":38,"x_max":928,"o":"m 238 461 q 223 471 228 461 q 218 486 218 481 q 228 503 218 496 q 251 511 239 511 l 706 511 q 719 505 713 511 q 724 492 726 499 q 706 469 717 478 q 681 461 696 461 l 238 461 m 297 -7 q 268 -3 279 -7 q 257 8 257 0 q 268 24 257 18 q 303 33 279 29 q 383 67 356 43 q 411 142 411 92 l 411 681 q 408 778 411 744 q 399 826 406 813 q 382 842 393 840 q 341 847 363 846 q 283 847 319 847 l 218 847 q 152 834 185 847 q 104 793 119 821 q 90 773 100 786 q 69 750 81 760 q 47 740 58 740 q 40 746 42 740 q 38 758 38 751 q 44 786 38 772 q 73 858 64 826 q 88 932 82 889 q 98 960 90 956 q 111 964 106 964 q 128 947 117 964 q 146 919 140 931 q 184 899 154 906 q 243 892 214 892 l 732 892 q 811 897 781 892 q 864 913 842 903 q 891 931 881 921 q 918 940 901 940 q 925 930 922 940 q 928 908 928 919 q 926 889 928 901 q 922 869 924 876 q 915 833 918 844 q 910 814 911 822 q 908 788 908 806 l 908 771 q 903 742 908 758 q 886 726 897 726 q 871 742 876 726 q 860 783 865 757 q 826 830 854 813 q 732 847 799 847 l 592 847 q 546 839 561 847 q 526 797 531 831 q 522 688 522 764 l 522 142 q 551 67 522 92 q 632 33 581 43 q 667 24 656 29 q 678 8 678 18 q 667 -3 678 0 q 638 -7 656 -7 q 576 -5 600 -7 q 529 -1 551 -3 q 475 0 507 0 q 415 -1 440 0 q 362 -5 389 -3 q 297 -7 335 -7 z "},"Ť":{"ha":931,"x_min":38,"x_max":928,"o":"m 297 -7 q 268 -3 279 -7 q 257 8 257 0 q 268 24 257 18 q 303 33 279 29 q 383 67 356 43 q 411 142 411 92 l 411 681 q 408 778 411 744 q 399 826 406 813 q 382 842 393 840 q 341 847 363 846 q 283 847 319 847 l 218 847 q 152 834 185 847 q 104 793 119 821 q 90 773 100 786 q 69 750 81 760 q 47 740 58 740 q 40 746 42 740 q 38 758 38 751 q 44 786 38 772 q 73 858 64 826 q 88 932 82 889 q 98 960 90 956 q 111 964 106 964 q 128 947 117 964 q 146 919 140 931 q 184 899 154 906 q 243 892 214 892 l 732 892 q 811 897 781 892 q 864 913 842 903 q 891 931 881 921 q 918 940 901 940 q 925 930 922 940 q 928 908 928 919 q 926 889 928 901 q 922 869 924 876 q 915 833 918 844 q 910 814 911 822 q 908 788 908 806 l 908 771 q 903 742 908 758 q 886 726 897 726 q 871 742 876 726 q 860 783 865 757 q 826 830 854 813 q 732 847 799 847 l 592 847 q 546 839 561 847 q 526 797 531 831 q 522 688 522 764 l 522 142 q 551 67 522 92 q 632 33 581 43 q 667 24 656 29 q 678 8 678 18 q 667 -3 678 0 q 638 -7 656 -7 q 576 -5 600 -7 q 529 -1 551 -3 q 475 0 507 0 q 415 -1 440 0 q 362 -5 389 -3 q 297 -7 335 -7 m 292 1142 q 320 1133 299 1142 q 369 1111 342 1124 q 421 1086 396 1099 q 460 1065 446 1074 q 474 1060 469 1060 q 488 1065 478 1060 q 526 1086 501 1074 q 578 1112 551 1099 q 627 1134 606 1125 q 656 1143 649 1143 q 675 1128 675 1143 q 667 1111 675 1118 l 531 1003 q 499 979 510 986 q 474 972 489 972 q 448 979 458 972 q 417 1003 438 986 l 281 1111 q 271 1128 271 1119 q 292 1142 271 1142 z "},"U":{"ha":1025,"x_min":33,"x_max":1011,"o":"m 517 -19 q 310 24 393 -19 q 185 148 226 68 q 143 333 143 228 l 143 760 q 123 833 143 810 q 79 861 103 856 q 33 892 33 874 q 44 903 33 900 q 74 907 56 907 q 137 905 106 907 q 207 903 168 903 q 267 904 239 903 q 318 906 296 906 q 347 902 336 906 q 358 890 358 899 q 347 875 358 881 q 313 863 336 869 q 275 831 296 857 q 254 763 254 804 l 254 372 q 292 190 254 261 q 395 84 329 118 q 546 50 461 50 q 756 149 689 50 q 822 411 822 249 q 822 492 822 442 q 819 599 821 542 q 817 710 818 657 q 810 778 817 746 q 792 833 804 810 q 760 861 779 856 q 730 872 746 865 q 714 889 714 879 q 725 901 714 897 q 754 904 736 904 q 807 903 786 904 q 858 903 828 903 q 900 903 881 903 q 938 906 919 904 q 971 907 956 907 q 1000 903 989 907 q 1011 892 1011 900 q 965 864 1011 874 q 914 829 929 857 q 896 760 899 801 q 887 542 889 640 q 882 347 885 443 q 831 157 879 240 q 701 27 782 74 q 517 -19 619 -19 z "},"Ú":{"ha":1025,"x_min":33,"x_max":1011,"o":"m 517 -19 q 310 24 393 -19 q 185 148 226 68 q 143 333 143 228 l 143 760 q 123 833 143 810 q 79 861 103 856 q 33 892 33 874 q 44 903 33 900 q 74 907 56 907 q 137 905 106 907 q 207 903 168 903 q 267 904 239 903 q 318 906 296 906 q 347 902 336 906 q 358 890 358 899 q 347 875 358 881 q 313 863 336 869 q 275 831 296 857 q 254 763 254 804 l 254 372 q 292 190 254 261 q 395 84 329 118 q 546 50 461 50 q 756 149 689 50 q 822 411 822 249 q 822 492 822 442 q 819 599 821 542 q 817 710 818 657 q 810 778 817 746 q 792 833 804 810 q 760 861 779 856 q 730 872 746 865 q 714 889 714 879 q 725 901 714 897 q 754 904 736 904 q 807 903 786 904 q 858 903 828 903 q 900 903 881 903 q 938 906 919 904 q 971 907 956 907 q 1000 903 989 907 q 1011 892 1011 900 q 965 864 1011 874 q 914 829 929 857 q 896 760 899 801 q 887 542 889 640 q 882 347 885 443 q 831 157 879 240 q 701 27 782 74 q 517 -19 619 -19 m 496 951 q 488 960 488 951 q 494 981 488 969 q 547 1064 519 1022 q 601 1146 574 1106 q 639 1164 614 1164 q 668 1160 649 1164 q 703 1149 688 1156 q 719 1132 719 1142 q 701 1106 719 1122 q 611 1033 661 1069 q 521 964 561 996 q 505 954 511 957 q 496 951 499 951 z "},"Ŭ":{"ha":1025,"x_min":33,"x_max":1011,"o":"m 517 -19 q 310 24 393 -19 q 185 148 226 68 q 143 333 143 228 l 143 760 q 123 833 143 810 q 79 861 103 856 q 33 892 33 874 q 44 903 33 900 q 74 907 56 907 q 137 905 106 907 q 207 903 168 903 q 267 904 239 903 q 318 906 296 906 q 347 902 336 906 q 358 890 358 899 q 347 875 358 881 q 313 863 336 869 q 275 831 296 857 q 254 763 254 804 l 254 372 q 292 190 254 261 q 395 84 329 118 q 546 50 461 50 q 756 149 689 50 q 822 411 822 249 q 822 492 822 442 q 819 599 821 542 q 817 710 818 657 q 810 778 817 746 q 792 833 804 810 q 760 861 779 856 q 730 872 746 865 q 714 889 714 879 q 725 901 714 897 q 754 904 736 904 q 807 903 786 904 q 858 903 828 903 q 900 903 881 903 q 938 906 919 904 q 971 907 956 907 q 1000 903 989 907 q 1011 892 1011 900 q 965 864 1011 874 q 914 829 929 857 q 896 760 899 801 q 887 542 889 640 q 882 347 885 443 q 831 157 879 240 q 701 27 782 74 q 517 -19 619 -19 m 542 961 q 440 985 483 961 q 374 1044 397 1010 q 351 1106 351 1078 q 356 1129 351 1119 q 365 1139 360 1139 q 385 1128 376 1139 q 399 1110 393 1118 q 462 1060 426 1076 q 542 1044 497 1044 q 622 1060 586 1044 q 685 1110 657 1076 q 700 1128 692 1118 q 718 1139 708 1139 q 731 1129 729 1139 q 732 1106 732 1119 q 709 1044 732 1078 q 644 985 686 1010 q 542 961 601 961 z "},"Û":{"ha":1025,"x_min":33,"x_max":1011,"o":"m 517 -19 q 310 24 393 -19 q 185 148 226 68 q 143 333 143 228 l 143 760 q 123 833 143 810 q 79 861 103 856 q 33 892 33 874 q 44 903 33 900 q 74 907 56 907 q 137 905 106 907 q 207 903 168 903 q 267 904 239 903 q 318 906 296 906 q 347 902 336 906 q 358 890 358 899 q 347 875 358 881 q 313 863 336 869 q 275 831 296 857 q 254 763 254 804 l 254 372 q 292 190 254 261 q 395 84 329 118 q 546 50 461 50 q 756 149 689 50 q 822 411 822 249 q 822 492 822 442 q 819 599 821 542 q 817 710 818 657 q 810 778 817 746 q 792 833 804 810 q 760 861 779 856 q 730 872 746 865 q 714 889 714 879 q 725 901 714 897 q 754 904 736 904 q 807 903 786 904 q 858 903 828 903 q 900 903 881 903 q 938 906 919 904 q 971 907 956 907 q 1000 903 989 907 q 1011 892 1011 900 q 965 864 1011 874 q 914 829 929 857 q 896 760 899 801 q 887 542 889 640 q 882 347 885 443 q 831 157 879 240 q 701 27 782 74 q 517 -19 619 -19 m 360 967 q 339 981 339 967 q 349 997 339 989 l 485 1113 q 515 1136 504 1129 q 542 1143 526 1143 q 568 1136 557 1143 q 599 1113 579 1129 l 735 997 q 743 981 743 990 q 724 965 743 965 q 695 974 717 965 q 647 997 674 983 q 594 1022 619 1010 q 556 1043 569 1035 q 542 1049 546 1049 q 528 1043 538 1049 q 489 1022 514 1035 q 437 997 464 1010 q 388 976 410 985 q 360 967 367 967 z "},"Ü":{"ha":1025,"x_min":33,"x_max":1011,"o":"m 517 -19 q 310 24 393 -19 q 185 148 226 68 q 143 333 143 228 l 143 760 q 123 833 143 810 q 79 861 103 856 q 33 892 33 874 q 44 903 33 900 q 74 907 56 907 q 137 905 106 907 q 207 903 168 903 q 267 904 239 903 q 318 906 296 906 q 347 902 336 906 q 358 890 358 899 q 347 875 358 881 q 313 863 336 869 q 275 831 296 857 q 254 763 254 804 l 254 372 q 292 190 254 261 q 395 84 329 118 q 546 50 461 50 q 756 149 689 50 q 822 411 822 249 q 822 492 822 442 q 819 599 821 542 q 817 710 818 657 q 810 778 817 746 q 792 833 804 810 q 760 861 779 856 q 730 872 746 865 q 714 889 714 879 q 725 901 714 897 q 754 904 736 904 q 807 903 786 904 q 858 903 828 903 q 900 903 881 903 q 938 906 919 904 q 971 907 956 907 q 1000 903 989 907 q 1011 892 1011 900 q 965 864 1011 874 q 914 829 929 857 q 896 760 899 801 q 887 542 889 640 q 882 347 885 443 q 831 157 879 240 q 701 27 782 74 q 517 -19 619 -19 m 678 965 q 628 985 649 965 q 608 1035 608 1006 q 628 1084 608 1064 q 678 1104 649 1104 q 727 1084 707 1104 q 747 1035 747 1064 q 727 985 747 1006 q 678 965 707 965 m 407 965 q 358 985 378 965 q 338 1035 338 1006 q 358 1084 338 1064 q 407 1104 378 1104 q 456 1084 436 1104 q 476 1035 476 1064 q 456 985 476 1006 q 407 965 436 965 z "},"Ù":{"ha":1025,"x_min":33,"x_max":1011,"o":"m 586 951 q 577 954 583 951 q 561 964 571 957 q 471 1033 521 996 q 381 1106 421 1069 q 363 1132 363 1122 q 378 1149 363 1142 q 414 1160 394 1156 q 443 1164 433 1164 q 481 1146 468 1164 q 535 1064 508 1106 q 588 981 563 1022 q 594 960 594 969 q 586 951 594 951 m 517 -19 q 310 24 393 -19 q 185 148 226 68 q 143 333 143 228 l 143 760 q 123 833 143 810 q 79 861 103 856 q 33 892 33 874 q 44 903 33 900 q 74 907 56 907 q 137 905 106 907 q 207 903 168 903 q 267 904 239 903 q 318 906 296 906 q 347 902 336 906 q 358 890 358 899 q 347 875 358 881 q 313 863 336 869 q 275 831 296 857 q 254 763 254 804 l 254 372 q 292 190 254 261 q 395 84 329 118 q 546 50 461 50 q 756 149 689 50 q 822 411 822 249 q 822 492 822 442 q 819 599 821 542 q 817 710 818 657 q 810 778 817 746 q 792 833 804 810 q 760 861 779 856 q 730 872 746 865 q 714 889 714 879 q 725 901 714 897 q 754 904 736 904 q 807 903 786 904 q 858 903 828 903 q 900 903 881 903 q 938 906 919 904 q 971 907 956 907 q 1000 903 989 907 q 1011 892 1011 900 q 965 864 1011 874 q 914 829 929 857 q 896 760 899 801 q 887 542 889 640 q 882 347 885 443 q 831 157 879 240 q 701 27 782 74 q 517 -19 619 -19 z "},"Ư":{"ha":1025,"x_min":33,"x_max":1086,"o":"m 528 -19 q 310 41 394 -19 q 184 207 225 101 q 143 447 143 313 l 143 760 q 123 833 143 810 q 79 861 103 856 q 33 892 33 874 q 44 903 33 900 q 74 907 56 907 q 137 905 106 907 q 207 903 168 903 q 267 904 239 903 q 318 906 296 906 q 347 902 336 906 q 358 890 358 899 q 347 875 358 881 q 313 863 336 869 q 275 831 296 857 q 254 763 254 804 l 254 408 q 292 235 254 317 q 399 101 331 153 q 560 50 468 50 q 706 97 649 50 q 793 226 764 143 q 822 417 822 308 q 822 496 822 447 q 819 601 821 544 q 817 710 818 657 q 810 778 817 746 q 792 833 804 810 q 760 861 779 856 q 730 872 746 865 q 714 889 714 879 q 725 901 714 897 q 754 904 736 904 q 784 904 771 904 q 810 903 797 904 q 836 903 822 903 l 968 903 q 1003 921 992 903 q 1014 944 1014 939 q 1004 960 1014 954 q 983 971 994 965 q 960 985 971 978 q 950 1006 950 992 q 963 1036 950 1019 q 994 1066 975 1053 q 1033 1079 1014 1079 q 1059 1064 1047 1079 q 1078 1028 1071 1049 q 1086 990 1086 1007 q 1066 922 1086 950 q 1013 875 1046 893 q 939 846 979 857 q 906 820 913 839 q 896 760 899 801 q 887 544 889 640 q 882 353 885 449 q 832 161 879 246 q 706 28 785 76 q 528 -19 628 -19 z "},"Ű":{"ha":1025,"x_min":33,"x_max":1011,"o":"m 517 -19 q 310 24 393 -19 q 185 148 226 68 q 143 333 143 228 l 143 760 q 123 833 143 810 q 79 861 103 856 q 33 892 33 874 q 44 903 33 900 q 74 907 56 907 q 137 905 106 907 q 207 903 168 903 q 267 904 239 903 q 318 906 296 906 q 347 902 336 906 q 358 890 358 899 q 347 875 358 881 q 313 863 336 869 q 275 831 296 857 q 254 763 254 804 l 254 372 q 292 190 254 261 q 395 84 329 118 q 546 50 461 50 q 756 149 689 50 q 822 411 822 249 q 822 492 822 442 q 819 599 821 542 q 817 710 818 657 q 810 778 817 746 q 792 833 804 810 q 760 861 779 856 q 730 872 746 865 q 714 889 714 879 q 725 901 714 897 q 754 904 736 904 q 807 903 786 904 q 858 903 828 903 q 900 903 881 903 q 938 906 919 904 q 971 907 956 907 q 1000 903 989 907 q 1011 892 1011 900 q 965 864 1011 874 q 914 829 929 857 q 896 760 899 801 q 887 542 889 640 q 882 347 885 443 q 831 157 879 240 q 701 27 782 74 q 517 -19 619 -19 m 585 951 q 576 960 576 951 q 583 981 576 969 q 635 1064 608 1022 q 690 1146 663 1106 q 728 1164 703 1164 q 757 1160 738 1164 q 792 1149 776 1156 q 808 1132 808 1142 q 790 1106 808 1122 q 700 1033 750 1069 q 610 964 650 996 q 594 954 600 957 q 585 951 588 951 m 401 951 q 393 960 393 951 q 400 981 393 969 q 452 1064 425 1022 q 507 1146 479 1106 q 544 1164 519 1164 q 574 1160 554 1164 q 609 1149 593 1156 q 625 1132 625 1142 q 607 1106 625 1122 q 517 1033 567 1069 q 426 964 467 996 q 410 954 417 957 q 401 951 404 951 z "},"Ū":{"ha":1025,"x_min":33,"x_max":1011,"o":"m 517 -19 q 310 24 393 -19 q 185 148 226 68 q 143 333 143 228 l 143 760 q 123 833 143 810 q 79 861 103 856 q 33 892 33 874 q 44 903 33 900 q 74 907 56 907 q 137 905 106 907 q 207 903 168 903 q 267 904 239 903 q 318 906 296 906 q 347 902 336 906 q 358 890 358 899 q 347 875 358 881 q 313 863 336 869 q 275 831 296 857 q 254 763 254 804 l 254 372 q 292 190 254 261 q 395 84 329 118 q 546 50 461 50 q 756 149 689 50 q 822 411 822 249 q 822 492 822 442 q 819 599 821 542 q 817 710 818 657 q 810 778 817 746 q 792 833 804 810 q 760 861 779 856 q 730 872 746 865 q 714 889 714 879 q 725 901 714 897 q 754 904 736 904 q 807 903 786 904 q 858 903 828 903 q 900 903 881 903 q 938 906 919 904 q 971 907 956 907 q 1000 903 989 907 q 1011 892 1011 900 q 965 864 1011 874 q 914 829 929 857 q 896 760 899 801 q 887 542 889 640 q 882 347 885 443 q 831 157 879 240 q 701 27 782 74 q 517 -19 619 -19 m 358 1004 q 345 1010 351 1004 q 339 1021 339 1015 q 342 1042 339 1028 q 352 1067 344 1056 q 372 1079 360 1079 l 738 1079 q 750 1074 744 1079 q 756 1063 756 1069 q 742 1023 756 1042 q 713 1004 729 1004 l 358 1004 z "},"Ų":{"ha":1025,"x_min":33,"x_max":1011,"o":"m 517 -19 q 310 24 393 -19 q 185 148 226 68 q 143 333 143 228 l 143 760 q 123 833 143 810 q 79 861 103 856 q 33 892 33 874 q 44 903 33 900 q 74 907 56 907 q 137 905 106 907 q 207 903 168 903 q 267 904 239 903 q 318 906 296 906 q 347 902 336 906 q 358 890 358 899 q 347 875 358 881 q 313 863 336 869 q 275 831 296 857 q 254 763 254 804 l 254 372 q 292 190 254 261 q 395 84 329 118 q 546 50 461 50 q 756 149 689 50 q 822 411 822 249 q 822 492 822 442 q 819 599 821 542 q 817 710 818 657 q 810 778 817 746 q 792 833 804 810 q 760 861 779 856 q 730 872 746 865 q 714 889 714 879 q 725 901 714 897 q 754 904 736 904 q 807 903 786 904 q 858 903 828 903 q 900 903 881 903 q 938 906 919 904 q 971 907 956 907 q 1000 903 989 907 q 1011 892 1011 900 q 965 864 1011 874 q 914 829 929 857 q 896 760 899 801 q 887 542 889 640 q 882 347 885 443 q 831 157 879 240 q 701 27 782 74 q 517 -19 619 -19 m 581 -399 q 469 -353 515 -399 q 422 -242 422 -307 q 447 -160 422 -200 q 506 -87 471 -121 q 576 -28 540 -54 q 635 11 611 -3 q 660 25 660 25 l 696 25 q 672 7 696 25 q 618 -43 649 -11 q 564 -119 588 -75 q 540 -215 540 -162 q 568 -276 540 -251 q 632 -300 596 -300 q 681 -287 657 -300 q 722 -261 704 -275 q 746 -244 740 -247 q 757 -243 751 -242 q 763 -253 763 -244 q 745 -301 763 -275 q 700 -349 728 -326 q 640 -385 672 -371 q 581 -399 608 -399 z "},"Ů":{"ha":1025,"x_min":33,"x_max":1011,"o":"m 517 -19 q 310 24 393 -19 q 185 148 226 68 q 143 333 143 228 l 143 760 q 123 833 143 810 q 79 861 103 856 q 33 892 33 874 q 44 903 33 900 q 74 907 56 907 q 137 905 106 907 q 207 903 168 903 q 267 904 239 903 q 318 906 296 906 q 347 902 336 906 q 358 890 358 899 q 347 875 358 881 q 313 863 336 869 q 275 831 296 857 q 254 763 254 804 l 254 372 q 292 190 254 261 q 395 84 329 118 q 546 50 461 50 q 756 149 689 50 q 822 411 822 249 q 822 492 822 442 q 819 599 821 542 q 817 710 818 657 q 810 778 817 746 q 792 833 804 810 q 760 861 779 856 q 730 872 746 865 q 714 889 714 879 q 725 901 714 897 q 754 904 736 904 q 807 903 786 904 q 858 903 828 903 q 900 903 881 903 q 938 906 919 904 q 971 907 956 907 q 1000 903 989 907 q 1011 892 1011 900 q 965 864 1011 874 q 914 829 929 857 q 896 760 899 801 q 887 542 889 640 q 882 347 885 443 q 831 157 879 240 q 701 27 782 74 q 517 -19 619 -19 m 471 1072 q 491 1023 471 1043 q 540 1003 511 1003 q 581 1024 567 1003 q 596 1072 596 1046 q 576 1120 596 1100 q 529 1140 557 1140 q 487 1120 503 1140 q 471 1072 471 1100 m 539 1172 q 619 1148 583 1172 q 654 1079 654 1124 q 636 1023 654 1047 q 590 985 618 999 q 528 972 561 972 q 448 998 483 972 q 413 1068 413 1024 q 431 1124 413 1100 q 478 1160 449 1147 q 539 1172 507 1172 z "},"Ũ":{"ha":1025,"x_min":33,"x_max":1011,"o":"m 517 -19 q 310 24 393 -19 q 185 148 226 68 q 143 333 143 228 l 143 760 q 123 833 143 810 q 79 861 103 856 q 33 892 33 874 q 44 903 33 900 q 74 907 56 907 q 137 905 106 907 q 207 903 168 903 q 267 904 239 903 q 318 906 296 906 q 347 902 336 906 q 358 890 358 899 q 347 875 358 881 q 313 863 336 869 q 275 831 296 857 q 254 763 254 804 l 254 372 q 292 190 254 261 q 395 84 329 118 q 546 50 461 50 q 756 149 689 50 q 822 411 822 249 q 822 492 822 442 q 819 599 821 542 q 817 710 818 657 q 810 778 817 746 q 792 833 804 810 q 760 861 779 856 q 730 872 746 865 q 714 889 714 879 q 725 901 714 897 q 754 904 736 904 q 807 903 786 904 q 858 903 828 903 q 900 903 881 903 q 938 906 919 904 q 971 907 956 907 q 1000 903 989 907 q 1011 892 1011 900 q 965 864 1011 874 q 914 829 929 857 q 896 760 899 801 q 887 542 889 640 q 882 347 885 443 q 831 157 879 240 q 701 27 782 74 q 517 -19 619 -19 m 386 961 q 372 969 379 961 q 364 983 364 976 q 376 1007 364 989 q 408 1047 389 1025 q 446 1084 426 1068 q 478 1100 465 1100 q 527 1099 501 1100 q 572 1096 553 1099 q 619 1092 596 1094 q 661 1090 643 1090 q 691 1099 676 1090 q 715 1117 706 1107 q 732 1135 725 1126 q 743 1144 739 1144 q 762 1138 754 1144 q 769 1121 769 1132 q 763 1110 769 1117 q 750 1096 757 1103 q 716 1057 733 1079 q 685 1018 699 1035 q 663 1003 676 1008 q 644 999 649 999 q 613 1000 636 999 q 561 1004 590 1001 q 506 1008 532 1007 q 463 1010 479 1010 q 439 1005 453 1010 q 417 993 425 1000 q 397 972 404 983 q 386 961 389 961 z "},"V":{"ha":933,"x_min":0,"x_max":942,"o":"m 442 -17 q 426 -7 431 -17 q 413 34 421 8 q 397 78 404 60 l 143 760 q 106 825 129 799 q 46 861 82 851 q 12 875 24 868 q 0 892 0 882 q 11 903 0 900 q 40 907 22 907 q 90 906 63 907 q 147 903 117 904 q 210 903 178 903 q 265 903 238 903 q 315 905 292 904 q 351 906 338 906 q 381 902 369 906 q 392 890 392 899 q 381 873 392 881 q 346 863 369 865 q 281 845 307 858 q 256 808 256 832 q 262 767 256 785 q 271 740 268 750 l 471 213 q 478 206 474 207 q 486 214 482 204 l 676 714 q 680 822 704 788 q 611 861 656 856 q 578 872 590 864 q 565 889 565 879 q 576 901 565 897 q 606 904 588 904 q 646 904 624 904 q 692 903 668 904 q 743 903 717 903 q 829 905 783 903 q 901 907 875 907 q 931 903 919 907 q 942 892 942 900 q 931 876 942 882 q 896 864 919 869 q 810 817 844 853 q 760 743 775 781 l 499 110 q 488 81 496 103 q 472 35 481 60 q 456 -7 464 10 q 450 -14 454 -11 q 442 -17 446 -17 z "},"Ɣ":{"ha":933,"x_min":0,"x_max":942,"o":"m 424 -397 q 333 -352 364 -397 q 303 -242 303 -307 q 312 -177 303 -217 q 342 -81 321 -137 q 396 49 363 -24 q 402 74 403 64 q 396 96 401 83 l 143 760 q 106 825 129 799 q 46 861 82 851 q 12 875 24 868 q 0 892 0 882 q 11 903 0 900 q 40 907 22 907 q 90 906 63 907 q 147 903 117 904 q 210 903 178 903 q 265 903 238 903 q 315 905 292 904 q 351 906 338 906 q 381 902 369 906 q 392 890 392 899 q 381 874 392 881 q 346 863 369 867 q 287 841 315 857 q 258 806 258 825 q 261 778 258 797 q 271 740 264 760 l 451 261 q 467 225 461 238 q 478 213 472 213 q 501 250 488 213 l 693 760 q 700 782 696 764 q 704 804 704 800 q 697 826 704 815 q 669 845 689 836 q 611 861 650 854 q 581 872 596 864 q 565 889 565 879 q 576 901 565 897 q 606 904 588 904 q 669 903 633 904 q 743 903 704 903 q 829 905 783 903 q 901 907 875 907 q 931 903 919 907 q 942 892 942 900 q 931 876 942 882 q 896 864 919 869 q 810 817 844 853 q 760 743 775 781 l 522 157 q 513 124 514 138 q 519 89 513 111 l 572 -64 q 594 -144 589 -112 q 599 -215 599 -175 q 576 -304 599 -262 q 513 -372 553 -346 q 424 -397 474 -397 m 439 -332 q 482 -308 468 -332 q 496 -240 496 -283 q 483 -155 496 -214 q 451 -39 471 -96 q 442 -31 449 -31 q 431 -39 435 -31 q 397 -128 414 -78 q 381 -224 381 -179 q 397 -301 381 -271 q 439 -332 413 -332 z "},"W":{"ha":1272,"x_min":0,"x_max":1292,"o":"m 465 -22 q 457 -10 463 -22 q 446 17 451 3 l 146 769 q 106 828 129 806 q 46 861 82 851 q 12 875 24 868 q 0 892 0 882 q 11 903 0 900 q 40 907 22 907 q 101 905 72 907 q 164 903 129 903 q 238 904 203 903 q 293 906 272 906 q 322 902 311 906 q 333 890 333 899 q 322 875 333 881 q 288 863 311 869 q 265 845 271 858 q 260 817 260 832 q 265 776 260 794 q 271 757 271 757 q 329 610 303 676 q 381 481 356 543 q 435 355 407 419 q 499 211 464 290 q 510 197 506 196 q 519 210 515 199 l 628 478 q 634 497 632 489 q 636 510 636 504 q 633 527 636 518 q 625 550 631 536 l 546 747 q 489 822 528 792 q 414 861 450 851 q 380 875 392 868 q 368 892 368 882 q 379 903 368 900 q 408 907 390 907 q 451 906 431 907 q 492 903 471 904 q 539 903 514 903 q 598 904 571 903 q 646 906 625 906 q 675 902 664 906 q 686 890 686 899 q 672 872 686 879 q 644 857 658 865 q 629 832 629 849 q 630 826 629 829 q 632 821 631 824 q 642 794 635 815 q 660 746 650 772 q 681 697 671 719 q 694 664 690 674 q 706 647 701 647 q 719 664 711 646 q 742 721 731 689 q 763 781 754 753 q 775 821 772 810 q 776 831 776 825 q 764 856 776 847 q 738 872 751 864 q 725 890 725 879 q 736 902 725 899 q 765 906 747 906 q 807 904 796 906 q 838 903 818 903 q 878 905 861 903 q 919 907 894 907 q 949 903 938 907 q 960 892 960 900 q 949 876 960 882 q 914 864 938 869 q 853 840 869 854 q 819 797 838 826 q 799 756 813 785 q 772 692 786 726 q 746 626 757 657 q 738 599 742 617 q 738 574 735 581 l 881 206 q 888 201 883 199 q 896 214 892 204 q 974 449 931 306 q 1065 751 1018 592 q 1072 777 1069 764 q 1074 801 1074 790 q 1065 839 1074 822 q 1032 861 1056 856 q 1002 872 1018 865 q 986 889 986 879 q 997 901 986 897 q 1026 904 1008 904 q 1077 903 1054 904 q 1126 903 1100 903 q 1193 905 1161 903 q 1251 907 1225 907 q 1281 903 1269 907 q 1292 892 1292 900 q 1281 876 1292 882 q 1246 864 1269 869 q 1190 835 1213 857 q 1153 788 1167 814 q 1132 742 1140 763 l 886 15 q 878 -3 885 10 q 864 -17 871 -17 q 851 -8 858 -17 q 840 10 844 0 q 778 159 804 93 q 727 292 751 225 q 669 439 703 358 q 663 447 665 449 q 654 431 660 444 q 597 290 621 351 q 549 166 572 229 q 496 21 525 103 q 482 -8 490 7 q 465 -22 474 -22 z "},"Ẃ":{"ha":1272,"x_min":0,"x_max":1292,"o":"m 465 -22 q 457 -10 463 -22 q 446 17 451 3 l 146 769 q 106 828 129 806 q 46 861 82 851 q 12 875 24 868 q 0 892 0 882 q 11 903 0 900 q 40 907 22 907 q 101 905 72 907 q 164 903 129 903 q 238 904 203 903 q 293 906 272 906 q 322 902 311 906 q 333 890 333 899 q 322 875 333 881 q 288 863 311 869 q 265 845 271 858 q 260 817 260 832 q 265 776 260 794 q 271 757 271 757 q 329 610 303 676 q 381 481 356 543 q 435 355 407 419 q 499 211 464 290 q 510 197 506 196 q 519 210 515 199 l 628 478 q 634 497 632 489 q 636 510 636 504 q 633 527 636 518 q 625 550 631 536 l 546 747 q 489 822 528 792 q 414 861 450 851 q 380 875 392 868 q 368 892 368 882 q 379 903 368 900 q 408 907 390 907 q 451 906 431 907 q 492 903 471 904 q 539 903 514 903 q 598 904 571 903 q 646 906 625 906 q 675 902 664 906 q 686 890 686 899 q 672 872 686 879 q 644 857 658 865 q 629 832 629 849 q 630 826 629 829 q 632 821 631 824 q 642 794 635 815 q 660 746 650 772 q 681 697 671 719 q 694 664 690 674 q 706 647 701 647 q 719 664 711 646 q 742 721 731 689 q 763 781 754 753 q 775 821 772 810 q 776 831 776 825 q 764 856 776 847 q 738 872 751 864 q 725 890 725 879 q 736 902 725 899 q 765 906 747 906 q 807 904 796 906 q 838 903 818 903 q 878 905 861 903 q 919 907 894 907 q 949 903 938 907 q 960 892 960 900 q 949 876 960 882 q 914 864 938 869 q 853 840 869 854 q 819 797 838 826 q 799 756 813 785 q 772 692 786 726 q 746 626 757 657 q 738 599 742 617 q 738 574 735 581 l 881 206 q 888 201 883 199 q 896 214 892 204 q 974 449 931 306 q 1065 751 1018 592 q 1072 777 1069 764 q 1074 801 1074 790 q 1065 839 1074 822 q 1032 861 1056 856 q 1002 872 1018 865 q 986 889 986 879 q 997 901 986 897 q 1026 904 1008 904 q 1077 903 1054 904 q 1126 903 1100 903 q 1193 905 1161 903 q 1251 907 1225 907 q 1281 903 1269 907 q 1292 892 1292 900 q 1281 876 1292 882 q 1246 864 1269 869 q 1190 835 1213 857 q 1153 788 1167 814 q 1132 742 1140 763 l 886 15 q 878 -3 885 10 q 864 -17 871 -17 q 851 -8 858 -17 q 840 10 844 0 q 778 159 804 93 q 727 292 751 225 q 669 439 703 358 q 663 447 665 449 q 654 431 660 444 q 597 290 621 351 q 549 166 572 229 q 496 21 525 103 q 482 -8 490 7 q 465 -22 474 -22 m 663 951 q 654 960 654 951 q 661 981 654 969 q 713 1064 686 1022 q 768 1146 740 1106 q 806 1164 781 1164 q 835 1160 815 1164 q 870 1149 854 1156 q 886 1132 886 1142 q 868 1106 886 1122 q 778 1033 828 1069 q 688 964 728 996 q 672 954 678 957 q 663 951 665 951 z "},"Ŵ":{"ha":1272,"x_min":0,"x_max":1292,"o":"m 465 -22 q 457 -10 463 -22 q 446 17 451 3 l 146 769 q 106 828 129 806 q 46 861 82 851 q 12 875 24 868 q 0 892 0 882 q 11 903 0 900 q 40 907 22 907 q 101 905 72 907 q 164 903 129 903 q 238 904 203 903 q 293 906 272 906 q 322 902 311 906 q 333 890 333 899 q 322 875 333 881 q 288 863 311 869 q 265 845 271 858 q 260 817 260 832 q 265 776 260 794 q 271 757 271 757 q 329 610 303 676 q 381 481 356 543 q 435 355 407 419 q 499 211 464 290 q 510 197 506 196 q 519 210 515 199 l 628 478 q 634 497 632 489 q 636 510 636 504 q 633 527 636 518 q 625 550 631 536 l 546 747 q 489 822 528 792 q 414 861 450 851 q 380 875 392 868 q 368 892 368 882 q 379 903 368 900 q 408 907 390 907 q 451 906 431 907 q 492 903 471 904 q 539 903 514 903 q 598 904 571 903 q 646 906 625 906 q 675 902 664 906 q 686 890 686 899 q 672 872 686 879 q 644 857 658 865 q 629 832 629 849 q 630 826 629 829 q 632 821 631 824 q 642 794 635 815 q 660 746 650 772 q 681 697 671 719 q 694 664 690 674 q 706 647 701 647 q 719 664 711 646 q 742 721 731 689 q 763 781 754 753 q 775 821 772 810 q 776 831 776 825 q 764 856 776 847 q 738 872 751 864 q 725 890 725 879 q 736 902 725 899 q 765 906 747 906 q 807 904 796 906 q 838 903 818 903 q 878 905 861 903 q 919 907 894 907 q 949 903 938 907 q 960 892 960 900 q 949 876 960 882 q 914 864 938 869 q 853 840 869 854 q 819 797 838 826 q 799 756 813 785 q 772 692 786 726 q 746 626 757 657 q 738 599 742 617 q 738 574 735 581 l 881 206 q 888 201 883 199 q 896 214 892 204 q 974 449 931 306 q 1065 751 1018 592 q 1072 777 1069 764 q 1074 801 1074 790 q 1065 839 1074 822 q 1032 861 1056 856 q 1002 872 1018 865 q 986 889 986 879 q 997 901 986 897 q 1026 904 1008 904 q 1077 903 1054 904 q 1126 903 1100 903 q 1193 905 1161 903 q 1251 907 1225 907 q 1281 903 1269 907 q 1292 892 1292 900 q 1281 876 1292 882 q 1246 864 1269 869 q 1190 835 1213 857 q 1153 788 1167 814 q 1132 742 1140 763 l 886 15 q 878 -3 885 10 q 864 -17 871 -17 q 851 -8 858 -17 q 840 10 844 0 q 778 159 804 93 q 727 292 751 225 q 669 439 703 358 q 663 447 665 449 q 654 431 660 444 q 597 290 621 351 q 549 166 572 229 q 496 21 525 103 q 482 -8 490 7 q 465 -22 474 -22 m 526 967 q 506 981 506 967 q 515 997 506 989 l 651 1113 q 682 1136 671 1129 q 708 1143 693 1143 q 735 1136 724 1143 q 765 1113 746 1129 l 901 997 q 910 981 910 990 q 890 965 910 965 q 862 974 883 965 q 813 997 840 983 q 761 1022 786 1010 q 722 1043 736 1035 q 708 1049 713 1049 q 694 1043 704 1049 q 656 1022 681 1035 q 603 997 631 1010 q 555 976 576 985 q 526 967 533 967 z "},"Ẅ":{"ha":1272,"x_min":0,"x_max":1292,"o":"m 465 -22 q 457 -10 463 -22 q 446 17 451 3 l 146 769 q 106 828 129 806 q 46 861 82 851 q 12 875 24 868 q 0 892 0 882 q 11 903 0 900 q 40 907 22 907 q 101 905 72 907 q 164 903 129 903 q 238 904 203 903 q 293 906 272 906 q 322 902 311 906 q 333 890 333 899 q 322 875 333 881 q 288 863 311 869 q 265 845 271 858 q 260 817 260 832 q 265 776 260 794 q 271 757 271 757 q 329 610 303 676 q 381 481 356 543 q 435 355 407 419 q 499 211 464 290 q 510 197 506 196 q 519 210 515 199 l 628 478 q 634 497 632 489 q 636 510 636 504 q 633 527 636 518 q 625 550 631 536 l 546 747 q 489 822 528 792 q 414 861 450 851 q 380 875 392 868 q 368 892 368 882 q 379 903 368 900 q 408 907 390 907 q 451 906 431 907 q 492 903 471 904 q 539 903 514 903 q 598 904 571 903 q 646 906 625 906 q 675 902 664 906 q 686 890 686 899 q 672 872 686 879 q 644 857 658 865 q 629 832 629 849 q 630 826 629 829 q 632 821 631 824 q 642 794 635 815 q 660 746 650 772 q 681 697 671 719 q 694 664 690 674 q 706 647 701 647 q 719 664 711 646 q 742 721 731 689 q 763 781 754 753 q 775 821 772 810 q 776 831 776 825 q 764 856 776 847 q 738 872 751 864 q 725 890 725 879 q 736 902 725 899 q 765 906 747 906 q 807 904 796 906 q 838 903 818 903 q 878 905 861 903 q 919 907 894 907 q 949 903 938 907 q 960 892 960 900 q 949 876 960 882 q 914 864 938 869 q 853 840 869 854 q 819 797 838 826 q 799 756 813 785 q 772 692 786 726 q 746 626 757 657 q 738 599 742 617 q 738 574 735 581 l 881 206 q 888 201 883 199 q 896 214 892 204 q 974 449 931 306 q 1065 751 1018 592 q 1072 777 1069 764 q 1074 801 1074 790 q 1065 839 1074 822 q 1032 861 1056 856 q 1002 872 1018 865 q 986 889 986 879 q 997 901 986 897 q 1026 904 1008 904 q 1077 903 1054 904 q 1126 903 1100 903 q 1193 905 1161 903 q 1251 907 1225 907 q 1281 903 1269 907 q 1292 892 1292 900 q 1281 876 1292 882 q 1246 864 1269 869 q 1190 835 1213 857 q 1153 788 1167 814 q 1132 742 1140 763 l 886 15 q 878 -3 885 10 q 864 -17 871 -17 q 851 -8 858 -17 q 840 10 844 0 q 778 159 804 93 q 727 292 751 225 q 669 439 703 358 q 663 447 665 449 q 654 431 660 444 q 597 290 621 351 q 549 166 572 229 q 496 21 525 103 q 482 -8 490 7 q 465 -22 474 -22 m 844 965 q 795 985 815 965 q 775 1035 775 1006 q 795 1084 775 1064 q 844 1104 815 1104 q 894 1084 874 1104 q 914 1035 914 1064 q 894 985 914 1006 q 844 965 874 965 m 574 965 q 524 985 544 965 q 504 1035 504 1006 q 524 1084 504 1064 q 574 1104 544 1104 q 623 1084 603 1104 q 643 1035 643 1064 q 623 985 643 1006 q 574 965 603 965 z "},"Ẁ":{"ha":1272,"x_min":0,"x_max":1292,"o":"m 753 951 q 744 954 750 951 q 728 964 738 957 q 638 1033 688 996 q 547 1106 588 1069 q 529 1132 529 1122 q 545 1149 529 1142 q 581 1160 561 1156 q 610 1164 600 1164 q 647 1146 635 1164 q 702 1064 675 1106 q 754 981 729 1022 q 761 960 761 969 q 753 951 761 951 m 465 -22 q 457 -10 463 -22 q 446 17 451 3 l 146 769 q 106 828 129 806 q 46 861 82 851 q 12 875 24 868 q 0 892 0 882 q 11 903 0 900 q 40 907 22 907 q 101 905 72 907 q 164 903 129 903 q 238 904 203 903 q 293 906 272 906 q 322 902 311 906 q 333 890 333 899 q 322 875 333 881 q 288 863 311 869 q 265 845 271 858 q 260 817 260 832 q 265 776 260 794 q 271 757 271 757 q 329 610 303 676 q 381 481 356 543 q 435 355 407 419 q 499 211 464 290 q 510 197 506 196 q 519 210 515 199 l 628 478 q 634 497 632 489 q 636 510 636 504 q 633 527 636 518 q 625 550 631 536 l 546 747 q 489 822 528 792 q 414 861 450 851 q 380 875 392 868 q 368 892 368 882 q 379 903 368 900 q 408 907 390 907 q 451 906 431 907 q 492 903 471 904 q 539 903 514 903 q 598 904 571 903 q 646 906 625 906 q 675 902 664 906 q 686 890 686 899 q 672 872 686 879 q 644 857 658 865 q 629 832 629 849 q 630 826 629 829 q 632 821 631 824 q 642 794 635 815 q 660 746 650 772 q 681 697 671 719 q 694 664 690 674 q 706 647 701 647 q 719 664 711 646 q 742 721 731 689 q 763 781 754 753 q 775 821 772 810 q 776 831 776 825 q 764 856 776 847 q 738 872 751 864 q 725 890 725 879 q 736 902 725 899 q 765 906 747 906 q 807 904 796 906 q 838 903 818 903 q 878 905 861 903 q 919 907 894 907 q 949 903 938 907 q 960 892 960 900 q 949 876 960 882 q 914 864 938 869 q 853 840 869 854 q 819 797 838 826 q 799 756 813 785 q 772 692 786 726 q 746 626 757 657 q 738 599 742 617 q 738 574 735 581 l 881 206 q 888 201 883 199 q 896 214 892 204 q 974 449 931 306 q 1065 751 1018 592 q 1072 777 1069 764 q 1074 801 1074 790 q 1065 839 1074 822 q 1032 861 1056 856 q 1002 872 1018 865 q 986 889 986 879 q 997 901 986 897 q 1026 904 1008 904 q 1077 903 1054 904 q 1126 903 1100 903 q 1193 905 1161 903 q 1251 907 1225 907 q 1281 903 1269 907 q 1292 892 1292 900 q 1281 876 1292 882 q 1246 864 1269 869 q 1190 835 1213 857 q 1153 788 1167 814 q 1132 742 1140 763 l 886 15 q 878 -3 885 10 q 864 -17 871 -17 q 851 -8 858 -17 q 840 10 844 0 q 778 159 804 93 q 727 292 751 225 q 669 439 703 358 q 663 447 665 449 q 654 431 660 444 q 597 290 621 351 q 549 166 572 229 q 496 21 525 103 q 482 -8 490 7 q 465 -22 474 -22 z "},"X":{"ha":982,"x_min":-7,"x_max":971,"o":"m 33 -7 q 4 -3 15 -7 q -7 8 -7 0 q 5 25 -7 18 q 39 39 17 32 q 98 63 63 46 q 171 108 133 81 q 238 172 208 136 l 411 389 q 432 427 426 408 q 418 474 438 446 l 232 735 q 169 809 197 783 q 118 846 142 835 q 71 864 94 857 q 37 878 49 871 q 25 894 25 885 q 36 906 25 903 q 65 910 47 910 q 156 906 100 910 q 264 903 213 903 q 344 904 306 903 q 401 906 383 906 q 431 902 419 906 q 442 890 442 899 q 431 875 442 881 q 396 863 419 869 q 343 844 361 853 q 325 819 325 836 q 371 733 325 797 l 497 556 q 520 535 513 533 q 539 551 528 536 l 688 747 q 714 786 704 768 q 724 818 724 804 q 709 844 724 833 q 661 861 694 856 q 631 872 647 864 q 615 889 615 879 q 626 901 615 897 q 656 904 638 904 q 690 904 672 904 q 728 903 708 904 q 768 903 747 903 q 853 907 808 903 q 926 911 899 911 q 956 908 944 911 q 967 896 967 904 q 956 881 967 886 q 921 868 944 875 q 834 810 882 858 q 740 708 786 763 l 581 519 q 558 488 563 497 q 561 464 554 479 l 776 154 q 847 78 808 108 q 925 36 886 47 q 960 24 949 31 q 971 8 971 18 q 960 -3 971 0 q 931 -7 949 -7 q 876 -5 911 -7 q 803 -1 842 -3 q 732 1 765 1 q 651 1 689 1 q 589 0 614 0 q 560 3 571 0 q 549 15 549 7 q 565 32 549 25 q 594 43 581 39 q 635 66 615 50 q 656 108 656 82 q 652 131 656 119 q 639 154 649 142 l 494 364 q 478 380 485 379 q 464 371 471 381 l 276 129 q 267 113 271 121 q 264 97 264 104 q 281 63 264 78 q 326 42 299 49 q 361 30 350 36 q 372 14 372 24 q 361 2 372 6 q 332 -1 350 -1 q 280 0 314 -1 q 208 1 246 1 q 115 -3 161 1 q 33 -7 68 -7 z "},"Y":{"ha":803,"x_min":0,"x_max":863,"o":"m 253 -7 q 224 -3 235 -7 q 213 8 213 0 q 224 24 213 18 q 258 33 235 29 q 339 72 311 43 q 367 150 367 100 l 367 356 q 352 416 367 383 q 332 458 338 449 l 169 725 q 139 772 160 742 q 94 828 118 801 q 46 861 69 854 q 12 875 24 868 q 0 892 0 882 q 11 903 0 900 q 40 907 22 907 q 114 905 72 907 q 203 903 156 903 q 263 904 235 903 q 314 906 292 906 q 343 902 332 906 q 354 890 354 899 q 343 874 354 881 q 308 863 332 868 q 276 850 289 857 q 264 828 264 843 q 282 778 264 810 l 410 542 q 449 489 438 489 q 467 501 457 489 q 494 542 476 513 q 551 635 526 590 q 611 742 576 679 q 631 783 625 765 q 636 813 636 800 q 617 849 636 839 q 579 861 599 858 q 549 872 565 864 q 533 889 533 879 q 544 901 533 897 q 574 904 556 904 q 626 903 606 904 q 678 903 647 903 q 760 905 721 903 q 822 907 799 907 q 851 903 840 907 q 863 892 863 900 q 840 874 863 882 q 789 857 818 865 q 728 817 753 847 q 667 731 704 788 q 620 658 639 688 q 585 604 601 629 q 553 552 569 579 q 513 486 536 525 q 488 439 494 457 q 479 405 481 421 q 478 361 478 389 l 478 150 q 507 73 478 103 q 588 33 536 43 q 622 24 611 29 q 633 8 633 18 q 622 -3 633 0 q 593 -7 611 -7 q 531 -5 556 -7 q 485 -1 507 -3 q 431 0 463 0 q 370 -1 396 0 q 317 -5 344 -3 q 253 -7 290 -7 z "},"Ý":{"ha":803,"x_min":0,"x_max":863,"o":"m 253 -7 q 224 -3 235 -7 q 213 8 213 0 q 224 24 213 18 q 258 33 235 29 q 339 72 311 43 q 367 150 367 100 l 367 356 q 352 416 367 383 q 332 458 338 449 l 169 725 q 139 772 160 742 q 94 828 118 801 q 46 861 69 854 q 12 875 24 868 q 0 892 0 882 q 11 903 0 900 q 40 907 22 907 q 114 905 72 907 q 203 903 156 903 q 263 904 235 903 q 314 906 292 906 q 343 902 332 906 q 354 890 354 899 q 343 874 354 881 q 308 863 332 868 q 276 850 289 857 q 264 828 264 843 q 282 778 264 810 l 410 542 q 449 489 438 489 q 467 501 457 489 q 494 542 476 513 q 551 635 526 590 q 611 742 576 679 q 631 783 625 765 q 636 813 636 800 q 617 849 636 839 q 579 861 599 858 q 549 872 565 864 q 533 889 533 879 q 544 901 533 897 q 574 904 556 904 q 626 903 606 904 q 678 903 647 903 q 760 905 721 903 q 822 907 799 907 q 851 903 840 907 q 863 892 863 900 q 840 874 863 882 q 789 857 818 865 q 728 817 753 847 q 667 731 704 788 q 620 658 639 688 q 585 604 601 629 q 553 552 569 579 q 513 486 536 525 q 488 439 494 457 q 479 405 481 421 q 478 361 478 389 l 478 150 q 507 73 478 103 q 588 33 536 43 q 622 24 611 29 q 633 8 633 18 q 622 -3 633 0 q 593 -7 611 -7 q 531 -5 556 -7 q 485 -1 507 -3 q 431 0 463 0 q 370 -1 396 0 q 317 -5 344 -3 q 253 -7 290 -7 m 399 951 q 390 960 390 951 q 397 981 390 969 q 449 1064 422 1022 q 504 1146 476 1106 q 542 1164 517 1164 q 571 1160 551 1164 q 606 1149 590 1156 q 622 1132 622 1142 q 604 1106 622 1122 q 514 1033 564 1069 q 424 964 464 996 q 408 954 414 957 q 399 951 401 951 z "},"Ŷ":{"ha":803,"x_min":0,"x_max":863,"o":"m 253 -7 q 224 -3 235 -7 q 213 8 213 0 q 224 24 213 18 q 258 33 235 29 q 339 72 311 43 q 367 150 367 100 l 367 356 q 352 416 367 383 q 332 458 338 449 l 169 725 q 139 772 160 742 q 94 828 118 801 q 46 861 69 854 q 12 875 24 868 q 0 892 0 882 q 11 903 0 900 q 40 907 22 907 q 114 905 72 907 q 203 903 156 903 q 263 904 235 903 q 314 906 292 906 q 343 902 332 906 q 354 890 354 899 q 343 874 354 881 q 308 863 332 868 q 276 850 289 857 q 264 828 264 843 q 282 778 264 810 l 410 542 q 449 489 438 489 q 467 501 457 489 q 494 542 476 513 q 551 635 526 590 q 611 742 576 679 q 631 783 625 765 q 636 813 636 800 q 617 849 636 839 q 579 861 599 858 q 549 872 565 864 q 533 889 533 879 q 544 901 533 897 q 574 904 556 904 q 626 903 606 904 q 678 903 647 903 q 760 905 721 903 q 822 907 799 907 q 851 903 840 907 q 863 892 863 900 q 840 874 863 882 q 789 857 818 865 q 728 817 753 847 q 667 731 704 788 q 620 658 639 688 q 585 604 601 629 q 553 552 569 579 q 513 486 536 525 q 488 439 494 457 q 479 405 481 421 q 478 361 478 389 l 478 150 q 507 73 478 103 q 588 33 536 43 q 622 24 611 29 q 633 8 633 18 q 622 -3 633 0 q 593 -7 611 -7 q 531 -5 556 -7 q 485 -1 507 -3 q 431 0 463 0 q 370 -1 396 0 q 317 -5 344 -3 q 253 -7 290 -7 m 263 967 q 242 981 242 967 q 251 997 242 989 l 388 1113 q 418 1136 407 1129 q 444 1143 429 1143 q 471 1136 460 1143 q 501 1113 482 1129 l 638 997 q 646 981 646 990 q 626 965 646 965 q 598 974 619 965 q 549 997 576 983 q 497 1022 522 1010 q 458 1043 472 1035 q 444 1049 449 1049 q 431 1043 440 1049 q 392 1022 417 1035 q 340 997 367 1010 q 291 976 313 985 q 263 967 269 967 z "},"Ÿ":{"ha":803,"x_min":0,"x_max":863,"o":"m 253 -7 q 224 -3 235 -7 q 213 8 213 0 q 224 24 213 18 q 258 33 235 29 q 339 72 311 43 q 367 150 367 100 l 367 356 q 352 416 367 383 q 332 458 338 449 l 169 725 q 139 772 160 742 q 94 828 118 801 q 46 861 69 854 q 12 875 24 868 q 0 892 0 882 q 11 903 0 900 q 40 907 22 907 q 114 905 72 907 q 203 903 156 903 q 263 904 235 903 q 314 906 292 906 q 343 902 332 906 q 354 890 354 899 q 343 874 354 881 q 308 863 332 868 q 276 850 289 857 q 264 828 264 843 q 282 778 264 810 l 410 542 q 449 489 438 489 q 467 501 457 489 q 494 542 476 513 q 551 635 526 590 q 611 742 576 679 q 631 783 625 765 q 636 813 636 800 q 617 849 636 839 q 579 861 599 858 q 549 872 565 864 q 533 889 533 879 q 544 901 533 897 q 574 904 556 904 q 626 903 606 904 q 678 903 647 903 q 760 905 721 903 q 822 907 799 907 q 851 903 840 907 q 863 892 863 900 q 840 874 863 882 q 789 857 818 865 q 728 817 753 847 q 667 731 704 788 q 620 658 639 688 q 585 604 601 629 q 553 552 569 579 q 513 486 536 525 q 488 439 494 457 q 479 405 481 421 q 478 361 478 389 l 478 150 q 507 73 478 103 q 588 33 536 43 q 622 24 611 29 q 633 8 633 18 q 622 -3 633 0 q 593 -7 611 -7 q 531 -5 556 -7 q 485 -1 507 -3 q 431 0 463 0 q 370 -1 396 0 q 317 -5 344 -3 q 253 -7 290 -7 m 581 965 q 531 985 551 965 q 511 1035 511 1006 q 531 1084 511 1064 q 581 1104 551 1104 q 630 1084 610 1104 q 650 1035 650 1064 q 630 985 650 1006 q 581 965 610 965 m 310 965 q 260 985 281 965 q 240 1035 240 1006 q 260 1084 240 1064 q 310 1104 281 1104 q 359 1084 339 1104 q 379 1035 379 1064 q 359 985 379 1006 q 310 965 339 965 z "},"Ỳ":{"ha":803,"x_min":0,"x_max":863,"o":"m 489 951 q 480 954 486 951 q 464 964 474 957 q 374 1033 424 996 q 283 1106 324 1069 q 265 1132 265 1122 q 281 1149 265 1142 q 317 1160 297 1156 q 346 1164 336 1164 q 383 1146 371 1164 q 438 1064 411 1106 q 490 981 465 1022 q 497 960 497 969 q 489 951 497 951 m 253 -7 q 224 -3 235 -7 q 213 8 213 0 q 224 24 213 18 q 258 33 235 29 q 339 72 311 43 q 367 150 367 100 l 367 356 q 352 416 367 383 q 332 458 338 449 l 169 725 q 139 772 160 742 q 94 828 118 801 q 46 861 69 854 q 12 875 24 868 q 0 892 0 882 q 11 903 0 900 q 40 907 22 907 q 114 905 72 907 q 203 903 156 903 q 263 904 235 903 q 314 906 292 906 q 343 902 332 906 q 354 890 354 899 q 343 874 354 881 q 308 863 332 868 q 276 850 289 857 q 264 828 264 843 q 282 778 264 810 l 410 542 q 449 489 438 489 q 467 501 457 489 q 494 542 476 513 q 551 635 526 590 q 611 742 576 679 q 631 783 625 765 q 636 813 636 800 q 617 849 636 839 q 579 861 599 858 q 549 872 565 864 q 533 889 533 879 q 544 901 533 897 q 574 904 556 904 q 626 903 606 904 q 678 903 647 903 q 760 905 721 903 q 822 907 799 907 q 851 903 840 907 q 863 892 863 900 q 840 874 863 882 q 789 857 818 865 q 728 817 753 847 q 667 731 704 788 q 620 658 639 688 q 585 604 601 629 q 553 552 569 579 q 513 486 536 525 q 488 439 494 457 q 479 405 481 421 q 478 361 478 389 l 478 150 q 507 73 478 103 q 588 33 536 43 q 622 24 611 29 q 633 8 633 18 q 622 -3 633 0 q 593 -7 611 -7 q 531 -5 556 -7 q 485 -1 507 -3 q 431 0 463 0 q 370 -1 396 0 q 317 -5 344 -3 q 253 -7 290 -7 z "},"Z":{"ha":838,"x_min":39,"x_max":817,"o":"m 740 -7 q 625 -6 681 -7 q 517 -5 569 -6 q 416 -3 465 -4 q 321 -3 367 -3 q 238 -3 279 -3 q 156 -4 196 -4 l 49 -4 q 41 6 43 -4 q 39 15 39 15 q 52 45 39 22 q 85 96 65 68 q 119 144 104 124 q 250 323 190 242 q 365 481 310 404 q 478 641 421 558 q 603 824 536 724 q 607 829 606 826 q 608 835 608 832 q 603 842 608 839 q 582 846 597 844 q 490 848 544 847 q 379 849 435 849 q 301 849 339 849 q 238 846 264 849 q 163 819 204 843 q 101 743 121 794 q 87 715 96 731 q 63 699 78 699 q 53 703 57 699 q 50 714 50 708 q 53 733 50 722 q 60 751 57 743 q 73 794 65 767 q 88 853 81 821 q 97 915 96 886 q 106 935 99 931 q 118 939 113 939 q 137 932 124 939 q 161 919 150 925 q 210 906 175 914 q 281 897 246 897 q 362 897 315 897 q 456 897 408 897 q 540 897 499 897 q 620 898 581 897 q 699 899 660 899 q 776 901 738 900 q 790 892 783 901 q 792 876 796 882 l 707 764 q 576 588 635 667 q 465 434 518 508 q 358 278 413 360 q 238 97 303 197 q 233 81 233 92 q 238 65 233 72 q 249 57 242 58 q 319 52 279 54 q 406 50 360 50 q 503 52 453 50 q 601 57 553 54 q 774 208 721 67 q 785 227 776 217 q 804 238 794 238 q 817 219 817 238 q 811 187 817 214 q 797 125 806 160 q 780 60 789 90 q 765 17 771 29 q 756 1 761 8 q 740 -7 751 -7 z "},"Ź":{"ha":838,"x_min":39,"x_max":817,"o":"m 740 -7 q 625 -6 681 -7 q 517 -5 569 -6 q 416 -3 465 -4 q 321 -3 367 -3 q 238 -3 279 -3 q 156 -4 196 -4 l 49 -4 q 41 6 43 -4 q 39 15 39 15 q 52 45 39 22 q 85 96 65 68 q 119 144 104 124 q 250 323 190 242 q 365 481 310 404 q 478 641 421 558 q 603 824 536 724 q 607 829 606 826 q 608 835 608 832 q 603 842 608 839 q 582 846 597 844 q 490 848 544 847 q 379 849 435 849 q 301 849 339 849 q 238 846 264 849 q 163 819 204 843 q 101 743 121 794 q 87 715 96 731 q 63 699 78 699 q 53 703 57 699 q 50 714 50 708 q 53 733 50 722 q 60 751 57 743 q 73 794 65 767 q 88 853 81 821 q 97 915 96 886 q 106 935 99 931 q 118 939 113 939 q 137 932 124 939 q 161 919 150 925 q 210 906 175 914 q 281 897 246 897 q 362 897 315 897 q 456 897 408 897 q 540 897 499 897 q 620 898 581 897 q 699 899 660 899 q 776 901 738 900 q 790 892 783 901 q 792 876 796 882 l 707 764 q 576 588 635 667 q 465 434 518 508 q 358 278 413 360 q 238 97 303 197 q 233 81 233 92 q 238 65 233 72 q 249 57 242 58 q 319 52 279 54 q 406 50 360 50 q 503 52 453 50 q 601 57 553 54 q 774 208 721 67 q 785 227 776 217 q 804 238 794 238 q 817 219 817 238 q 811 187 817 214 q 797 125 806 160 q 780 60 789 90 q 765 17 771 29 q 756 1 761 8 q 740 -7 751 -7 m 392 951 q 383 960 383 951 q 390 981 383 969 q 442 1064 415 1022 q 497 1146 469 1106 q 535 1164 510 1164 q 564 1160 544 1164 q 599 1149 583 1156 q 615 1132 615 1142 q 597 1106 615 1122 q 507 1033 557 1069 q 417 964 457 996 q 401 954 407 957 q 392 951 394 951 z "},"Ž":{"ha":838,"x_min":39,"x_max":817,"o":"m 740 -7 q 625 -6 681 -7 q 517 -5 569 -6 q 416 -3 465 -4 q 321 -3 367 -3 q 238 -3 279 -3 q 156 -4 196 -4 l 49 -4 q 41 6 43 -4 q 39 15 39 15 q 52 45 39 22 q 85 96 65 68 q 119 144 104 124 q 250 323 190 242 q 365 481 310 404 q 478 641 421 558 q 603 824 536 724 q 607 829 606 826 q 608 835 608 832 q 603 842 608 839 q 582 846 597 844 q 490 848 544 847 q 379 849 435 849 q 301 849 339 849 q 238 846 264 849 q 163 819 204 843 q 101 743 121 794 q 87 715 96 731 q 63 699 78 699 q 53 703 57 699 q 50 714 50 708 q 53 733 50 722 q 60 751 57 743 q 73 794 65 767 q 88 853 81 821 q 97 915 96 886 q 106 935 99 931 q 118 939 113 939 q 137 932 124 939 q 161 919 150 925 q 210 906 175 914 q 281 897 246 897 q 362 897 315 897 q 456 897 408 897 q 540 897 499 897 q 620 898 581 897 q 699 899 660 899 q 776 901 738 900 q 790 892 783 901 q 792 876 796 882 l 707 764 q 576 588 635 667 q 465 434 518 508 q 358 278 413 360 q 238 97 303 197 q 233 81 233 92 q 238 65 233 72 q 249 57 242 58 q 319 52 279 54 q 406 50 360 50 q 503 52 453 50 q 601 57 553 54 q 774 208 721 67 q 785 227 776 217 q 804 238 794 238 q 817 219 817 238 q 811 187 817 214 q 797 125 806 160 q 780 60 789 90 q 765 17 771 29 q 756 1 761 8 q 740 -7 751 -7 m 257 1142 q 285 1133 264 1142 q 334 1111 307 1124 q 386 1086 361 1099 q 425 1065 411 1074 q 439 1060 435 1060 q 453 1065 443 1060 q 492 1086 467 1074 q 544 1112 517 1099 q 592 1134 571 1125 q 621 1143 614 1143 q 640 1128 640 1143 q 632 1111 640 1118 l 496 1003 q 465 979 475 986 q 439 972 454 972 q 413 979 424 972 q 382 1003 403 986 l 246 1111 q 236 1128 236 1119 q 257 1142 236 1142 z "},"Ż":{"ha":838,"x_min":39,"x_max":817,"o":"m 740 -7 q 625 -6 681 -7 q 517 -5 569 -6 q 416 -3 465 -4 q 321 -3 367 -3 q 238 -3 279 -3 q 156 -4 196 -4 l 49 -4 q 41 6 43 -4 q 39 15 39 15 q 52 45 39 22 q 85 96 65 68 q 119 144 104 124 q 250 323 190 242 q 365 481 310 404 q 478 641 421 558 q 603 824 536 724 q 607 829 606 826 q 608 835 608 832 q 603 842 608 839 q 582 846 597 844 q 490 848 544 847 q 379 849 435 849 q 301 849 339 849 q 238 846 264 849 q 163 819 204 843 q 101 743 121 794 q 87 715 96 731 q 63 699 78 699 q 53 703 57 699 q 50 714 50 708 q 53 733 50 722 q 60 751 57 743 q 73 794 65 767 q 88 853 81 821 q 97 915 96 886 q 106 935 99 931 q 118 939 113 939 q 137 932 124 939 q 161 919 150 925 q 210 906 175 914 q 281 897 246 897 q 362 897 315 897 q 456 897 408 897 q 540 897 499 897 q 620 898 581 897 q 699 899 660 899 q 776 901 738 900 q 790 892 783 901 q 792 876 796 882 l 707 764 q 576 588 635 667 q 465 434 518 508 q 358 278 413 360 q 238 97 303 197 q 233 81 233 92 q 238 65 233 72 q 249 57 242 58 q 319 52 279 54 q 406 50 360 50 q 503 52 453 50 q 601 57 553 54 q 774 208 721 67 q 785 227 776 217 q 804 238 794 238 q 817 219 817 238 q 811 187 817 214 q 797 125 806 160 q 780 60 789 90 q 765 17 771 29 q 756 1 761 8 q 740 -7 751 -7 m 438 965 q 384 988 407 965 q 361 1042 361 1011 q 384 1096 361 1074 q 438 1118 407 1118 q 492 1096 469 1118 q 514 1042 514 1074 q 492 988 514 1011 q 438 965 469 965 z "},"Ģ":{"ha":1013,"x_min":63,"x_max":963,"o":"m 544 -19 q 362 15 449 -19 q 208 110 275 49 q 101 253 140 171 q 63 432 63 336 q 103 624 63 535 q 214 779 143 713 q 377 883 285 846 q 574 921 469 921 q 638 916 597 921 q 723 904 679 911 q 802 890 767 897 q 851 875 838 882 q 860 869 858 872 q 864 858 863 865 q 874 778 869 818 q 878 711 878 739 q 872 692 878 701 q 857 683 865 683 q 836 696 843 683 q 825 721 829 708 q 808 759 817 743 q 782 794 799 775 q 747 823 774 806 q 674 854 719 840 q 561 868 628 868 q 414 834 481 868 q 299 741 347 800 q 226 607 251 682 q 200 450 200 532 q 231 274 200 351 q 313 142 261 196 q 429 60 364 88 q 564 32 494 32 q 683 51 644 32 q 733 83 721 71 q 762 126 749 99 q 775 190 775 154 q 776 217 775 203 q 777 244 776 231 q 778 271 778 258 q 776 297 778 286 q 771 313 775 307 q 732 338 760 328 q 676 351 704 347 q 635 356 649 356 q 618 363 629 356 q 607 379 607 369 q 618 397 607 390 q 635 403 629 403 q 694 401 669 403 q 746 399 719 400 q 810 397 772 397 q 871 400 846 397 q 933 403 896 403 q 951 399 939 403 q 963 381 963 394 q 951 364 963 371 q 933 356 939 357 q 891 331 903 347 q 875 288 879 315 q 869 233 871 257 q 868 183 868 210 l 868 146 q 871 135 868 139 q 876 124 874 131 q 888 111 881 117 q 894 100 894 106 q 892 85 894 94 q 875 74 890 76 q 837 58 865 72 q 765 25 808 43 q 667 -6 722 7 q 544 -19 611 -19 m 497 -382 q 479 -369 479 -382 q 499 -351 479 -358 q 556 -310 536 -339 q 575 -254 575 -282 q 560 -214 575 -225 q 515 -196 544 -203 q 476 -176 490 -189 q 463 -135 463 -162 q 480 -95 463 -111 q 525 -79 497 -79 q 611 -118 575 -79 q 647 -219 647 -157 q 631 -288 647 -258 q 590 -339 614 -318 q 540 -371 565 -360 q 497 -382 515 -382 z "},"Ķ":{"ha":946,"x_min":43,"x_max":956,"o":"m 83 -7 q 54 -3 65 -7 q 43 8 43 0 q 89 33 43 25 q 162 66 142 43 q 182 140 182 89 l 182 765 q 162 834 182 814 q 89 864 142 854 q 43 892 43 872 q 54 903 43 900 q 83 907 65 907 q 144 906 121 907 q 188 905 167 906 q 239 904 208 904 q 281 905 265 904 q 317 906 297 906 q 374 907 336 907 q 403 903 392 907 q 414 892 414 900 q 403 875 414 882 q 368 864 392 868 q 305 830 317 854 q 293 765 293 806 l 293 506 q 294 490 293 500 q 300 479 294 479 q 319 488 307 479 q 338 504 331 496 l 615 788 q 631 809 626 799 q 636 829 636 819 q 610 861 636 854 q 576 874 586 868 q 567 889 567 879 q 578 901 567 897 q 607 904 589 904 l 682 904 q 771 906 722 904 q 859 908 819 907 q 907 910 899 910 q 929 906 921 910 q 938 894 938 901 q 926 878 938 885 q 892 867 915 871 q 785 836 840 857 q 681 775 729 815 q 588 694 631 733 q 504 612 546 654 q 414 515 463 569 q 421 490 406 507 l 757 132 q 806 81 788 99 q 848 52 825 63 q 910 33 871 42 q 944 23 933 28 q 956 8 956 18 q 944 -3 956 0 q 915 -7 933 -7 q 846 -5 875 -7 q 789 -1 817 -3 q 722 0 761 0 q 676 -1 696 0 q 610 -1 657 -1 q 581 2 592 -1 q 569 14 569 6 q 607 38 569 29 q 646 65 646 47 q 640 82 646 74 q 625 100 633 90 l 331 425 q 313 441 322 433 q 299 449 304 449 q 293 438 293 449 q 293 419 293 426 q 295 295 293 354 q 300 153 297 236 q 309 99 301 124 q 335 57 317 74 q 389 33 354 40 q 424 24 413 29 q 435 8 435 18 q 424 -3 435 0 q 394 -7 413 -7 q 337 -4 357 -7 q 301 1 317 -1 q 258 3 285 3 q 199 1 225 3 q 147 -4 174 -1 q 83 -7 121 -7 m 435 -382 q 417 -369 417 -382 q 436 -351 417 -358 q 493 -310 474 -339 q 513 -254 513 -282 q 497 -214 513 -225 q 453 -196 482 -203 q 414 -176 428 -189 q 400 -135 400 -162 q 417 -95 400 -111 q 463 -79 435 -79 q 549 -118 513 -79 q 585 -219 585 -157 q 568 -288 585 -258 q 527 -339 551 -318 q 478 -371 503 -360 q 435 -382 453 -382 z "},"Ļ":{"ha":811,"x_min":38,"x_max":799,"o":"m 76 -7 q 48 -2 58 -7 q 38 10 38 3 q 51 27 38 22 q 68 33 64 32 q 151 66 122 44 q 181 133 181 88 l 181 778 q 174 827 181 811 q 149 851 167 843 q 96 864 131 858 q 50 892 50 872 q 61 903 50 900 q 90 907 72 907 q 151 906 128 907 q 194 903 174 904 q 246 903 215 903 q 306 903 281 903 q 357 906 331 904 q 421 907 383 907 q 450 903 439 907 q 461 892 461 900 q 450 875 461 882 q 415 864 439 868 q 328 841 364 854 q 292 788 292 828 l 292 133 q 311 69 292 90 q 399 49 331 49 l 571 49 q 637 60 608 49 q 679 85 665 72 q 720 127 707 108 q 751 183 733 146 q 763 208 754 192 q 782 225 772 225 q 794 217 790 225 q 799 200 799 208 q 798 197 799 199 q 797 193 797 194 q 780 128 788 157 q 767 72 772 99 q 760 17 763 46 q 755 0 758 7 q 740 -7 751 -7 q 607 -6 671 -7 q 484 -3 543 -4 q 371 -1 425 -3 q 264 0 317 0 q 185 -1 229 0 q 109 -5 142 -3 q 76 -7 76 -7 m 375 -382 q 357 -369 357 -382 q 376 -351 357 -358 q 433 -310 414 -339 q 453 -254 453 -282 q 438 -214 453 -225 q 393 -196 422 -203 q 354 -176 368 -189 q 340 -135 340 -162 q 358 -95 340 -111 q 403 -79 375 -79 q 489 -118 453 -79 q 525 -219 525 -157 q 508 -288 525 -258 q 467 -339 492 -318 q 418 -371 443 -360 q 375 -382 393 -382 z "},"Ņ":{"ha":1069,"x_min":17,"x_max":1086,"o":"m 928 -24 q 878 -3 915 -24 q 808 64 842 18 q 774 106 803 71 q 702 192 746 140 q 607 306 658 244 q 504 428 556 367 q 408 541 453 489 q 334 628 364 593 q 297 672 304 664 q 281 690 288 685 q 268 694 274 694 q 258 684 261 694 q 256 665 256 674 q 253 508 254 597 q 250 325 251 419 q 249 144 249 231 q 267 75 249 107 q 338 33 286 43 q 372 24 361 29 q 383 8 383 18 q 372 -3 383 0 q 343 -7 361 -7 q 287 -5 306 -7 q 253 -1 268 -3 q 213 0 239 0 q 174 -1 188 0 q 142 -5 160 -3 q 86 -7 124 -7 q 57 -3 68 -7 q 46 8 46 0 q 57 24 46 18 q 92 35 68 29 q 150 76 132 46 q 172 149 168 106 q 183 288 178 201 q 193 483 189 375 q 197 704 197 590 q 159 810 197 778 q 60 861 121 842 q 35 873 54 864 q 17 894 17 882 q 29 910 17 907 q 49 914 42 914 q 114 912 89 913 q 158 910 139 911 q 201 908 178 908 q 263 907 225 907 q 282 900 275 907 q 296 883 289 893 q 333 837 301 875 q 410 741 364 799 q 513 616 457 683 q 624 481 568 549 q 726 356 679 414 q 805 261 774 299 q 842 217 836 224 q 858 200 847 211 q 876 189 868 189 q 890 218 889 189 q 891 292 890 238 q 892 426 892 347 q 893 596 893 504 q 893 783 893 688 q 864 833 892 811 q 813 860 836 856 q 769 871 789 864 q 750 888 750 878 q 769 899 750 896 q 807 903 789 903 q 834 903 821 903 q 860 903 847 903 q 886 903 874 903 q 939 903 919 903 q 981 906 958 904 q 1046 907 1004 907 q 1075 903 1064 907 q 1086 892 1086 900 q 1040 864 1086 872 q 972 839 989 854 q 953 789 956 824 q 952 735 953 782 q 951 615 951 688 q 951 460 951 543 q 950 294 950 376 q 950 146 950 211 q 952 85 950 113 q 956 40 954 58 q 957 11 957 21 q 948 -17 957 -11 q 928 -24 939 -24 m 506 -382 q 488 -369 488 -382 q 507 -351 488 -358 q 564 -310 544 -339 q 583 -254 583 -282 q 568 -214 583 -225 q 524 -196 553 -203 q 485 -176 499 -189 q 471 -135 471 -162 q 488 -95 471 -111 q 533 -79 506 -79 q 619 -118 583 -79 q 656 -219 656 -157 q 639 -288 656 -258 q 598 -339 622 -318 q 549 -371 574 -360 q 506 -382 524 -382 z "},"Ŗ":{"ha":990,"x_min":33,"x_max":997,"o":"m 885 -29 q 811 -23 846 -29 q 747 0 776 -17 q 693 46 718 17 q 629 126 660 88 q 565 214 599 164 q 482 342 531 264 q 422 396 461 376 q 362 417 392 411 q 313 425 332 424 q 297 418 301 426 q 292 397 292 410 l 292 153 q 313 76 292 108 q 385 33 333 43 q 419 24 408 29 q 431 8 431 18 q 419 -3 431 0 q 390 -7 408 -7 q 333 -4 353 -7 q 297 1 313 -1 q 254 3 281 3 q 192 1 219 3 q 138 -4 165 -1 q 74 -7 111 -7 q 44 -3 56 -7 q 33 8 33 0 q 79 33 33 25 q 156 65 132 43 q 181 139 181 88 l 181 731 q 176 810 181 783 q 153 849 171 838 q 96 864 136 860 q 61 874 72 867 q 50 892 50 882 q 61 903 50 900 q 90 907 72 907 q 147 907 128 907 q 182 906 165 907 q 226 906 199 906 q 274 908 253 906 q 320 911 294 910 q 386 913 346 913 q 619 856 539 913 q 699 685 699 799 q 674 577 699 622 q 611 501 649 532 q 535 451 574 471 q 530 445 529 450 q 535 433 531 440 q 617 310 578 368 q 704 196 657 251 q 817 81 751 140 q 890 42 853 49 q 976 35 928 35 q 997 19 997 35 q 976 -12 997 -1 q 929 -26 956 -22 q 885 -29 903 -29 m 365 457 q 476 486 429 457 q 548 563 522 515 q 574 663 574 610 q 559 767 574 719 q 501 842 544 814 q 369 871 457 871 q 311 842 325 871 q 294 742 297 814 q 292 648 293 707 q 292 506 292 589 q 311 464 292 471 q 365 457 331 457 m 461 -382 q 443 -369 443 -382 q 463 -351 443 -358 q 519 -310 500 -339 q 539 -254 539 -282 q 524 -214 539 -225 q 479 -196 508 -203 q 440 -176 454 -189 q 426 -135 426 -162 q 444 -95 426 -111 q 489 -79 461 -79 q 575 -118 539 -79 q 611 -219 611 -157 q 594 -288 611 -258 q 553 -339 578 -318 q 504 -371 529 -360 q 461 -382 479 -382 z "},"Ţ":{"ha":931,"x_min":38,"x_max":928,"o":"m 297 -7 q 268 -3 279 -7 q 257 8 257 0 q 268 24 257 18 q 303 33 279 29 q 383 67 356 43 q 411 142 411 92 l 411 681 q 408 778 411 744 q 399 826 406 813 q 382 842 393 840 q 341 847 363 846 q 283 847 319 847 l 218 847 q 152 834 185 847 q 104 793 119 821 q 90 773 100 786 q 69 750 81 760 q 47 740 58 740 q 40 746 42 740 q 38 758 38 751 q 44 786 38 772 q 73 858 64 826 q 88 932 82 889 q 98 960 90 956 q 111 964 106 964 q 128 947 117 964 q 146 919 140 931 q 184 899 154 906 q 243 892 214 892 l 732 892 q 811 897 781 892 q 864 913 842 903 q 891 931 881 921 q 918 940 901 940 q 925 930 922 940 q 928 908 928 919 q 926 889 928 901 q 922 869 924 876 q 915 833 918 844 q 910 814 911 822 q 908 788 908 806 l 908 771 q 903 742 908 758 q 886 726 897 726 q 871 742 876 726 q 860 783 865 757 q 826 830 854 813 q 732 847 799 847 l 592 847 q 546 839 561 847 q 526 797 531 831 q 522 688 522 764 l 522 142 q 551 67 522 92 q 632 33 581 43 q 667 24 656 29 q 678 8 678 18 q 667 -3 678 0 q 638 -7 656 -7 q 576 -5 600 -7 q 529 -1 551 -3 q 475 0 507 0 q 415 -1 440 0 q 362 -5 389 -3 q 297 -7 335 -7 m 385 -382 q 338 -370 354 -382 q 322 -337 322 -358 q 329 -302 322 -314 q 344 -290 336 -290 q 367 -299 353 -290 q 432 -308 381 -308 q 476 -292 463 -308 q 490 -254 490 -276 q 472 -197 490 -214 q 425 -179 453 -179 q 406 -181 413 -179 q 389 -183 399 -183 q 362 -174 371 -183 q 353 -160 353 -165 q 356 -148 353 -153 q 361 -139 358 -143 l 472 11 l 515 11 l 464 -67 q 472 -97 449 -87 q 533 -140 501 -108 q 564 -221 564 -172 q 532 -304 564 -268 q 458 -361 500 -340 q 385 -382 417 -382 z "},"Ɓ":{"ha":904,"x_min":21,"x_max":849,"o":"m 169 -7 q 140 -3 151 -7 q 129 8 129 0 q 175 33 129 25 q 256 65 228 43 q 283 138 283 88 l 283 801 q 276 847 283 831 q 236 863 268 863 q 133 845 179 863 q 86 782 86 828 q 100 749 86 764 q 128 722 114 735 q 150 702 140 713 q 160 681 160 692 q 147 653 160 667 q 119 630 135 639 q 96 621 104 621 q 60 638 78 621 q 32 679 43 656 q 21 722 21 703 q 44 819 21 778 q 128 883 68 860 q 297 906 188 906 q 386 908 350 906 q 452 911 422 910 q 514 913 482 913 q 651 892 588 913 q 753 827 714 872 q 792 706 792 782 q 776 623 792 658 q 744 572 760 588 q 704 539 722 551 q 651 513 686 526 q 646 506 646 511 q 651 499 646 501 q 717 474 683 489 q 781 435 751 460 q 830 370 811 410 q 849 269 849 331 q 824 149 849 193 q 767 81 800 104 q 704 42 733 57 q 606 7 661 19 q 482 -6 551 -6 q 428 -3 464 -6 q 350 0 392 0 q 289 -1 314 0 q 237 -5 264 -3 q 169 -7 210 -7 m 501 51 q 605 79 556 51 q 686 155 654 107 q 718 263 718 203 q 700 352 718 317 q 658 410 682 388 q 615 442 635 432 q 560 465 597 453 q 471 476 524 476 q 409 458 426 476 q 392 426 392 440 l 392 150 q 420 72 392 92 q 501 51 449 51 m 456 515 q 526 523 483 515 q 610 556 568 531 q 649 598 625 564 q 672 692 672 632 q 655 772 672 732 q 594 840 638 813 q 471 868 550 868 q 403 854 414 868 q 392 808 392 840 l 392 567 q 415 523 392 531 q 456 515 439 515 z "},"Ƃ":{"ha":815,"x_min":51,"x_max":765,"o":"m 92 -7 q 63 -3 74 -7 q 51 8 51 0 q 97 33 51 25 q 178 65 150 43 q 206 136 206 88 l 206 764 q 185 833 206 813 q 113 864 165 854 q 67 892 67 872 q 78 903 67 900 q 107 907 89 907 q 169 906 144 907 q 215 903 193 904 q 269 903 238 903 l 614 903 q 640 906 617 903 q 668 910 663 910 q 678 902 675 910 q 682 890 682 894 q 688 815 683 846 q 693 750 693 785 q 686 728 693 736 q 674 721 679 721 q 655 735 667 721 q 640 760 643 749 q 630 799 638 776 q 602 840 622 822 q 540 858 582 858 l 357 858 q 328 843 339 858 q 317 810 317 828 l 317 567 q 319 515 317 533 q 333 497 322 497 q 338 497 336 497 q 340 499 339 497 q 401 515 365 507 q 489 522 436 522 q 690 456 615 522 q 765 269 765 390 q 741 149 765 193 q 684 81 717 104 q 626 42 651 57 q 529 6 585 17 q 404 -6 474 -6 q 363 -3 390 -6 q 301 3 335 0 q 238 6 268 6 q 190 3 208 6 q 151 -3 172 0 q 92 -7 129 -7 m 424 51 q 527 79 478 51 q 608 155 576 107 q 640 263 640 203 q 622 352 640 317 q 581 410 604 388 q 538 442 557 432 q 483 465 519 453 q 393 476 446 476 q 340 466 363 476 q 317 426 317 456 l 317 150 q 344 77 317 103 q 424 51 372 51 z "},"Ƅ":{"ha":789,"x_min":13,"x_max":726,"o":"m 53 -7 q 24 -3 35 -7 q 13 8 13 0 q 58 33 13 25 q 139 65 111 43 q 167 136 167 88 l 167 656 q 142 738 167 704 q 69 793 118 771 q 28 829 28 813 q 33 845 28 838 q 57 854 39 853 q 153 876 111 860 q 224 908 196 893 q 261 924 251 924 q 281 917 278 924 q 285 894 285 910 q 283 865 285 885 q 280 827 282 846 q 278 800 278 808 l 278 567 q 281 515 278 533 q 294 497 283 497 q 299 497 297 497 q 301 499 300 497 q 362 515 326 507 q 450 522 397 522 q 651 456 576 522 q 726 269 726 390 q 679 115 726 176 q 551 24 632 54 q 365 -6 469 -6 q 324 -3 351 -6 q 263 3 296 0 q 199 6 229 6 q 151 3 169 6 q 112 -3 133 0 q 53 -7 90 -7 m 385 51 q 488 79 439 51 q 569 155 538 107 q 601 263 601 203 q 583 352 601 317 q 542 410 565 388 q 499 442 518 432 q 444 465 481 453 q 354 476 407 476 q 301 466 324 476 q 278 426 278 456 l 278 150 q 306 77 278 103 q 385 51 333 51 z "},"Ɔ":{"ha":986,"x_min":76,"x_max":922,"o":"m 421 924 q 608 890 518 924 q 769 795 699 857 q 881 647 840 733 q 922 454 922 561 q 879 267 922 353 q 761 117 836 181 q 590 17 686 53 q 386 -18 493 -18 q 295 -14 333 -18 q 222 -1 257 -10 q 139 18 186 7 q 110 35 118 24 q 99 65 101 47 q 92 134 96 97 q 86 225 89 171 q 96 242 86 236 q 117 245 106 247 q 133 226 129 243 q 165 135 147 174 q 219 72 183 97 q 303 38 254 50 q 410 25 353 25 q 560 58 492 25 q 677 147 628 90 q 754 274 726 203 q 782 421 782 344 q 755 588 782 506 q 677 735 728 669 q 556 841 626 801 q 400 881 486 881 q 235 835 300 881 q 124 707 169 789 q 95 689 114 689 q 76 711 76 689 q 83 747 76 722 q 97 799 89 771 q 114 846 106 826 q 131 871 125 865 q 158 883 136 876 q 281 914 210 904 q 421 924 353 924 z "},"Ƈ":{"ha":917,"x_min":64,"x_max":1069,"o":"m 513 -21 q 336 17 418 -21 q 193 119 254 54 q 98 269 132 185 q 64 449 64 354 q 104 636 64 550 q 215 786 144 722 q 377 885 286 850 q 569 921 468 921 q 677 913 638 921 q 742 896 717 904 q 786 888 767 888 q 795 890 792 888 q 801 901 799 892 q 860 983 818 958 q 946 1007 903 1007 q 1043 986 1017 1007 q 1069 942 1069 965 q 1049 901 1069 919 q 1011 882 1029 882 q 987 892 999 882 q 963 915 975 903 q 936 938 950 928 q 904 949 922 949 q 868 937 882 949 q 849 901 854 925 q 843 838 843 876 q 848 770 844 810 q 851 676 851 731 q 841 660 851 665 q 819 658 831 656 q 807 669 808 661 q 781 759 799 722 q 751 807 764 796 q 721 831 744 814 q 654 863 697 849 q 547 878 611 878 q 408 845 471 878 q 299 756 344 813 q 228 629 253 700 q 203 482 203 558 q 227 315 203 397 q 298 167 251 233 q 410 62 344 101 q 556 22 475 22 q 684 51 633 22 q 766 120 735 79 q 815 196 797 161 q 832 210 821 206 q 852 211 843 214 q 861 197 861 208 q 853 150 861 183 q 834 83 844 117 q 814 36 824 50 q 790 23 808 28 q 746 7 771 18 q 683 -10 722 -4 q 599 -19 644 -17 q 513 -21 554 -21 z "}}}
